<?xml version="1.0" encoding="UTF-8"?>
<svg width="36px" height="36px" viewBox="0 0 36 36" version="1.1" xmlns="http://www.w3.org/2000/svg" xmlns:xlink="http://www.w3.org/1999/xlink">
    <!-- Generator: Sketch 49 (51002) - http://www.bohemiancoding.com/sketch -->
    <title>icon:support copy</title>
    <desc>Created with Sketch.</desc>
    <defs></defs>
    <g id="Page-1" stroke="none" stroke-width="1" fill="none" fill-rule="evenodd">
        <g id="CP41_PREM_Actionable_Content_RBoS_L" transform="translate(-85.000000, -1533.000000)" fill="#FFFFFF" fill-rule="nonzero">
            <g id="Ways-to-join-Copy-2" transform="translate(0.000000, 1367.000000)">
                <g id="Speak-to-us" transform="translate(50.000000, 122.000000)">
                    <g id="1">
                        <path d="M53,44 C43.04,44 35,52.04 35,62 C35,71.96 43.04,80 53,80 C62.96,80 71,71.96 71,62 C71,52.04 62.96,44 53,44 Z M55,70 L51,70 L51,60 L54.9615385,60 L54.9615385,70 L55,70 Z M53.5,59 C52.1403509,59 51,57.9035088 51,56.5 C51,55.1403509 52.0964912,54 53.5,54 C54.8596491,54 56,55.0964912 56,56.5 C56,57.9035088 54.8596491,59 53.5,59 Z" id="icon:support-copy"></path>
                    </g>
                </g>
            </g>
        </g>
    </g>
</svg>