<svg width="24" height="25" viewBox="0 0 24 25" fill="none" xmlns="http://www.w3.org/2000/svg">
<g id="24x24 / Core / Plus">
<path id="Icon" fill-rule="evenodd" clip-rule="evenodd" d="M11.9874 4.7998C12.3187 4.7998 12.5874 5.06843 12.5874 5.3998V11.8532H19.0408C19.3721 11.8532 19.6408 12.1219 19.6408 12.4532C19.6408 12.7846 19.3721 13.0532 19.0408 13.0532L12.5874 13.0525V13.0532H12.5873L12.5874 19.5066C12.5874 19.8012 12.3751 20.0462 12.0952 20.097L11.9874 20.1066C11.656 20.1066 11.3874 19.838 11.3874 19.5066L11.3874 13.0532H4.93398C4.60261 13.0532 4.33398 12.7846 4.33398 12.4532L4.34365 12.3453C4.39445 12.0654 4.63943 11.8532 4.93398 11.8532L11.3881 11.8532L11.3874 5.3998C11.3874 5.06843 11.656 4.7998 11.9874 4.7998Z" fill="#5E10B1"/>
</g>
</svg>
