<svg width="24" height="24" viewBox="0 0 24 24" fill="none" xmlns="http://www.w3.org/2000/svg">
<path fill-rule="evenodd" clip-rule="evenodd" d="M0.34783 19.279L9.40055 1.93192C9.40055 1.93192 10.2732 0.0631851 11.9593 0C13.686 0 14.5853 1.93192 14.5853 1.93192L23.6468 19.279C23.6468 19.279 24.3796 20.9798 23.5921 22.4512C22.6793 24.1276 20.8117 23.9895 20.8117 23.9895H3.06316C3.06316 23.9895 1.36564 24.1096 0.431132 22.5092C-0.387248 20.971 0.34783 19.279 0.34783 19.279Z" fill="#CF223F"/>
<path fill-rule="evenodd" clip-rule="evenodd" d="M12.8671 14.2514C12.8522 14.4141 12.8369 14.5825 12.821 14.7593H11.179C11.1632 14.5825 11.1478 14.4141 11.1329 14.2514C10.9813 12.5909 10.8831 11.5158 10.8831 8H13.1169C13.1169 11.5158 13.0187 12.5909 12.8671 14.2514ZM13.25 18.2909C13.25 19.0338 12.7766 19.5 11.9926 19.5C11.2382 19.5 10.75 19.0338 10.75 18.2763C10.75 17.5188 11.253 17.0527 12.0074 17.0527C12.7618 17.0527 13.25 17.5334 13.25 18.2909Z" fill="white"/>
</svg>
