<?xml version="1.0" encoding="UTF-8"?>
<svg width="30px" height="30px" viewBox="0 0 30 30" version="1.1" xmlns="http://www.w3.org/2000/svg" xmlns:xlink="http://www.w3.org/1999/xlink">
    <!-- Generator: Sketch 53 (72520) - https://sketchapp.com -->
    <title>Artboard Copy 2</title>
    <desc>Created with Sketch.</desc>
    <g id="Artboard-Copy-2" stroke="none" stroke-width="1" fill="none" fill-rule="evenodd">
        <path d="M15,30 C6.71572875,30 -4.36983782e-13,23.2842712 -4.36983782e-13,15 C-4.36983782e-13,6.71572875 6.71572875,1.80477855e-12 15,1.80477855e-12 C23.2842712,1.80477855e-12 30,6.71572875 30,15 C30,23.2842712 23.2842712,30 15,30 Z M15.1757322,5 C12.539749,5 10.5313808,6.02424242 9,8.23030303 L11.5104603,10.4626263 C12.7656904,8.49292929 13.6945607,8.02020202 14.9497908,8.02020202 C16.5062762,8.02020202 17.4100418,8.78181818 17.460251,10.1474747 C17.460251,11.6181818 16.4309623,12.4323232 15.4016736,13.220202 C14.2217573,14.0868687 12.8912134,15.0060606 12.8912134,17.1333333 L12.8912134,18 L16.4309623,18 L16.4309623,17.2121212 C16.4309623,16.3979798 17.1338912,15.8464646 18.0627615,15.2161616 C19.3179916,14.3232323 21,13.0626263 21,10.1737374 C21,6.91717172 18.790795,5 15.1757322,5 Z M14.9881657,20 C13.7810651,20 13,20.7810651 13,22.0118343 C13,23.2426036 13.7573964,24 14.9881657,24 C16.2189349,24 17,23.2426036 17,22.0118343 C17,20.7810651 16.1952663,20 14.9881657,20 Z" id="Combined-Shape" fill="#ffffff"></path>
    </g>
</svg>