<?xml version="1.0" encoding="UTF-8"?>
<svg width="32px" height="30px" viewBox="0 0 32 30" version="1.1" xmlns="http://www.w3.org/2000/svg" xmlns:xlink="http://www.w3.org/1999/xlink">
    <!-- Generator: Sketch 49.1 (51147) - http://www.bohemiancoding.com/sketch -->
    <title>icon-support_network_white</title>
    <desc>Created with Sketch.</desc>
    <defs></defs>
    <g id="Page-1" stroke="none" stroke-width="1" fill="none" fill-rule="evenodd">
        <g id="Icons_36x36" transform="translate(-2.000000, -3.000000)" fill="#FFFFFF">
            <g id="support-network" transform="translate(2.000000, 3.000000)">
                <path d="M9.87054545,22.7358854 L6.69090909,25.8896797 L6.69090909,22.7358854 L2.90909091,22.7358854 L2.91345455,13.7909974 L8.72727273,13.7909974 L8.72727273,16.5913244 C8.72727273,17.3855439 9.38181818,18.0340483 10.1818182,18.0340483 L16,18.0340483 L16,22.7358854 L9.87054545,22.7358854 Z M30.5454545,0 L10.1818182,0 C9.38181818,0 8.72727273,0.649225738 8.72727273,1.44272386 L8.72727273,10.820429 C8.72727273,10.820429 8.72654545,10.8557757 8.72581818,10.9055497 L2.90909091,10.9055497 C1.30472727,10.9055497 0,12.2003943 0,13.7909974 L0,22.7358854 C0,24.3272098 1.30472727,25.6213331 2.90909091,25.6213331 L3.78181818,25.6213331 L3.78181818,27.9794652 C3.78181818,28.7989324 4.27563636,29.5318361 5.03854545,29.8449072 C5.29236364,29.9495047 5.55709091,30 5.82036364,30 C6.34836364,30 6.86690909,29.7951332 7.25745455,29.4077619 L11.0749091,25.6213331 L16,25.6213331 C17.6043636,25.6213331 18.9090909,24.3272098 18.9090909,22.7358854 L18.9090909,18.7554102 L18.9090909,18.0340483 L22.5454545,18.0340483 L27.8494545,23.2949408 C28.3076364,23.7493989 29.0909091,23.4276714 29.0909091,22.784938 L29.0909091,18.0340483 L30.5454545,18.0340483 C31.3447273,18.0340483 32,17.3855439 32,16.5913244 L32,1.44272386 C32,0.649225738 31.3447273,0 30.5454545,0 Z" id="support_network_white"></path>
            </g>
        </g>
    </g>
</svg>