<svg width="12" height="12" viewBox="0 0 12 12" fill="none" xmlns="http://www.w3.org/2000/svg">
<path fill-rule="evenodd" clip-rule="evenodd" d="M5.54535 0.833496C8.1479 0.833496 10.2577 2.94328 10.2577 5.54584C10.2577 6.64651 9.8787 7.68855 9.19991 8.52105L9.15551 8.57183L11.261 10.5579C11.4173 10.7053 11.4576 10.9295 11.3786 11.1164L11.3375 11.1938L11.2817 11.2647C11.118 11.4383 10.8556 11.4712 10.6411 11.3374L10.5749 11.2854L8.43384 9.26683L8.37993 9.31066C7.62857 9.87742 6.72387 10.2086 5.76704 10.253L5.54535 10.2582C2.94279 10.2582 0.833008 8.14839 0.833008 5.54584C0.833008 2.94328 2.94279 0.833496 5.54535 0.833496ZM5.54535 1.8335C3.49508 1.8335 1.83301 3.49557 1.83301 5.54584C1.83301 7.59611 3.49508 9.25818 5.54535 9.25818C7.59562 9.25818 9.25769 7.59611 9.25769 5.54584C9.25769 3.49557 7.59562 1.8335 5.54535 1.8335Z" fill="#5E10B1"/>
</svg>
