<svg width="16" height="16" viewBox="0 0 25 24" fill="none" xmlns="http://www.w3.org/2000/svg">
<path fill-rule="evenodd" clip-rule="evenodd" d="M0.990408 19.279L10.0431 1.93192C10.0431 1.93192 10.9158 0.0631851 12.6019 0C14.3286 0 15.2279 1.93192 15.2279 1.93192L24.2894 19.279C24.2894 19.279 25.0221 20.9798 24.2347 22.4512C23.3218 24.1276 21.4543 23.9895 21.4543 23.9895H3.70574C3.70574 23.9895 2.00821 24.1096 1.07371 22.5092C0.255331 20.971 0.990408 19.279 0.990408 19.279Z" stroke="white"/>
<path fill-rule="evenodd" clip-rule="evenodd" d="M13.5097 14.2514C13.4948 14.4141 13.4794 14.5825 13.4636 14.7593H11.8216C11.8057 14.5825 11.7904 14.4141 11.7755 14.2514C11.6239 12.5909 11.5257 11.5158 11.5257 8H13.7594C13.7594 11.5158 13.6613 12.5909 13.5097 14.2514ZM13.8926 18.2909C13.8926 19.0338 13.4192 19.5 12.6352 19.5C11.8807 19.5 11.3926 19.0338 11.3926 18.2763C11.3926 17.5188 11.8955 17.0527 12.65 17.0527C13.4044 17.0527 13.8926 17.5334 13.8926 18.2909Z" fill="white"/>
</svg>