<?xml version="1.0" encoding="UTF-8"?>
<svg width="29px" height="37px" viewBox="0 0 29 37" version="1.1" xmlns="http://www.w3.org/2000/svg" xmlns:xlink="http://www.w3.org/1999/xlink">
    <title>D3C14B02-B8B0-4D50-8ADE-D778442AF5C2@1x</title>
    <g id="⚛️-Icons--**" stroke="none" stroke-width="1" fill="none" fill-rule="evenodd">
        <g id="Web-Icons-**-WIP-**" transform="translate(-411.000000, -3084.000000)">
            <g id="01:-Atoms-/-Icons-/-View-PDF-/-52x52" transform="translate(406.932820, 3082.840058)">
                <g id="Group" transform="translate(4.967180, 1.275431)">
                    <g id="Group-2" stroke="#ffffff" stroke-width="1.8">
                        <path d="M25,0.9 C25.579899,0.9 26.104899,1.13505051 26.4849242,1.51507576 C26.8649495,1.89510101 27.1,2.42010101 27.1,3 L27.1,31 C27.1,32.1321837 26.6410919,33.1571837 25.8991378,33.8991378 C25.1571837,34.6410919 24.1321837,35.1 23,35.1 L3,35.1 C2.42010101,35.1 1.89510101,34.8649495 1.51507576,34.4849242 C1.13505051,34.104899 0.9,33.579899 0.9,33 L0.9,11.6324522 L8.93067955,0.9 L25,0.9 Z" id="Rectangle"></path>
                        <path d="M1.41811141,12.286225 L8.3555603,12.286225 C8.90784505,12.286225 9.3555603,11.8385098 9.3555603,11.286225 L9.3555603,1.61278447 C9.3555603,1.38131983 9.16792113,1.19368065 8.93645648,1.19368065 C8.78445911,1.19368065 8.64437543,1.27597611 8.57037544,1.40874359 L8.57037544,1.40874359 L8.57037544,1.40874359 L1.01800001,11.4863736 C0.85239665,11.7073491 0.897284581,12.0207331 1.11826001,12.1863365 C1.20478135,12.2511773 1.30998984,12.286225 1.41811141,12.286225 Z" id="Path-37"></path>
                    </g>
                    <text id="PDF" font-family="RNHouseSans-Bold, RN House Sans" font-size="10" font-weight="bold" fill="#ffffff">
                        <tspan x="4.25" y="27.0166602">PDF</tspan>
                    </text>
                </g>
            </g>
        </g>
    </g>
</svg>