<svg width="16" height="16" viewBox="0 0 16 16" fill="none" xmlns="http://www.w3.org/2000/svg">
<g id="16x16 / Core / Chevron-down">
<path id="Icon" fill-rule="evenodd" clip-rule="evenodd" d="M13.3528 5.31186C13.5487 5.50643 13.5498 5.82301 13.3553 6.01896L8.98034 10.425L8.89033 10.5078L8.88656 10.5109C8.33394 10.9705 7.52648 10.9343 7.02067 10.4249L2.64538 6.01925L2.59617 5.96072L2.5902 5.95167C2.45373 5.74491 2.47745 5.48137 2.64816 5.31186C2.84411 5.11729 3.16069 5.1184 3.35526 5.31435L7.72776 9.71778L7.77912 9.76263C7.92212 9.87002 8.13458 9.85736 8.27067 9.7203L12.6454 5.31406L12.7036 5.26444L12.7126 5.25841C12.9184 5.12048 13.1821 5.14234 13.3528 5.31186Z" fill="white"/>
</g>
</svg>
