<svg width="25" height="24" viewBox="0 0 25 24" fill="none" xmlns="http://www.w3.org/2000/svg">
<g id="Icon">
<path id="Icon_2" d="M19.6252 15.8071C19.9565 15.8071 20.2253 16.0757 20.2253 16.4071L20.2251 17.8352C20.2315 18.3941 20.0399 18.871 19.6521 19.2193C19.2878 19.5464 18.8453 19.7147 18.3525 19.7147L6.81561 19.709C6.34389 19.6435 5.94628 19.4918 5.6318 19.2446C5.25313 18.947 5.0634 18.4787 5.02539 17.842V16.4071C5.02539 16.0757 5.29402 15.8071 5.62539 15.8071C5.95676 15.8071 6.22539 16.0757 6.22539 16.4071L6.22426 17.8052C6.24202 18.0941 6.30373 18.2464 6.37331 18.3011C6.50706 18.4062 6.70649 18.4824 6.8981 18.5147H18.3525C18.5503 18.5147 18.707 18.4551 18.8503 18.3265C18.9701 18.2189 19.0278 18.0752 19.0252 17.842V16.4071C19.0252 16.0757 19.2938 15.8071 19.6252 15.8071ZM12.3487 16.555L12.3286 16.5441C12.2913 16.5228 12.2558 16.4972 12.2227 16.4673L12.2901 16.5201C12.2821 16.5147 12.2743 16.5092 12.2667 16.5035L12.2444 16.4828L12.2227 16.4673L6.4955 11.2844C6.2498 11.0621 6.23087 10.6826 6.45322 10.4369C6.67557 10.1912 7.05499 10.1723 7.30069 10.3947L12.0244 14.6688L12.0253 5.10977C12.0253 4.77839 12.2939 4.50977 12.6253 4.50977C12.9566 4.50977 13.2253 4.77839 13.2253 5.10977L13.2244 14.6698L17.9499 10.3947C18.1956 10.1723 18.575 10.1912 18.7973 10.4369C19.0197 10.6826 19.0008 11.0621 18.7551 11.2844L13.0279 16.4673L13.0086 16.4841C13.0008 16.4906 12.9929 16.4968 12.9849 16.5028C12.9769 16.5087 12.9688 16.5145 12.9605 16.5201L12.9414 16.5325L12.9235 16.5432C12.9094 16.5513 12.895 16.5588 12.8804 16.5656C12.8609 16.5746 12.8464 16.5805 12.8319 16.5859C12.8113 16.5934 12.7896 16.6001 12.7675 16.6054C12.7581 16.6077 12.7488 16.6097 12.7394 16.6115C12.7336 16.6127 12.7281 16.6136 12.7226 16.6145C12.7027 16.6176 12.6879 16.6193 12.6732 16.6205C12.6594 16.6216 12.646 16.6222 12.6325 16.6224H12.618C12.6033 16.6222 12.5886 16.6215 12.5739 16.6202C12.56 16.619 12.5466 16.6174 12.5334 16.6153L12.6253 16.6224C12.5867 16.6224 12.549 16.6188 12.5125 16.6118C12.5016 16.6097 12.4902 16.6072 12.4788 16.6044C12.4637 16.6006 12.4496 16.5964 12.4356 16.5918L12.4188 16.5859C12.4136 16.584 12.4083 16.582 12.4031 16.5799L12.3703 16.5657C12.3631 16.5623 12.3559 16.5587 12.3487 16.555Z" fill="#5E10B1"/>
</g>
</svg>
