<svg width="249" height="81" viewBox="0 0 249 81" fill="none" xmlns="http://www.w3.org/2000/svg">
<path d="M107.587 31.6089H108.168L117.702 46.8282H126.131L117.912 34.4897C117.065 33.2309 116.073 31.7622 115.081 30.4468C120.082 29.7528 123.808 25.4759 123.816 20.4162C123.816 13.1777 118.831 9.69165 110.991 9.69165C106.893 9.69165 103.61 9.74007 100.828 9.90146V46.8282H107.636L107.587 31.6089ZM107.587 15.405C108.474 15.2839 109.362 15.2355 110.257 15.2436C114.548 15.2436 116.645 17.6968 116.645 21.0941C116.645 24.4914 114.137 26.6783 110.047 26.6783C109.225 26.6783 108.402 26.646 107.587 26.5653V15.405Z" fill="white"/>
<path d="M153.105 35.0143C153.194 31.157 150.54 27.7758 146.765 26.9446V26.8316C150.048 25.5082 152.177 22.2803 152.105 18.7378C152.105 13.089 147.862 9.82886 140.271 9.82886C135.98 9.82886 131.536 9.94183 128.543 10.0871V46.7153C132.996 46.7153 136.513 46.8283 138.868 46.8283C149.217 46.8283 153.105 40.429 153.105 35.0143ZM135.351 15.3808C136.448 15.3324 137.714 15.2678 139.174 15.2678C143.312 15.2678 144.885 17.261 144.885 19.8352C144.885 22.9824 142.78 25.0563 138.134 25.0563C137.037 25.0563 136.19 25.0563 135.351 24.9998V15.3808ZM135.351 30.1886H138.344C143.006 30.1886 145.837 31.9236 145.837 35.2725C145.837 38.3632 143.579 41.4135 139.134 41.4135C137.868 41.4135 136.198 41.3005 135.359 41.2521V30.1886H135.351Z" fill="white"/>
<path d="M162.566 19.1736C162.566 16.6639 164.389 14.9289 168.374 14.9289C170.439 14.9451 172.488 15.2759 174.448 15.9296L175.069 9.94993C172.972 9.53031 170.834 9.30436 168.697 9.28015C160.163 9.28015 155.339 13.6297 155.339 19.9079C155.339 31.5363 170.205 29.4382 170.205 36.1925C170.205 39.501 167.487 40.8083 164.285 40.8083C161.647 40.8083 159.033 40.2999 156.589 39.2832L155.863 45.8277C158.525 46.5136 161.268 46.8525 164.026 46.8283C172.198 46.8283 177.699 41.9542 177.699 35.4097C177.699 24.1687 162.575 25.4356 162.575 19.1816L162.566 19.1736Z" fill="white"/>
<path d="M100.828 52.2915H102.675V71.0454H100.828V52.2915Z" fill="white"/>
<path d="M117.331 63.9199V71.0535H115.67V64.0571C115.67 60.7324 114.161 59.5139 111.765 59.5139C109.838 59.5139 108.386 60.4903 107.571 62.2091V71.0616H105.909V58.2469H107.571V59.99C108.628 58.6988 109.975 57.9564 111.983 57.9564C115.524 57.9564 117.347 59.9093 117.347 63.928L117.331 63.9199Z" fill="white"/>
<path d="M125.752 59.7962H121.872V67.4301C121.872 69.0683 122.768 69.7542 123.905 69.7542C124.591 69.7542 125.171 69.5202 125.704 69.149L126.414 70.4159C125.704 70.9727 124.776 71.2874 123.8 71.2874C121.929 71.2874 120.235 70.1819 120.235 67.4543V59.7962H118.759V58.2388H120.235V54.7527H121.872V58.2388H125.752V59.7962Z" fill="white"/>
<path d="M139.19 65.0497H128.89C129.051 68.0354 130.842 69.8592 133.488 69.8592C135.311 69.8592 136.811 68.9635 137.714 67.5351L139.061 68.326C137.981 70.2304 136.053 71.3601 133.52 71.3601C129.559 71.3601 127.212 68.6165 127.212 64.6543C127.212 60.6921 129.559 57.9484 133.31 57.9484C137.061 57.9484 139.223 60.6436 139.223 64.3395C139.223 64.5736 139.223 64.7592 139.199 65.0497H139.19ZM128.971 63.5406H137.472C137.206 61.031 135.649 59.4493 133.278 59.4493C130.906 59.4493 129.317 61.1359 128.971 63.5406Z" fill="white"/>
<path d="M150.443 58.6343L149.757 60.1433C149.072 59.8286 148.362 59.5865 147.491 59.5865C145.878 59.5865 144.458 60.4015 143.587 62.8386V71.0535H141.925V58.2389H143.587V60.4822C144.192 59.2153 145.385 57.9484 147.757 57.9484C148.572 57.9484 149.419 58.134 150.451 58.6343H150.443Z" fill="white"/>
<path d="M163.462 63.9199V71.0535H161.8V64.0571C161.8 60.7324 160.292 59.5139 157.896 59.5139C155.968 59.5139 154.516 60.4903 153.702 62.2091V71.0616H152.04V58.2469H153.702V59.99C154.758 58.6988 156.105 57.9564 158.114 57.9564C161.655 57.9564 163.478 59.9093 163.478 63.928L163.462 63.9199Z" fill="white"/>
<path d="M176.053 59.7398V58.2308H177.691V71.0454H176.053V69.5686C175.182 70.7549 173.73 71.4166 171.907 71.4166C168.108 71.4166 165.704 68.6729 165.704 64.6542C165.704 60.6355 168.108 57.8918 171.907 57.8918C173.73 57.8918 175.182 58.5536 176.053 59.7398ZM167.471 64.6542C167.471 67.8498 169.189 69.8349 172.012 69.8349C173.883 69.8349 175.416 68.9069 176.053 67.2204V62.2253C175.392 60.4015 173.892 59.4816 172.012 59.4816C169.189 59.4816 167.471 61.4586 167.471 64.6623V64.6542Z" fill="white"/>
<path d="M186.902 59.7962H183.022V67.4301C183.022 69.0683 183.918 69.7542 185.055 69.7542C185.741 69.7542 186.322 69.5202 186.854 69.149L187.564 70.4159C186.854 70.9727 185.926 71.2874 184.95 71.2874C183.079 71.2874 181.385 70.1819 181.385 67.4543V59.7962H179.909V58.2388H181.385V54.7527H183.022V58.2388H186.902V59.7962Z" fill="white"/>
<path d="M191.847 53.1146C191.847 53.9862 191.266 54.3574 190.629 54.3574C189.992 54.3574 189.411 53.9862 189.411 53.1146C189.411 52.2431 189.967 51.8961 190.629 51.8961C191.29 51.8961 191.847 52.2673 191.847 53.1146ZM189.79 58.2389H191.452V71.0535H189.79V58.2389Z" fill="white"/>
<path d="M206.552 64.6543C206.552 68.6165 204.229 71.3601 200.244 71.3601C196.259 71.3601 193.936 68.6165 193.936 64.6543C193.936 60.6921 196.259 57.9484 200.244 57.9484C204.229 57.9484 206.552 60.6921 206.552 64.6543ZM195.703 64.6543C195.703 67.8256 197.421 69.8027 200.244 69.8027C203.067 69.8027 204.809 67.8176 204.809 64.6543C204.809 61.491 203.043 59.5058 200.244 59.5058C197.445 59.5058 195.703 61.4829 195.703 64.6543Z" fill="white"/>
<path d="M220.466 63.9199V71.0535H218.804V64.0571C218.804 60.7324 217.296 59.5139 214.9 59.5139C212.972 59.5139 211.52 60.4903 210.706 62.2091V71.0616H209.044V58.2469H210.706V59.99C211.762 58.6988 213.109 57.9564 215.118 57.9564C218.659 57.9564 220.482 59.9093 220.482 63.928L220.466 63.9199Z" fill="white"/>
<path d="M233.057 59.7398V58.2308H234.695V71.0454H233.057V69.5686C232.186 70.7549 230.734 71.4166 228.911 71.4166C225.112 71.4166 222.708 68.6729 222.708 64.6542C222.708 60.6355 225.112 57.8918 228.911 57.8918C230.734 57.8918 232.186 58.5536 233.057 59.7398ZM224.475 64.6542C224.475 67.8498 226.193 69.8349 229.016 69.8349C230.887 69.8349 232.42 68.9069 233.057 67.2204V62.2253C232.396 60.4015 230.895 59.4816 229.016 59.4816C226.193 59.4816 224.475 61.4586 224.475 64.6623V64.6542Z" fill="white"/>
<path d="M237.76 51.767H239.421V71.0535H237.76V51.767Z" fill="white"/>
<path d="M80.6622 40.3483C80.6622 77.7673 77.7584 80.6966 40.3311 80.6966C2.90384 80.6966 0 77.7915 0 40.3483C0 2.90508 2.90384 0 40.3311 0C77.7584 0 80.6622 2.92929 80.6622 40.3483Z" fill="#3C1053"/>
<path d="M31.7002 25.8956V19.924C31.6599 17.955 33.1118 16.2685 35.0638 16.0183C37.04 15.752 38.8872 17.0512 39.2986 19.0041C39.3712 19.3511 39.4034 19.7062 39.4034 20.0612V27.6064C39.5325 29.3655 38.4436 30.9875 36.7658 31.5363C34.4024 32.4885 32.531 34.3607 31.5792 36.7251C30.7081 38.7021 29.5304 39.5172 27.4009 39.5172H19.9074C18.1328 39.4284 16.6406 38.1534 16.2776 36.4104C15.8259 34.635 16.7212 32.7952 18.3909 32.0527C18.9798 31.8349 19.6009 31.7219 20.23 31.7219H26.1668C25.9974 31.5121 25.9087 31.3749 25.7877 31.2538C23.0048 28.4133 20.1978 25.597 17.423 22.7484C16.0598 21.4331 15.8259 19.335 16.8664 17.7452C18.0118 15.9699 20.3672 15.4615 22.1417 16.6074C22.1417 16.6074 22.1498 16.6074 22.1579 16.6155C22.4241 16.7849 22.666 16.9867 22.8838 17.2207C25.5618 19.8918 28.2156 22.5951 30.8694 25.2904C31.0952 25.5325 31.305 25.7826 31.4985 26.0489L31.7244 25.8875" fill="white"/>
<path d="M54.3179 48.9667L59.077 53.7762L63.1908 57.9402C64.7637 59.4331 64.8363 61.9185 63.344 63.4921L63.3037 63.5325C61.8679 65.0496 59.4642 65.1141 57.9477 63.6777L57.7864 63.5163C55.0197 60.7484 52.2853 57.9644 49.5347 55.1884C49.3814 55.027 49.212 54.8737 48.9297 54.6155V60.9179C48.8813 63.0483 47.1067 64.7348 44.9773 64.6864C43.0575 64.638 41.4685 63.1935 41.2345 61.2891C41.1216 58.3356 41.1297 55.366 41.2345 52.4044C41.2749 50.9599 42.2428 49.7011 43.6221 49.2814C46.0904 48.3857 48.0585 46.4732 49.0184 44.0281C49.6153 42.2124 51.3657 41.0423 53.2693 41.1876C55.7215 41.2279 58.1736 41.1876 60.6257 41.1876C62.126 41.1472 63.4973 42.0429 64.07 43.439C64.7476 44.7624 64.5782 46.3602 63.6425 47.5222C63.0375 48.3857 62.0534 48.9022 61.0048 48.9264C59.0931 48.9667 57.1814 48.9264 55.2617 48.9264L54.3099 48.9667H54.3179Z" fill="white"/>
<path d="M31.6437 54.6074C30.6274 55.6726 29.6272 56.7459 28.5947 57.795C26.7556 59.6833 24.9004 61.5554 23.0371 63.4195C21.8836 64.7268 19.9961 65.098 18.4393 64.3233C16.4954 63.3227 15.7371 60.934 16.7374 58.9893C16.9309 58.61 17.1891 58.263 17.4956 57.9644C19.738 55.6565 22.0046 53.3808 24.247 51.0729C24.86 50.4596 25.4811 49.8463 26.2071 49.1443C25.9006 49.1443 25.7393 49.0716 25.5699 49.0716H20.109C17.9392 49.0313 16.205 47.2398 16.2453 45.0691C16.2695 43.4794 17.2536 42.0591 18.7297 41.4781C19.2621 41.3006 19.8187 41.2118 20.3752 41.2199H27.7316C29.7724 41.2199 30.9258 42.0672 31.6679 43.9878C32.5875 46.3683 34.4508 48.2647 36.8142 49.233C38.5 49.806 39.597 51.4361 39.4841 53.2194V60.8291C39.5083 62.4431 38.5162 63.8956 36.9997 64.4605C35.5155 65.0173 33.8377 64.6461 32.7327 63.5083C32.1358 62.8546 31.8212 61.9912 31.8373 61.1035V54.7366L31.6518 54.6316" fill="white"/>
<path d="M54.6002 31.6008H60.5127C62.6826 31.5766 64.4652 33.3197 64.4894 35.4904C64.4894 36.0876 64.3684 36.6847 64.1022 37.2254C63.473 38.6537 62.0373 39.5575 60.4724 39.493C57.9477 39.5252 55.3907 39.5414 52.9063 39.493C51.1721 39.5737 49.6072 38.4762 49.091 36.8219C48.1714 34.3687 46.2678 32.4159 43.8399 31.4314C42.1702 30.8181 41.0974 29.1799 41.2103 27.4046V19.9321C41.1619 17.8178 42.8397 16.0587 44.953 16.0102C44.953 16.0102 44.953 16.0102 44.9611 16.0102H45.0659C47.1148 15.9295 48.8409 17.5354 48.9216 19.5851C48.9216 19.5851 48.9216 19.5932 48.9216 19.6012C48.9216 19.6981 48.9216 19.7949 48.9216 19.8917V25.9359L49.0426 26.1457C49.7685 25.4195 50.3896 24.6932 51.0672 23.9669C53.3257 21.6671 55.5762 19.3591 57.8509 17.0754C59.3512 15.5664 61.7953 15.5583 63.3117 17.0593C64.3119 18.0599 64.691 19.5205 64.2958 20.8762C64.0054 21.6671 63.5537 22.3853 62.9649 22.9905C60.4079 25.6535 57.7864 28.26 55.1971 30.8907C55.0197 31.0682 54.8583 31.2538 54.576 31.5605" fill="white"/>
</svg>
