<svg width="25" height="25" viewBox="0 0 25 25" fill="none" xmlns="http://www.w3.org/2000/svg">
<g id="Icon">
<path id="Icon_2" fill-rule="evenodd" clip-rule="evenodd" d="M5.63381 3.2998H7.89827L7.97571 3.305C8.25843 3.34316 8.47181 3.58436 8.47181 3.87149C8.47181 4.18744 8.2148 4.44317 7.89827 4.44317L5.63936 4.44309L5.545 4.44563C4.72088 4.4915 4.07285 5.17118 4.07285 5.99538L4.07277 18.9986L4.07533 19.0924C4.12138 19.9116 4.8045 20.5564 5.63381 20.5564L20.7656 20.5569L20.8297 20.5616C21.1124 20.5998 21.3258 20.841 21.3258 21.1281C21.3258 21.4441 21.0688 21.6998 20.7522 21.6998L5.62933 21.6998L5.51005 21.697C4.06736 21.6324 2.92578 20.4473 2.92578 19.0042L2.92583 5.99086L2.92857 5.8721C2.99361 4.43566 4.18457 3.2998 5.63381 3.2998ZM11.056 3.29981L19.5279 3.31675C20.4664 3.31863 21.2425 4.04892 21.3052 4.98742L21.3088 5.09769L21.3258 13.5696C21.3264 13.884 21.072 14.1395 20.7575 14.1401C20.4774 14.1407 20.2398 13.9377 20.1926 13.6478L20.187 13.5719L20.1698 5.2608L10.8978 14.533C10.7001 14.7307 10.3933 14.7526 10.1714 14.5989L10.0926 14.533C9.8905 14.331 9.87015 14.0114 10.0503 13.7754L10.0925 13.7278L19.3638 4.4548L11.0537 4.43857C10.7707 4.43801 10.5363 4.23105 10.4928 3.96042L10.4855 3.86805C10.486 3.58794 10.69 3.35117 10.98 3.30514L11.056 3.29981Z" fill="#5E10B1"/>
</g>
</svg>
