<?xml version="1.0" encoding="UTF-8"?><svg version="1.1" width="25px" height="25px" viewBox="0 0 25.0 25.0" xmlns="http://www.w3.org/2000/svg" xmlns:xlink="http://www.w3.org/1999/xlink"><defs><clipPath id="i0"><path d="M1700,0 L1700,5566 L0,5566 L0,0 L1700,0 Z"></path></clipPath><clipPath id="i1"><path d="M12,0 C18.627417,0 24,5.372583 24,12 C24,18.627417 18.627417,24 12,24 C5.372583,24 0,18.627417 0,12 C0,5.372583 5.372583,0 12,0 Z"></path></clipPath></defs><g transform="translate(-640.0 -5251.0)"><g clip-path="url(#i0)"><g transform="translate(636.8457790724733 5247.053034123437)"><g transform="translate(4.0 4.0)"><g clip-path="url(#i1)"><path d="M12,24 C18.627417,24 24,18.627417 24,12 C24,5.372583 18.627417,0 12,0 C5.372583,0 0,5.372583 0,12 C0,18.627417 5.372583,24 12,24 Z" stroke="#ffffff" stroke-width="3" fill="#ffffff" stroke-miterlimit="5"></path></g><g transform="translate(8.925483703613281 3.0)"><text transform="translate(0.0 14.0)" font-family="RNHouseSans-Regular, RN House Sans" font-size="14.0" font-weight="normal" fill="#5e10b1" text-anchor="left">?</text></g></g></g></g></g></svg>