<?xml version="1.0" standalone="no"?>
<!DOCTYPE svg PUBLIC "-//W3C//DTD SVG 1.1//EN" "http://www.w3.org/Graphics/SVG/1.1/DTD/svg11.dtd" >
<svg xmlns="http://www.w3.org/2000/svg" xmlns:xlink="http://www.w3.org/1999/xlink" version="1.1">
<metadata>
Created by FontForge 20170731 at Thu Jun 19 19:58:36 2014
 By Aleksey,,,
Copyright (c) 2014 Monotype Imaging Inc. All rights reserved.
</metadata>
<defs>
<font id="RNHouseSansW01-Light" horiz-adv-x="559" >
  <font-face 
    font-family="RN House Sans W01 Light"
    font-weight="300"
    font-stretch="normal"
    units-per-em="1000"
    panose-1="2 11 4 4 2 2 3 2 2 4"
    ascent="800"
    descent="-200"
    x-height="485"
    cap-height="710"
    bbox="-95 -255 863 770"
    underline-thickness="50"
    underline-position="-225"
    unicode-range="U+0020-20AC"
  />
<missing-glyph horiz-adv-x="600" 
 />
    <glyph glyph-name=".notdef" horiz-adv-x="600" 
 />
    <glyph glyph-name=".null" horiz-adv-x="0" 
 />
    <glyph glyph-name="nonmarkingreturn" horiz-adv-x="333" 
 />
    <glyph glyph-name="space" unicode=" " horiz-adv-x="310" 
 />
    <glyph glyph-name="exclam" unicode="!" horiz-adv-x="295" 
d="M179.5 412.5q-2.5 -92.5 -11.5 -226.5h-42q-9 134 -11.5 226.5t-2.5 297.5h70q0 -205 -2.5 -297.5zM188.5 85.5q13.5 -13.5 13.5 -38.5t-13.5 -38.5t-38.5 -13.5t-39 13.5t-14 38.5t14 38.5t39 13.5t38.5 -13.5z" />
    <glyph glyph-name="numbersign" unicode="#" horiz-adv-x="685" 
d="M489 263h112l-7 -50h-112l-34 -213h-55l34 213h-215l-34 -213h-54l34 213h-112l7 50h112l31 195h-112l8 50h112l32 202h54l-32 -202h215l32 202h55l-32 -202h112l-8 -50h-112zM250 458l-31 -195h215l31 195h-215z" />
    <glyph glyph-name="dollar" unicode="$" horiz-adv-x="548" 
d="M439.5 45.5q-48.5 -50.5 -131.5 -58.5v-81h-49v81q-76 5 -127 45t-72 104l54 30q24 -58 63 -89t103 -31t102.5 33t38.5 98q0 44 -20.5 70.5t-53 42t-97.5 38.5q-81 30 -122.5 72t-41.5 114q0 79 45.5 124.5t127.5 50.5v81h49v-81q122 -12 168 -118l-57 -31
q-24 49 -58 69.5t-81 20.5q-60 0 -94.5 -30t-34.5 -84q0 -41 21.5 -67.5t52 -40.5t78.5 -30q55 -18 94.5 -39.5t65 -60.5t25.5 -98q0 -84 -48.5 -134.5z" />
    <glyph glyph-name="percent" unicode="%" horiz-adv-x="741" 
d="M45 23l598 688l52 -22l-597 -689zM293.5 670q37.5 -40 37.5 -106t-37.5 -106t-103.5 -40q-65 0 -102.5 40t-37.5 106t37.5 106t102.5 40q66 0 103.5 -40zM126.5 634q-23.5 -26 -23.5 -70t23.5 -70t63.5 -26t63.5 26t23.5 70t-23.5 70t-63.5 26t-63.5 -26zM655.5 252
q37.5 -40 37.5 -106t-37.5 -106t-102.5 -40q-66 0 -103.5 40t-37.5 106t37.5 106t103.5 40q65 0 102.5 -40zM489 216q-23 -26 -23 -70t23 -70t63 -26t64 26t24 70q0 43 -24 69.5t-64 26.5t-63 -26z" />
    <glyph glyph-name="ampersand" unicode="&#x26;" horiz-adv-x="641" 
d="M462 59q-95 -88 -206 -88q-57 0 -104.5 22t-75.5 64t-28 101q0 68 37 114.5t105 87.5q-37 51 -54.5 96t-17.5 90q0 75 47 123t129 48q76 0 125 -41t49 -112q0 -51 -25.5 -90.5t-63 -68t-94.5 -61.5q49 -58 179 -194q26 30 54 69.5t52 75.5l50 -34q-34 -53 -59 -88
t-53 -67l115 -117h-92zM210.5 625.5q-27.5 -31.5 -27.5 -77.5q0 -66 66 -156q75 40 115 77t40 89q0 43 -30.5 71t-81.5 28q-54 0 -81.5 -31.5zM419 103q-135 139 -192 207q-56 -35 -83.5 -70t-27.5 -81q0 -56 37 -91.5t101 -35.5q86 0 165 71z" />
    <glyph glyph-name="quotesingle" unicode="'" horiz-adv-x="214" 
d="M80 425v299h55v-299h-55z" />
    <glyph glyph-name="parenleft" unicode="(" horiz-adv-x="295" 
d="M172 498q-29 -126 -29 -259t29 -257.5t85 -221.5h-59q-61 88 -93 214.5t-32 265.5q0 140 32 268.5t93 217.5h59q-56 -102 -85 -228z" />
    <glyph glyph-name="parenright" unicode=")" horiz-adv-x="295" 
d="M190 509.5q32 -127.5 32 -266.5t-32 -266.5t-93 -216.5h-59q56 100 85 225t29 258t-29 258t-85 225h59q61 -89 93 -216.5z" />
    <glyph glyph-name="asterisk" unicode="*" horiz-adv-x="435" 
d="M61 600l133 -45l-5 139h55l-3 -139l132 45l17 -52l-134 -37l86 -112l-45 -33l-79 118l-79 -118l-45 32l85 113l-134 37z" />
    <glyph glyph-name="plus" unicode="+" horiz-adv-x="599" 
d="M332 223v-223h-65v223h-222v64h222v223h65v-223h223v-64h-223z" />
    <glyph glyph-name="comma" unicode="," horiz-adv-x="262" 
d="M161 -65.5q-29 -44.5 -73 -70.5l-16 24q58 43 75 112q-32 0 -46.5 12.5t-14.5 39.5q0 26 14 39.5t40 13.5t38 -17.5t12 -52.5q0 -56 -29 -100.5z" />
    <glyph glyph-name="hyphen" unicode="-" horiz-adv-x="397" 
d="M49 242v64h300v-64h-300z" />
    <glyph glyph-name="period" unicode="." horiz-adv-x="248" 
d="M163 81q14 -14 14 -38q0 -25 -14 -39t-39 -14t-38.5 14t-13.5 39q0 24 13.5 38t38.5 14t39 -14z" />
    <glyph glyph-name="zero" unicode="0" 
d="M447.5 600.5q56.5 -89.5 56.5 -262.5t-56.5 -262.5t-167.5 -89.5t-168 89.5t-57 262.5t57 262.5t168 89.5t167.5 -89.5zM163.5 556q-38.5 -70 -38.5 -218t38.5 -218t116.5 -70q77 0 115.5 70t38.5 218t-38.5 218t-115.5 70q-78 0 -116.5 -70z" />
    <glyph glyph-name="one" unicode="1" 
d="M446 63v-63h-313v63h122v506q-18 -30 -52 -54.5t-69 -37.5l-18 62q47 19 87 55t63 82h57v-613h123z" />
    <glyph glyph-name="two" unicode="2" 
d="M493 0h-442v48q57 62 168 178q80 83 115.5 123.5t54.5 77t19 75.5q0 57 -38.5 90.5t-104.5 33.5q-51 0 -88.5 -21.5t-70.5 -78.5l-52 37q64 127 218 127q96 0 151 -50.5t55 -134.5q0 -53 -23.5 -100.5t-63 -92.5t-115.5 -121q-81 -83 -123 -128h340v-63z" />
    <glyph glyph-name="three" unicode="3" 
d="M448.5 292.5q33.5 -46.5 33.5 -112.5q0 -57 -26 -101t-75 -68.5t-116 -24.5q-83 0 -138 37.5t-85 101.5l54 38q28 -57 69 -85t99 -28q69 0 108 36.5t39 99.5q0 132 -170 132h-51v63h37q78 0 121.5 33t43.5 93q0 54 -36.5 86.5t-101.5 32.5q-46 0 -80 -20t-63 -68l-50 42
q29 55 79.5 82.5t116.5 27.5q64 0 110 -23.5t70.5 -64t24.5 -91.5q0 -50 -26 -91t-78 -62q57 -19 90.5 -65.5z" />
    <glyph glyph-name="four" unicode="4" 
d="M424 158v-158h-68v158h-320v71l306 447h82v-456h73v-62h-73zM356 598l-255 -378h255v378z" />
    <glyph glyph-name="five" unicode="5" 
d="M434 371q58 -57 58 -159q0 -104 -60.5 -165t-165.5 -61q-72 0 -123.5 28.5t-90.5 80.5l50 43q37 -45 76 -66.5t89 -21.5q72 0 113 42.5t41 119.5q0 153 -164 153q-43 0 -73.5 -11.5t-52.5 -36.5l-54 10l78 349h311v-63h-262l-49 -213q44 28 112 28q109 0 167 -57z" />
    <glyph glyph-name="six" unicode="6" 
d="M404 405.5q48 -27.5 74 -77t26 -111.5q0 -69 -28 -120.5t-78.5 -80t-115.5 -28.5q-103 0 -163 60t-60 164q0 77 26 146.5t66.5 131t118.5 164.5q14 20 16 22h81q-85 -109 -131 -173.5t-71 -113.5q48 44 127 44q64 0 112 -27.5zM391.5 94.5q41.5 42.5 41.5 120.5
q0 75 -40 115t-114 40q-72 0 -112 -40t-40 -115q0 -78 41 -120.5t111 -42.5q71 0 112.5 42.5z" />
    <glyph glyph-name="seven" unicode="7" 
d="M494 624l-254 -624h-80l255 608h-365v68h444v-52z" />
    <glyph glyph-name="eight" unicode="8" 
d="M466 284.5q27 -43.5 27 -102.5q0 -57 -26 -101.5t-74 -69.5t-113 -25t-113.5 25t-74 69.5t-25.5 101.5q0 59 26.5 102.5t75.5 67.5q-42 22 -65 61t-23 91q0 54 24.5 96t69.5 66t105 24t105 -24t69.5 -66.5t24.5 -95.5q0 -52 -23 -91t-66 -61q49 -24 76 -67.5zM187 592
q-36 -35 -36 -91t35.5 -90t93.5 -34q56 0 92.5 34.5t36.5 89.5q0 56 -36.5 91t-92.5 35q-57 0 -93 -35zM383 86.5q40 37.5 40 97.5t-40 97.5t-103 37.5q-64 0 -104 -37.5t-40 -97.5q0 -59 40 -97t104 -38q63 0 103 37.5z" />
    <glyph glyph-name="nine" unicode="9" 
d="M437.5 627q58.5 -61 58.5 -169q0 -71 -25 -141.5t-62 -131.5t-99 -153l-22 -32h-80q135 190 183 287q-50 -44 -129 -44q-64 0 -111.5 27.5t-73.5 77.5t-26 114q0 67 28.5 118.5t80 79.5t118.5 28q101 0 159.5 -61zM388.5 346.5q39.5 40.5 39.5 115.5q0 78 -41 120
t-111 42q-71 0 -112.5 -42.5t-41.5 -119.5q0 -75 40.5 -115.5t113.5 -40.5t112.5 40.5z" />
    <glyph glyph-name="colon" unicode=":" horiz-adv-x="248" 
d="M167 81q14 -14 14 -38q0 -25 -14 -39t-39 -14t-38.5 14t-13.5 39q0 24 13.5 38t38.5 14t39 -14zM167 460q14 -14 14 -38q0 -25 -14 -39t-39 -14t-38.5 14t-13.5 39q0 24 13.5 38t38.5 14t39 -14z" />
    <glyph glyph-name="semicolon" unicode=";" horiz-adv-x="263" 
d="M181 460q14 -14 14 -38q0 -25 -14 -39t-39 -14t-38.5 14t-13.5 39q0 24 13.5 38t38.5 14t39 -14zM165 -65.5q-29 -44.5 -73 -70.5l-16 24q58 43 75 112q-32 0 -46.5 12.5t-14.5 39.5q0 26 14 39.5t40 13.5t38 -17.5t12 -52.5q0 -56 -29 -100.5z" />
    <glyph glyph-name="less" unicode="&#x3c;" horiz-adv-x="599" 
d="M138 240l432 -156v-69l-510 195v60l510 195v-69z" />
    <glyph glyph-name="equal" unicode="=" horiz-adv-x="599" 
d="M45 330v64h510v-64h-510zM45 116v64h510v-64h-510z" />
    <glyph glyph-name="greater" unicode="&#x3e;" horiz-adv-x="599" 
d="M555 210l-510 -195v69l432 156l-432 156v69l510 -195v-60z" />
    <glyph glyph-name="question" unicode="?" horiz-adv-x="501" 
d="M378 674q54 -50 54 -142q0 -48 -14.5 -83t-35.5 -57.5t-53 -47.5q-6 -4 -31.5 -23.5t-38 -39.5t-12.5 -43v-52h-65v46q0 48 20.5 78t59.5 62q6 5 38 29.5t48 57t16 73.5q-1 62 -38.5 96t-103.5 34q-49 0 -85 -22.5t-65 -76.5l-51 37q31 65 83 94.5t123 29.5q97 0 151 -50
zM257 81q14 -14 14 -38q0 -25 -14 -39t-39 -14t-39 14t-14 39q0 24 14 38t39 14t39 -14z" />
    <glyph glyph-name="at" unicode="@" horiz-adv-x="839" 
d="M625.5 648q82.5 -38 128.5 -110t46 -170q0 -60 -17 -128t-59 -117t-111 -49q-43 0 -70.5 21t-30.5 63q-51 -45 -128 -45q-85 0 -129 49.5t-44 126.5q0 55 22.5 107.5t71 86.5t122.5 34q88 0 125 -51l5 34h57l-49 -287q-4 -19 -4 -37q0 -55 50 -55q46 0 77.5 37t46 92
t14.5 110q0 86 -37 149t-106.5 96.5t-164.5 33.5q-125 0 -203.5 -54.5t-112 -136t-33.5 -167.5t34 -152t103 -103.5t170 -37.5q62 0 137 19l11 -45q-82 -22 -151 -22q-104 0 -184.5 39.5t-126 115t-45.5 181.5q0 95 39 189t128 157.5t229 63.5q107 0 189.5 -38zM334 436
q-35 -29 -50 -70t-15 -79q0 -55 30.5 -88.5t83.5 -33.5q37 0 71.5 15.5t58.5 43.5l28 171q-14 33 -44 51.5t-73 18.5q-55 0 -90 -29z" />
    <glyph glyph-name="A" unicode="A" horiz-adv-x="674" 
d="M173 229l-90 -229h-74l290 710h74l290 -710h-77l-90 229h-323zM336 640l-137 -347h273z" />
    <glyph glyph-name="B" unicode="B" horiz-adv-x="618" 
d="M539.5 306q28.5 -46 28.5 -109q0 -88 -56 -142.5t-155 -54.5h-284v710h265q106 0 157 -50t51 -124q0 -50 -24 -93.5t-69 -69.5q58 -21 86.5 -67zM329 398q73 0 110 33.5t37 94.5q0 120 -147 120h-186v-248h186zM461 99.5q38 35.5 38 100.5q0 136 -162 136h-194v-272h204
q76 0 114 35.5z" />
    <glyph glyph-name="C" unicode="C" horiz-adv-x="726" 
d="M652 584l-54 -40q-78 120 -222 120q-78 0 -137 -36.5t-91 -106t-32 -166.5t32 -166.5t90.5 -106t136.5 -36.5q158 0 234 150l58 -33q-44 -90 -118.5 -135.5t-172.5 -45.5t-172.5 42.5t-116 126.5t-41.5 204t41.5 204t116.5 126.5t173 42.5q183 0 275 -144z" />
    <glyph glyph-name="D" unicode="D" horiz-adv-x="705" 
d="M492 669.5q76 -40.5 118.5 -120t42.5 -194.5t-42.5 -194.5t-118.5 -120t-174 -40.5h-242v710h241q99 0 175 -40.5zM456 98q58 34 92.5 100t34.5 157t-34.5 157t-92.5 100t-129 34h-181v-582h181q71 0 129 34z" />
    <glyph glyph-name="E" unicode="E" horiz-adv-x="596" 
d="M143 646v-243h361v-64h-361v-275h408v-64h-478v710h478v-64h-408z" />
    <glyph glyph-name="F" unicode="F" horiz-adv-x="547" 
d="M146 646v-243h331v-64h-331v-339h-70v710h451v-64h-381z" />
    <glyph glyph-name="G" unicode="G" horiz-adv-x="719" 
d="M682 332q0 -185 -85 -266.5t-217 -81.5q-98 0 -173.5 42.5t-118 126t-42.5 202.5t43 202.5t118.5 126t172.5 42.5q94 0 167 -39t115 -114l-56 -41q-37 64 -94 97t-132 33q-79 0 -138.5 -36t-92.5 -105t-33 -166q0 -96 33 -165t92.5 -105.5t138.5 -36.5q104 0 163.5 61
t66.5 180h-261v64h333v-21z" />
    <glyph glyph-name="H" unicode="H" horiz-adv-x="697" 
d="M554 0v341h-411v-341h-70v710h70v-305h411v305h70v-710h-70z" />
    <glyph glyph-name="I" unicode="I" horiz-adv-x="217" 
d="M73 0v710h70v-710h-70z" />
    <glyph glyph-name="J" unicode="J" horiz-adv-x="421" 
d="M301.5 31q-48.5 -49 -126.5 -49q-106 0 -167 86l46 43q47 -65 120 -65q52 0 79.5 32.5t27.5 105.5v526h69v-530q0 -100 -48.5 -149z" />
    <glyph glyph-name="K" unicode="K" horiz-adv-x="622" 
d="M143 262v-262h-70v710h70v-360l376 360h91l-327 -314l333 -396h-91l-292 349z" />
    <glyph glyph-name="L" unicode="L" horiz-adv-x="539" 
d="M529 64v-64h-456v710h70v-646h386z" />
    <glyph glyph-name="M" unicode="M" horiz-adv-x="839" 
d="M683 572l-232 -542h-63l-233 544l-13 -574h-69l21 710h68l258 -596l257 596h68l21 -710h-69z" />
    <glyph glyph-name="N" unicode="N" horiz-adv-x="709" 
d="M557 0l-412 605h-2v-605h-70v710h79l411 -605h2v605h70v-710h-78z" />
    <glyph glyph-name="O" unicode="O" horiz-adv-x="759" 
d="M552.5 685.5q75.5 -42.5 118 -126.5t42.5 -204t-42.5 -204t-118 -126.5t-172.5 -42.5q-98 0 -173.5 42.5t-118 126.5t-42.5 204t42.5 204t118 126.5t173.5 42.5q97 0 172.5 -42.5zM241.5 627.5q-59.5 -36.5 -92.5 -106t-33 -166.5t33 -166.5t92.5 -106t138.5 -36.5
t138.5 36.5t92 106t32.5 166.5t-32.5 166.5t-92 106t-138.5 36.5t-138.5 -36.5z" />
    <glyph glyph-name="P" unicode="P" horiz-adv-x="591" 
d="M505 648q57 -62 57 -161q0 -104 -59.5 -168t-172.5 -64h-184v-255h-70v710h254q118 0 175 -62zM146 319h176q85 0 127.5 44t42.5 124q0 159 -172 159h-174v-327z" />
    <glyph glyph-name="Q" unicode="Q" horiz-adv-x="748" 
d="M660 137.5q-50 -87.5 -138 -126.5l73 -123h-81l-60 102q-40 -8 -78 -8q-97 0 -172.5 42.5t-118 126.5t-42.5 204t42.5 204t118 126.5t172.5 42.5q98 0 173.5 -42.5t118 -126.5t42.5 -204q0 -130 -50 -217.5zM514.5 82.5q59.5 36.5 92.5 106t33 166.5t-33 166.5t-92.5 106
t-138.5 36.5t-138.5 -36.5t-92 -106t-32.5 -166.5t32.5 -166.5t92 -106t138.5 -36.5t138.5 36.5z" />
    <glyph glyph-name="R" unicode="R" horiz-adv-x="619" 
d="M334 314h-191v-314h-70v710h273q110 0 163.5 -55.5t53.5 -141.5q0 -74 -40 -126t-117 -67l167 -320h-81zM338 378q78 0 116.5 35.5t38.5 100.5q0 132 -156 132h-194v-268h195z" />
    <glyph glyph-name="S" unicode="S" horiz-adv-x="583" 
d="M511 618l-53 -43q-34 46 -76 67.5t-100 21.5q-74 0 -116.5 -32t-42.5 -91q0 -45 25 -71t59 -37.5t105 -29.5q68 -17 112 -36.5t74 -60t30 -109.5q0 -101 -66 -156.5t-176 -55.5q-98 0 -163 42.5t-97 112.5l56 32q34 -59 81.5 -91t121.5 -32q77 0 125 36.5t48 105.5
q0 46 -23 74t-58.5 42t-99.5 32q-7 1 -21 5q-65 17 -106 36t-68.5 56.5t-27.5 100.5q0 91 60.5 141t165.5 50q156 0 231 -110z" />
    <glyph glyph-name="T" unicode="T" horiz-adv-x="601" 
d="M335 646v-646h-70v646h-255v64h580v-64h-255z" />
    <glyph glyph-name="U" unicode="U" horiz-adv-x="691" 
d="M584.5 104q-35.5 -60 -98 -91t-142.5 -31t-142.5 31t-98 91t-35.5 144v462h70v-462q0 -97 56.5 -149.5t149.5 -52.5q94 0 150 52.5t56 149.5v462h70v-462q0 -84 -35.5 -144z" />
    <glyph glyph-name="V" unicode="V" horiz-adv-x="635" 
d="M359 0h-82l-265 710h76l230 -639l230 639h76z" />
    <glyph glyph-name="W" unicode="W" horiz-adv-x="880" 
d="M670 0h-78l-151 584l-152 -584h-78l-193 710h72l161 -620l154 585h72l154 -587l160 622h72z" />
    <glyph glyph-name="X" unicode="X" horiz-adv-x="623" 
d="M308 314l-214 -314h-79l249 364l-238 346h83l202 -293l204 293h78l-238 -343l249 -367h-83z" />
    <glyph glyph-name="Y" unicode="Y" horiz-adv-x="607" 
d="M338 0h-70v296l-265 414h80l222 -349l223 349h76l-266 -414v-296z" />
    <glyph glyph-name="Z" unicode="Z" horiz-adv-x="599" 
d="M33 0v62l453 584h-419v64h499v-62l-452 -584h464v-64h-545z" />
    <glyph glyph-name="asciicircum" unicode="^" horiz-adv-x="582" 
d="M291 606l-154 -270h-62l195 340h42l195 -340h-63z" />
    <glyph glyph-name="a" unicode="a" horiz-adv-x="554" 
d="M361 480q40 -18 65 -52v57h62v-485h-62v56q-25 -34 -65 -52t-92 -18q-71 0 -124 32t-82 90t-29 134t29 134t82 90t124 32q52 0 92 -18zM147 385.5q-46 -52.5 -46 -143.5t46 -143.5t126 -52.5q54 0 94.5 26t58.5 73v189q-18 51 -58.5 77.5t-94.5 26.5q-80 0 -126 -52.5z
" />
    <glyph glyph-name="b" unicode="b" horiz-adv-x="555" 
d="M128 428q25 35 65.5 52.5t91.5 17.5q71 0 124 -32.5t81.5 -90.5t28.5 -133t-28.5 -133t-81.5 -90.5t-124 -32.5q-51 0 -91.5 17.5t-65.5 52.5v-56h-63v730h63v-302zM186.5 411.5q-40.5 -26.5 -58.5 -77.5v-189q18 -47 58.5 -73t94.5 -26q80 0 126 52.5t46 143.5
t-46 143.5t-126 52.5q-54 0 -94.5 -26.5z" />
    <glyph glyph-name="c" unicode="c" horiz-adv-x="503" 
d="M386.5 469.5q49.5 -26.5 81.5 -82.5l-50 -38q-29 47 -64 67.5t-80 20.5q-79 0 -125.5 -53t-46.5 -142t45.5 -142t121.5 -53q51 0 89.5 24.5t63.5 68.5l51 -30q-28 -57 -79.5 -89.5t-123.5 -32.5q-71 0 -124 32t-82 89.5t-29 132.5t29 132.5t83 89.5t127 32
q63 0 112.5 -26.5z" />
    <glyph glyph-name="d" unicode="d" horiz-adv-x="555" 
d="M427 0v56q-25 -35 -65.5 -52.5t-91.5 -17.5q-71 0 -124.5 32.5t-82 90.5t-28.5 133t28.5 133t82 90.5t124.5 32.5q51 0 91.5 -17.5t65.5 -52.5v302h62v-730h-62zM148 385.5q-46 -52.5 -46 -143.5t46 -143.5t126 -52.5q54 0 94.5 26t58.5 73v189q-18 51 -58.5 77.5
t-94.5 26.5q-80 0 -126 -52.5z" />
    <glyph glyph-name="e" unicode="e" horiz-adv-x="531" 
d="M488 227h-390q4 -84 51.5 -133t122.5 -49q51 0 92.5 23.5t67.5 64.5l51 -30q-31 -55 -85 -85t-125 -30q-74 0 -128 32t-82.5 89.5t-28.5 132.5t28 132.5t80.5 89.5t122.5 32q69 0 119.5 -31t77.5 -86t27 -125q0 -16 -1 -27zM154 396.5q-43 -42.5 -53 -112.5h322
q-8 72 -50 113.5t-109 41.5t-110 -42.5z" />
    <glyph glyph-name="f" unicode="f" horiz-adv-x="288" 
d="M291 705l-33 -45q-24 21 -53 21q-32 0 -49 -20t-17 -66v-110h131v-59h-131v-426h-62v426h-52v59h52v112q0 73 35 107.5t89 34.5q53 0 90 -34z" />
    <glyph glyph-name="g" unicode="g" horiz-adv-x="555" 
d="M362 480q40 -18 65 -52v57h62v-481q-1 -129 -64.5 -194t-172.5 -65q-60 0 -108 19.5t-90 60.5l39 46q35 -34 72.5 -51t84.5 -17q177 0 177 205v48q-25 -34 -65 -52t-92 -18q-71 0 -124 32t-82 90t-29 134t29 134t82 90t124 32q52 0 92 -18zM148 385.5
q-46 -52.5 -46 -143.5t46 -143.5t126 -52.5q54 0 94.5 26t58.5 73v189q-18 51 -58.5 77.5t-94.5 26.5q-80 0 -126 -52.5z" />
    <glyph glyph-name="h" unicode="h" horiz-adv-x="554" 
d="M199.5 476.5q40.5 19.5 95.5 19.5q203 0 203 -226v-270h-63v270q0 85 -38.5 126t-109.5 41q-54 0 -95 -26.5t-64 -75.5v-335h-63v730h63v-311q31 38 71.5 57.5z" />
    <glyph glyph-name="i" unicode="i" horiz-adv-x="193" 
d="M65 0v485h63v-485h-63zM130 713.5q13 -11.5 13 -34.5t-13 -35t-33 -12t-33 12t-13 35t13 34.5t33 11.5t33 -11.5z" />
    <glyph glyph-name="j" unicode="j" horiz-adv-x="193" 
d="M87.5 -213.5q-39.5 -35.5 -95.5 -35.5q-23 0 -46 7.5t-41 19.5l23 51q29 -19 62 -19q32 0 53.5 21t21.5 64v590h63v-584q-1 -79 -40.5 -114.5zM130 713.5q13 -11.5 13 -34.5t-13 -35t-33 -12t-33 12t-13 35t13 34.5t33 11.5t33 -11.5z" />
    <glyph glyph-name="k" unicode="k" horiz-adv-x="513" 
d="M395 485h97l-236 -182l247 -303h-82l-213 266l-80 -61v-205h-63v730h63v-453z" />
    <glyph glyph-name="l" unicode="l" horiz-adv-x="193" 
d="M65 0v730h63v-730h-63z" />
    <glyph glyph-name="m" unicode="m" horiz-adv-x="851" 
d="M747.5 444.5q47.5 -51.5 47.5 -153.5v-291h-63v281q0 79 -34.5 117.5t-97.5 38.5q-95 0 -143 -87q4 -23 4 -54v-296h-62v286q0 77 -33 114t-93 37q-50 0 -87 -25.5t-58 -70.5v-341h-63v485h63v-64q29 37 66 56t89 19q113 0 155 -83q58 83 170 83q92 0 139.5 -51.5z" />
    <glyph glyph-name="n" unicode="n" horiz-adv-x="554" 
d="M498 270v-270h-63v265q0 91 -38 131.5t-110 40.5q-54 0 -95 -26.5t-64 -75.5v-335h-63v485h63v-66q31 38 71.5 57.5t95.5 19.5q203 0 203 -226z" />
    <glyph glyph-name="o" unicode="o" horiz-adv-x="546" 
d="M401 464q54 -32 82.5 -89.5t28.5 -132.5t-28.5 -132.5t-82.5 -89.5t-128 -32t-128 32t-82.5 89.5t-28.5 132.5t28.5 132.5t82.5 89.5t128 32t128 -32zM147 384.5q-46 -52.5 -46 -142.5t46 -142.5t126 -52.5t126.5 52.5t46.5 142.5t-46.5 142.5t-126.5 52.5t-126 -52.5z
" />
    <glyph glyph-name="p" unicode="p" horiz-adv-x="555" 
d="M409 466q53 -32 81.5 -90t28.5 -133q0 -76 -28.5 -134t-81.5 -90t-124 -32q-52 0 -92 17.5t-65 52.5v-297h-63v725h63v-57q25 35 65 52.5t92 17.5q71 0 124 -32zM186.5 413q-40.5 -26 -58.5 -73v-189q18 -51 58.5 -78t94.5 -27q80 0 126 52.5t46 144.5q0 91 -46 143.5
t-126 52.5q-54 0 -94.5 -26z" />
    <glyph glyph-name="q" unicode="q" horiz-adv-x="555" 
d="M361.5 480.5q40.5 -17.5 65.5 -52.5v57h62v-725h-62v297q-25 -35 -65.5 -52.5t-91.5 -17.5q-71 0 -124.5 32t-82 90t-28.5 134q0 75 28.5 133t82 90t124.5 32q51 0 91.5 -17.5zM148 386.5q-46 -52.5 -46 -143.5q0 -92 46 -144.5t126 -52.5q54 0 94.5 27t58.5 78v189
q-18 47 -58.5 73t-94.5 26q-80 0 -126 -52.5z" />
    <glyph glyph-name="r" unicode="r" horiz-adv-x="388" 
d="M388 470l-26 -57q-46 21 -86 21q-104 0 -148 -123v-311h-63v485h63v-85q46 96 158 96q49 0 102 -26z" />
    <glyph glyph-name="s" unicode="s" horiz-adv-x="451" 
d="M398 429l-39 -45q-26 26 -57.5 40.5t-79.5 14.5q-54 0 -83 -19t-29 -56q0 -28 15 -43.5t38.5 -23t78.5 -19.5q52 -11 85.5 -24.5t55.5 -41.5t22 -75q0 -69 -51 -109t-134 -40q-122 0 -193 88l42 42q31 -37 66.5 -55t87.5 -18q57 0 88 21.5t31 64.5q0 29 -15 46t-39 25
t-66 17l-36 8q-64 16 -101.5 45t-37.5 88q0 62 48.5 99t128.5 37q109 0 174 -67z" />
    <glyph glyph-name="t" unicode="t" horiz-adv-x="337" 
d="M288 485v-59h-147v-289q0 -44 21.5 -66t55.5 -22q35 0 68 23l27 -48q-42 -33 -99 -33q-58 0 -96.5 36t-38.5 109v290h-56v59h56v132h62v-132h147z" />
    <glyph glyph-name="u" unicode="u" horiz-adv-x="544" 
d="M416 0v64q-31 -37 -70.5 -56t-94.5 -19q-195 0 -195 226v270h63v-265q0 -91 36 -131.5t104 -40.5q54 0 94 26t63 74v337h63v-485h-63z" />
    <glyph glyph-name="v" unicode="v" horiz-adv-x="511" 
d="M295 0h-74l-211 485h73l176 -424l171 424h71z" />
    <glyph glyph-name="w" unicode="w" horiz-adv-x="782" 
d="M603 0h-74l-135 413l-131 -413h-74l-175 485h70l141 -423l132 423h76l134 -422l134 422h67z" />
    <glyph glyph-name="x" unicode="x" horiz-adv-x="533" 
d="M261 215l-171 -215h-78l210 256l-202 229h82l158 -186l151 186h78l-191 -228l224 -257h-82z" />
    <glyph glyph-name="y" unicode="y" horiz-adv-x="515" 
d="M190 -240h-69l113 249l-223 476h71l184 -402l167 402h70z" />
    <glyph glyph-name="z" unicode="z" horiz-adv-x="495" 
d="M112 59h349v-59h-432v50l329 376h-309v59h398v-44z" />
    <glyph glyph-name="asciitilde" unicode="~" horiz-adv-x="599" 
d="M254.5 321q25.5 -11 60.5 -32q29 -19 50 -28t44 -9q37 0 60 21t28 57h62q-5 -59 -47.5 -100.5t-108.5 -41.5q-33 0 -58.5 11t-60.5 32q-29 19 -50 28t-44 9q-36 0 -59.5 -20.5t-28.5 -57.5h-61q5 59 46.5 100.5t108.5 41.5q33 0 58.5 -11z" />
    <glyph glyph-name="sterling" unicode="&#xa3;" horiz-adv-x="552" 
d="M446 15q-41 -31 -102 -31q-45 0 -87.5 15.5t-98.5 43.5l-31 16l-32 -59l-55 30q35 61 55.5 122.5t20.5 109.5q0 32 -4 52h-68v57h55l-10.5 31.5t-13 55t-4.5 62.5q0 88 51.5 136.5t140.5 48.5q73 0 122.5 -34.5t75.5 -109.5l-57 -31q-25 66 -58.5 89.5t-74.5 23.5
q-57 0 -93.5 -29.5t-39.5 -91.5q0 -29 4.5 -52t14.5 -56l12 -43h193v-57h-183q2 -30 2 -49q0 -76 -28 -150q58 -31 107.5 -50t89.5 -19q35 0 59.5 18.5t50.5 56.5l52 -33q-25 -42 -66 -73z" />
    <glyph glyph-name="dotlessi" horiz-adv-x="193" 
d="M65 0v485h63v-485h-63z" />
    <glyph glyph-name="uni0237" horiz-adv-x="193" 
d="M87.5 -213.5q-39.5 -35.5 -95.5 -35.5q-23 0 -46 7.5t-41 19.5l23 51q29 -19 62 -19q32 0 53.5 21t21.5 64v590h63v-584q-1 -79 -40.5 -114.5z" />
    <glyph glyph-name="dotaccent" horiz-adv-x="141" 
d="M104 713.5q13 -11.5 13 -34.5t-13 -35t-33 -12t-33 12t-13 35t13 34.5t33 11.5t33 -11.5z" />
    <glyph glyph-name="Euro" unicode="&#x20ac;" horiz-adv-x="549" 
d="M318 -15q-113 0 -167 60t-67 184h-54v47h50q-1 20 -1 63l1 43h-50v47h52q11 128 61.5 194.5t162.5 66.5q74 0 125 -31t75 -92l-52 -33q-25 55 -61 76t-83 21q-83 0 -119.5 -51.5t-43.5 -150.5h260v-47h-262l-1 -50q0 -38 1 -56h262v-47h-259q8 -92 46.5 -138.5
t127.5 -46.5q53 0 87.5 20t62.5 59l47 -35q-67 -103 -201 -103z" />
  </font>
</defs>
</svg>
