<?xml version="1.0" encoding="UTF-8"?>
<svg width="36px" height="35px" viewBox="0 0 36 35" version="1.1" xmlns="http://www.w3.org/2000/svg" xmlns:xlink="http://www.w3.org/1999/xlink">
    <title>F213B3B3-DF28-4FA5-AAEB-5981A8D81C76@1x</title>
    <defs>
        <path d="M0.507252367,28.1151828 L13.7091413,2.81739018 C14.5575301,1.00056004 15.8013729,0.0614299789 17.4406695,0 C19.1194341,0 20.3959477,0.939130061 21.2702104,2.81739018 L34.4849426,28.1151828 C35.197337,29.7687119 35.1707277,31.3107774 34.4051147,32.7413792 C33.5176563,34.3711774 32.1660729,35.118941 30.3503644,34.9846701 L4.46711269,34.9846701 C2.81673954,35.1014053 1.53728003,34.3818331 0.628734162,32.8259534 C-0.166912696,31.3304261 -0.207406628,29.7601693 0.507252367,28.1151828 Z" id="path-1"></path>
    </defs>
    <g id="🔴------Social-Logos" stroke="none" stroke-width="1" fill="none" fill-rule="evenodd">
        <g id="PERS_BUS_Info-Icons_NW_36x35-24x24" transform="translate(-859.000000, -507.000000)">
            <g id="Icon/Large/Warning" transform="translate(859.500000, 507.000000)">
                <mask id="mask-2" fill="white">
                    <use xlink:href="#path-1"></use>
                </mask>
                <use id="Mask" fill="#FCB900" xlink:href="#path-1"></use>
                <path d="M18.6973003,21.5240077 C18.956176,18.6347871 19.1287599,17.2963981 19.1287599,11.6666667 L15.8712401,11.6666667 C15.8712401,17.2963981 16.043824,18.6347871 16.3026997,21.5240077 L18.6973003,21.5240077 Z M17.4892135,28.4375 C18.6325814,28.4375 19.3229167,27.7576834 19.3229167,26.6742256 C19.3229167,25.5695236 18.6110084,24.8684627 17.5107865,24.8684627 C16.4105646,24.8684627 15.6770833,25.5482793 15.6770833,26.6529814 C15.6770833,27.7576834 16.3889916,28.4375 17.4892135,28.4375 Z" id="!" stroke="#333333" stroke-width="0.5" fill="#333333" fill-rule="nonzero" mask="url(#mask-2)"></path>
            </g>
        </g>
    </g>
</svg>