<?xml version="1.0" encoding="UTF-8"?>
<svg width="17px" height="17px" viewBox="0 0 15 16" version="1.1" xmlns="http://www.w3.org/2000/svg" xmlns:xlink="http://www.w3.org/1999/xlink">
    <title>912225BD-1226-45A9-8ACE-6B1A29F6CC3F@1x</title>
    <g id="⚛️-Icons--**" stroke="none" stroke-width="1" fill="none" fill-rule="evenodd">
        <g id="Web-Icons-**-WIP-**" transform="translate(-880.000000, -2016.000000)" stroke="#5E10B1" stroke-width="1.2">
            <g id="Group" transform="translate(880.946392, 2016.802145)">
                <path d="M3.52369149,0.623777048 L2,0.623777048 C0.8954305,0.623777048 -5.7935996e-16,1.51920755 0,2.62377705 L0,12.243454 C-3.0881846e-16,13.3480235 0.8954305,14.243454 2,14.243454 L11.43,14.243454 C12.5345695,14.243454 13.43,13.3480235 13.43,12.243454 L13.43,10.4802846 L13.43,10.4802846" id="Path-2" stroke-linecap="round"></path>
                <path d="M7.33334128,0.598427785 C7.33870362,0.598495276 7.34336436,0.600028729 7.34722527,0.603306282 L7.344,0.601 L7.35265764,5.55156354 C7.35265764,5.77541125 7.41939255,5.98364902 7.53394925,6.15757157 L7.60827058,6.25765763 C7.78351913,6.46786834 8.03566933,6.61141218 8.32114386,6.64638335 L13.3924447,6.65455755 C13.3965235,6.65455755 13.4002161,6.65621079 13.402889,6.65888372 C13.405562,6.66155665 13.4072152,6.66524926 13.4072152,6.66932801 L13.404,6.676 L8.45565166,6.68409847 C8.20984872,6.68409847 7.98231626,6.60581674 7.7966811,6.47277371 L7.69051669,6.38656471 C7.49264093,6.20509633 7.359186,5.95426751 7.32944082,5.67241478 L7.32311673,0.614770459 Z" id="Path" fill-rule="nonzero" transform="translate(10.365166, 3.642049) rotate(-180.000000) translate(-10.365166, -3.642049) "></path>
                <path d="M12.413357,1.21570193 C12.4171002,1.21948752 12.4193286,1.22381345 12.4197817,1.22880865 L12.418,1.224 L6.26782582,7.38862127 L6.25738153,7.39294744 C6.25360144,7.39294744 6.24982135,7.39150538 6.24693724,7.38862127 L6.244,7.384 L12.3946418,1.2200281 Z" id="Path" fill-rule="nonzero"></path>
            </g>
        </g>
    </g>
</svg>