<?xml version="1.0" encoding="UTF-8"?>
<svg width="31px" height="31px" viewBox="0 0 31 31" version="1.1" xmlns="http://www.w3.org/2000/svg" xmlns:xlink="http://www.w3.org/1999/xlink">
    <title>8ABEBF35-AEC3-4FA6-95B1-88B5524FFDEA@1x</title>
    <g id="⚛️-Icons--**" stroke="none" stroke-width="1" fill="none" fill-rule="evenodd">
        <g id="Web-Icons-**-WIP-**" transform="translate(-412.000000, -4654.000000)">
            <g id="Exclamation-Mark" transform="translate(412.400000, 4654.797213)">
                <path d="M14.9421447,0 C6.67415798,0 0,6.67760848 0,14.9498697 C0,23.222131 6.67415798,29.8997395 14.9421447,29.8997395 C17.0555514,29.8997395 19.5915444,29.2891376 22.5501238,28.0679338 L28.595202,29.07076 C29.4388231,29.2107095 30.2361647,28.6402709 30.3761141,27.7966497 C30.4237313,27.5096111 30.3895085,27.2149637 30.2773682,26.9464806 L28.1251026,21.7935879 L28.1251026,21.7935879 C29.2978938,19.1299808 29.8842895,16.8487414 29.8842895,14.9498697 C29.8842895,6.67760848 23.2101315,0 14.9421447,0 Z" id="Speech-Bubble" fill="#333333"></path>
                <polygon id="Path" fill="#F5F5F5" points="16.7943805 23.162473 12.7039105 23.162473 12.7039105 12.2545531 16.755049 12.2545531 16.755049 23.162473"></polygon>
                <path d="M14.7491455,9.52757316 C13.6368247,9.52757316 12.7039105,8.63054028 12.7039105,7.48233819 C12.7039105,6.37001742 13.6009434,5.43710322 14.7491455,5.43710322 C15.8614663,5.43710322 16.7943805,6.3341361 16.7943805,7.48233819 C16.7943805,8.63054028 15.8614663,9.52757316 14.7491455,9.52757316 Z" id="Path" fill="#F5F5F5"></path>
            </g>
        </g>
    </g>
</svg>