<?xml version="1.0" encoding="UTF-8"?>
<svg width="40px" height="40px" viewBox="0 0 40 40" version="1.1" xmlns="http://www.w3.org/2000/svg" xmlns:xlink="http://www.w3.org/1999/xlink">
    <title>ABBEBE20-9049-498B-9551-2334C94DB10F@2x</title>
    <defs>
        <path d="M22.8285714,21.3474904 C23.3222857,20.8841699 24.0628571,20.8841699 24.5565714,21.3474904 L24.5565714,21.3474904 L28.6708571,25.2084942 C28.8354286,25.3629344 29,25.6718147 29,25.980695 C29,26.2123552 28.9177143,26.5212355 28.6708571,26.7528958 L28.6708571,26.7528958 L24.5565714,30.6138996 C24.3097143,30.8455598 23.816,31 23.4045714,31 C22.9931429,30.9227799 22.664,30.6138996 22.5817143,30.2277992 C22.4994286,29.8416988 22.5817143,29.4555985 22.9108571,29.1467181 L22.9108571,29.1467181 L24.968,27.2162162 L13.2342857,27.2162162 C12.576,27.2162162 12,26.6756757 12,26.0579151 C12,25.4401544 12.576,24.8996139 13.2342857,24.8996139 L13.2342857,24.8996139 L24.8857143,24.8996139 L22.8285714,22.969112 C22.3348571,22.5057915 22.3348571,21.8108108 22.8285714,21.3474904 Z M17.1714286,9.34749035 C17.6651429,9.81081081 17.6651429,10.5057915 17.1714286,10.969112 L15.1142857,12.8996139 L26.7657143,12.8996139 C27.424,12.8996139 28,13.4401544 28,14.0579151 C28,14.6756757 27.424,15.2162162 26.7657143,15.2162162 L15.032,15.2162162 L17.0891429,17.1467181 C17.4182857,17.4555985 17.5005714,17.8416988 17.4182857,18.2277992 C17.336,18.6138996 17.0068571,18.9227799 16.5954286,19 C16.184,19 15.6902857,18.8455598 15.4434286,18.6138996 L11.3291429,14.7528958 C11.0822857,14.5212355 11,14.2123552 11,13.980695 C11,13.6718147 11.1645714,13.3629344 11.3291429,13.2084942 L15.4434286,9.34749035 C15.9371429,8.88416988 16.6777143,8.88416988 17.1714286,9.34749035 Z" id="path-1"></path>
    </defs>
    <g id="⚛️-Icons" stroke="none" stroke-width="1" fill="none" fill-rule="evenodd">
        <g id="01:-Atoms-/-Icons-/-Transfer">
            <mask id="mask-2" fill="white">
                <use xlink:href="#path-1"></use>
            </mask>
            <use id="Combined-Shape" fill="#FFF" xlink:href="#path-1"></use>
        </g>
    </g>
</svg>