<?xml version="1.0" encoding="UTF-8"?>
<svg width="36px" height="35px" viewBox="0 0 35 35" version="1.1" xmlns="http://www.w3.org/2000/svg" xmlns:xlink="http://www.w3.org/1999/xlink">
    <title>EB77845D-0D22-4033-895C-DD7701DE4A9A@1x</title>
    <defs>
        <path d="M17.0050974,0 C26.4145846,0 34.0101947,7.59953704 34.0101947,17.0138889 C34.0101947,19.1749239 33.3428397,21.7711173 32.0081297,24.8024691 L34.2469316,30.1625445 C34.396452,30.5205219 34.4420825,30.913385 34.3785928,31.2961033 C34.1919936,32.4209315 33.1288715,33.1815163 32.0040433,32.994917 L25.6634545,31.9430682 C22.2964056,33.3328746 19.4102866,34.0277778 17.0050974,34.0277778 C7.59561015,34.0277778 0,26.4282407 0,17.0138889 C0,7.59953704 7.59561015,0 17.0050974,0 Z M19.2383297,14.4618056 L14.765625,14.4618056 L14.765625,25.8043981 L19.2383297,25.8043981 L19.2383297,14.4618056 Z M17.0236895,7.65625 C15.7560042,7.65625 14.765625,8.69101283 14.765625,9.92476852 C14.765625,11.1983228 15.7956193,12.193287 17.0236895,12.193287 C18.2517597,12.193287 19.281754,11.1983228 19.281754,9.92476852 C19.281754,8.65121426 18.2517597,7.65625 17.0236895,7.65625 Z" id="path-1"></path>
    </defs>
    <g id="🔴------Social-Logos" stroke="none" stroke-width="1" fill="none" fill-rule="evenodd">
        <g id="PERS_BUS_Info-Icons_NW_36x35-24x24" transform="translate(-604.000000, -726.000000)">
            <g id="Icon/Large/Info" transform="translate(604.000000, 726.000000)">
                <mask id="mask-2" fill="white">
                    <use xlink:href="#path-1"></use>
                </mask>
                <use id="Mask" fill="#0A2F64" fill-rule="nonzero" xlink:href="#path-1"></use>
                <g id="Colour/BrightPurple" mask="url(#mask-2)" fill="#333333">
                    <g transform="translate(-0.000000, 0.000000)" id="Rectangle">
                        <rect x="0" y="0" width="35" height="35"></rect>
                    </g>
                </g>
            </g>
        </g>
    </g>
</svg>