<svg width="25" height="24" viewBox="0 0 25 24" fill="none" xmlns="http://www.w3.org/2000/svg">
<path fill-rule="evenodd" clip-rule="evenodd" d="M0.75 12C0.75 5.4 6.15 0 12.75 0C19.35 0 24.75 5.4 24.75 12C24.75 18.6 19.35 24 12.75 24C6.15 24 0.75 18.6 0.75 12ZM2.25 12C2.25 17.8 6.95 22.5 12.75 22.5C18.55 22.5 23.25 17.8 23.25 12C23.25 6.2 18.55 1.5 12.75 1.5C6.95 1.5 2.25 6.2 2.25 12ZM12.75 9.30005C12.35 9.30005 11.95 9.60005 11.95 10.1V17.2C11.95 17.6 12.25 18 12.75 18C13.25 18 13.55 17.7 13.55 17.2V10C13.55 9.60005 13.15 9.30005 12.75 9.30005ZM11.95 6.10005C11.95 5.60005 12.35 5.30005 12.75 5.30005C13.15 5.30005 13.55 5.60005 13.55 6.10005V7.10005C13.55 7.60005 13.25 7.90005 12.75 7.90005C12.25 7.90005 11.95 7.50005 11.95 7.10005V6.10005Z" fill="#5E10B1"/>
</svg>
