<?xml version="1.0" standalone="no"?>
<!DOCTYPE svg PUBLIC "-//W3C//DTD SVG 1.1//EN" "http://www.w3.org/Graphics/SVG/1.1/DTD/svg11.dtd" >
<svg xmlns="http://www.w3.org/2000/svg" xmlns:xlink="http://www.w3.org/1999/xlink" version="1.1">
<metadata>
Created by FontForge 20170731 at Mon Apr 21 18:26:30 2014
 By Aleksey,,,
Copyright (c) 2014 Monotype Imaging Inc. All rights reserved.
</metadata>
<defs>
<font id="RNHouseSansW01-Bold" horiz-adv-x="552" >
  <font-face 
    font-family="RNHouseSansW01-Bold"
    font-weight="700"
    font-stretch="normal"
    units-per-em="1000"
    panose-1="2 11 8 4 2 2 3 2 2 4"
    ascent="745"
    descent="-255"
    x-height="485"
    cap-height="710"
    bbox="-92 -255 957 770"
    underline-thickness="0"
    underline-position="0"
    unicode-range="U+0020-20AC"
  />
<missing-glyph horiz-adv-x="600" 
 />
    <glyph glyph-name=".notdef" horiz-adv-x="600" 
 />
    <glyph glyph-name=".null" horiz-adv-x="0" 
 />
    <glyph glyph-name="nonmarkingreturn" horiz-adv-x="333" 
 />
    <glyph glyph-name="space" unicode=" " horiz-adv-x="202" 
 />
    <glyph glyph-name="exclam" unicode="!" horiz-adv-x="339" 
d="M240 467.5q-4 -79.5 -13 -186.5l-3 -35h-111l-3 35q-9 107 -13 186.5t-4 242.5h151q0 -163 -4 -242.5zM230 137q23 -23 23 -62q0 -38 -22.5 -60.5t-62.5 -22.5q-38 0 -61 22.5t-23 61.5t23 61.5t62 22.5q38 0 61 -23z" />
    <glyph glyph-name="numbersign" unicode="#" horiz-adv-x="665" 
d="M502 306h96l-17 -108h-96l-31 -198h-115l31 198h-128l-31 -198h-115l31 198h-94l17 108h94l18 111h-95l17 108h95l29 185h115l-29 -185h128l29 185h115l-29 -185h95l-17 -108h-95zM277 417l-18 -111h128l18 111h-128z" />
    <glyph glyph-name="dollar" unicode="$" horiz-adv-x="574" 
d="M434 346q35 -19 62 -57.5t27 -101.5q0 -83 -47.5 -133.5t-128.5 -64.5v-83h-98v81q-78 9 -129 51.5t-71 107.5l117 55q18 -51 48.5 -76.5t78.5 -25.5q43 0 70.5 20t27.5 60q0 28 -13.5 45.5t-35.5 28t-62 24.5q-5 3 -10.5 4.5t-9.5 3.5q-22 7 -45 18q-71 33 -104 80.5
t-33 113.5q0 81 45.5 129.5t125.5 60.5v83h98v-83q134 -19 177 -146l-112 -44q-18 43 -46 61.5t-70 18.5q-45 0 -66.5 -19.5t-21.5 -54.5q0 -28 14.5 -47.5t38.5 -32t66 -29.5q72 -29 107 -48z" />
    <glyph glyph-name="percent" unicode="%" horiz-adv-x="742" 
d="M299.5 679.5q40.5 -43.5 40.5 -115.5t-40.5 -115.5t-112.5 -43.5q-71 0 -111.5 43.5t-40.5 115.5t40.5 115.5t111.5 43.5q72 0 112.5 -43.5zM33 61l600 652l76 -61l-601 -652zM144.5 613q-15.5 -18 -15.5 -49t15.5 -48.5t42.5 -17.5q28 0 43.5 17.5t15.5 48.5t-15.5 49
t-43.5 18q-27 0 -42.5 -18zM668 261q41 -44 41 -115t-41 -115t-111 -44q-72 0 -112.5 43.5t-40.5 115.5t40.5 115.5t112.5 43.5q70 0 111 -44zM514.5 195q-15.5 -18 -15.5 -49t15 -48.5t43 -17.5q27 0 43 17.5t16 48.5t-16 49t-43 18t-42.5 -18z" />
    <glyph glyph-name="ampersand" unicode="&#x26;" horiz-adv-x="659" 
d="M432 38q-78 -56 -176 -56q-60 0 -111.5 23t-83 68.5t-31.5 110.5q0 129 132 210q-43 81 -43 151q0 84 51.5 133.5t134.5 49.5q55 0 99 -22.5t69 -63.5t25 -94q0 -74 -44 -124.5t-110 -87.5q40 -52 93 -110q27 46 58 112l144 -32q-60 -114 -111 -177q40 -42 125 -129h-189
zM264.5 586.5q-15.5 -18.5 -15.5 -51.5q0 -42 23 -89q50 23 72.5 45.5t22.5 55.5q0 26 -14 42t-43 16q-30 0 -45.5 -18.5zM353 134q-79 94 -119 149q-55 -38 -55 -90q0 -37 27.5 -58.5t67.5 -21.5q44 0 79 21z" />
    <glyph glyph-name="quotesingle" unicode="'" horiz-adv-x="244" 
d="M69 425v299h106v-299h-106z" />
    <glyph glyph-name="parenleft" unicode="(" horiz-adv-x="331" 
d="M217 498q-29 -126 -29 -259t29 -257.5t86 -221.5h-116q-61 88 -93 214.5t-32 265.5q0 140 32 268.5t93 217.5h116q-57 -102 -86 -228z" />
    <glyph glyph-name="parenright" unicode=")" horiz-adv-x="331" 
d="M113 -12q29 126 29 259t-29 257.5t-86 221.5h116q61 -88 93 -214.5t32 -265.5q0 -140 -32 -268.5t-93 -217.5h-116q57 102 86 228z" />
    <glyph glyph-name="asterisk" unicode="*" horiz-adv-x="441" 
d="M65 626l112 -47l-10 123h104l-6 -123l112 47l30 -97l-116 -32l79 -88l-83 -61l-66 99l-65 -100l-83 59l77 91l-116 32z" />
    <glyph glyph-name="plus" unicode="+" horiz-adv-x="596" 
d="M354 199v-207h-111v207h-209v111h209v208h111v-208h207v-111h-207z" />
    <glyph glyph-name="comma" unicode="," horiz-adv-x="292" 
d="M193 -76.5q-37 -56.5 -93 -84.5l-33 52q58 38 75 108q-42 1 -61.5 21.5t-19.5 62.5t22.5 64t65.5 22t62 -28.5t19 -86.5q0 -74 -37 -130.5z" />
    <glyph glyph-name="hyphen" unicode="-" horiz-adv-x="394" 
d="M38 212v111h317v-111h-317z" />
    <glyph glyph-name="period" unicode="." horiz-adv-x="292" 
d="M207 136q23 -23 23 -62t-22.5 -61.5t-62.5 -22.5q-38 0 -61 22.5t-23 61.5t23.5 62t61.5 23t61 -23z" />
    <glyph glyph-name="zero" unicode="0" 
d="M458 602q60 -88 60 -264t-60 -264t-182 -88t-182 88t-60 264t60 264t182 88t182 -88zM207 515.5q-23 -51.5 -23 -177.5t23 -177.5t69 -51.5t69.5 52t23.5 177t-23.5 177t-69.5 52t-69 -51.5z" />
    <glyph glyph-name="one" unicode="1" 
d="M487 120v-120h-401v120h132v376q-20 -25 -51 -47t-60 -34l-44 116q49 19 92 57.5t67 87.5h135v-556h130z" />
    <glyph glyph-name="two" unicode="2" 
d="M503 0h-473v94q55 60 150 157q67 68 96.5 102t46 64.5t16.5 61.5q0 41 -25 64.5t-68 23.5t-75.5 -17.5t-66.5 -61.5l-85 80q41 63 101 92.5t139 29.5q107 0 168.5 -55t61.5 -149q0 -51 -22 -96t-57 -85t-101 -105l-30 -31q-16 -15 -48 -49h272v-120z" />
    <glyph glyph-name="three" unicode="3" 
d="M465 291.5q28 -42.5 28 -99.5q0 -61 -29.5 -108t-84.5 -72.5t-129 -25.5q-94 0 -156 42t-91 106l108 78q25 -55 56.5 -79t81.5 -24q45 0 70 23t25 64q0 44 -27.5 66.5t-90.5 22.5h-61v120h48q54 0 83.5 23t29.5 64q0 34 -22 54.5t-61 20.5t-68 -18.5t-60 -62.5l-92 83
q30 56 88 88.5t133 32.5q70 0 122 -25.5t80 -69.5t28 -99q0 -42 -22 -79t-65 -59q50 -24 78 -66.5z" />
    <glyph glyph-name="four" unicode="4" 
d="M440 136v-136h-143v136h-290v108l288 432h145v-432h78v-108h-78zM297 488l-161 -244h161v244z" />
    <glyph glyph-name="five" unicode="5" 
d="M386.5 411.5q52.5 -27.5 81.5 -78t29 -117.5q0 -69 -30.5 -121t-88 -80.5t-134.5 -28.5t-134 32t-93 84l101 85q32 -41 60.5 -60t64.5 -19q50 0 77 27.5t27 77.5q0 51 -26.5 77t-75.5 26q-57 0 -94 -38l-114 17l88 381h346v-120h-240l-31 -127q30 10 66 10
q68 0 120.5 -27.5z" />
    <glyph glyph-name="six" unicode="6" 
d="M404.5 409q51.5 -28 79.5 -77.5t28 -110.5q0 -72 -31 -124.5t-87 -80.5t-128 -28q-71 0 -125 28t-83.5 80.5t-29.5 122.5q0 77 26.5 150.5t71 143t115.5 163.5h159q-119 -150 -181 -251q30 12 66 12q68 0 119.5 -28zM339.5 138.5q25.5 27.5 25.5 79.5t-25.5 79.5
t-74.5 27.5q-48 0 -73.5 -27.5t-25.5 -79.5t25.5 -79.5t73.5 -27.5q49 0 74.5 27.5z" />
    <glyph glyph-name="seven" unicode="7" 
d="M512 563l-239 -563h-147l236 541h-326v135h476v-113z" />
    <glyph glyph-name="eight" unicode="8" 
d="M492.5 286q22.5 -40 22.5 -90q0 -61 -29.5 -108.5t-83.5 -74.5t-126 -27t-126 27t-83.5 74.5t-29.5 108.5q0 51 22.5 90.5t65.5 65.5q-36 24 -55 59t-19 79q0 57 28 102.5t79 71.5t118 26t118 -26t79 -71.5t28 -102.5q0 -44 -19 -79t-54 -59q42 -26 64.5 -66zM215 547.5
q-24 -23.5 -24 -60.5q0 -38 24 -61t61 -23q36 0 60.5 23.5t24.5 60.5q0 36 -24.5 60t-60.5 24q-37 0 -61 -23.5zM344 130.5q26 25.5 26 66.5q0 42 -26 67.5t-68 25.5t-68 -25.5t-26 -67.5q0 -41 26 -66.5t68 -25.5t68 25.5z" />
    <glyph glyph-name="nine" unicode="9" 
d="M402 660q54 -28 83.5 -80.5t29.5 -123.5q0 -76 -27 -150t-70.5 -143t-113.5 -163h-154q113 142 176 253q-28 -14 -69 -14q-68 0 -119.5 28t-79.5 77.5t-28 110.5q0 72 31.5 124.5t87.5 80.5t128 28q71 0 125 -28zM203.5 378.5q25.5 -27.5 73.5 -27.5t73.5 27.5t25.5 79.5
t-25.5 79.5t-73.5 27.5t-73.5 -27.5t-25.5 -79.5t25.5 -79.5z" />
    <glyph glyph-name="colon" unicode=":" horiz-adv-x="292" 
d="M208 136q23 -23 23 -62t-22.5 -61.5t-62.5 -22.5q-38 0 -61 22.5t-23 61.5t23.5 62t61.5 23t61 -23zM208 476q23 -23 23 -62t-22.5 -61.5t-62.5 -22.5q-38 0 -61 22.5t-23 61.5t23.5 62t61.5 23t61 -23z" />
    <glyph glyph-name="semicolon" unicode=";" horiz-adv-x="292" 
d="M208 476q23 -23 23 -62t-22.5 -61.5t-62.5 -22.5q-38 0 -61 22.5t-23 61.5t23.5 62t61.5 23t61 -23zM194 -76.5q-37 -56.5 -93 -84.5l-33 52q58 38 75 108q-42 1 -61.5 21.5t-19.5 62.5t22.5 64t65.5 22t62 -28.5t19 -86.5q0 -74 -37 -130.5z" />
    <glyph glyph-name="less" unicode="&#x3c;" horiz-adv-x="579" 
d="M190 243l356 -122v-117l-510 186v105l510 186v-117z" />
    <glyph glyph-name="equal" unicode="=" horiz-adv-x="596" 
d="M34 307v111h527v-111h-527zM34 92v111h527v-111h-527z" />
    <glyph glyph-name="greater" unicode="&#x3e;" horiz-adv-x="579" 
d="M544 190l-510 -186v117l356 122l-356 121v117l510 -186v-105z" />
    <glyph glyph-name="question" unicode="?" horiz-adv-x="547" 
d="M426 672q62 -52 62 -145q0 -51 -17.5 -87.5t-41.5 -59t-58 -45.5q-33 -21 -49 -38t-16 -38v-30h-141v33q0 38 14 65t33.5 44t52.5 40q40 30 61 55t21 62q-1 39 -27 60t-73 21q-40 0 -70.5 -19.5t-66.5 -73.5l-100 85q46 63 106.5 93t139.5 30q108 0 170 -52zM299.5 136
q23.5 -23 23.5 -62t-23 -61.5t-62 -22.5t-61.5 22.5t-22.5 61.5t23 62t61 23t61.5 -23z" />
    <glyph glyph-name="at" unicode="@" horiz-adv-x="832" 
d="M622 647q87 -39 137 -112t50 -173q0 -63 -20 -131.5t-67 -118t-123 -49.5q-47 0 -78.5 21.5t-38.5 68.5q-43 -48 -115 -48q-53 0 -92.5 25t-60 67t-20.5 93q0 56 24 110t73 89.5t120 35.5q39 0 66 -12.5t45 -41.5l5 27h100l-42 -233q-1 -6 -2 -12.5t-3 -12.5
q-7 -38 -7 -52q0 -17 7 -24.5t24 -7.5q38 0 62 33.5t35 81t11 91.5q-1 69 -35 122t-97 82t-148 29q-109 0 -178 -45.5t-99.5 -115t-30.5 -145.5q0 -117 71.5 -186.5t204.5 -69.5q28 0 50.5 3.5t49.5 13.5l22 -88q-38 -12 -67.5 -17t-64.5 -5q-106 0 -189 40.5t-130.5 118
t-47.5 185.5q0 98 41.5 190t131.5 152t229 60q110 0 197 -39zM472.5 413q-23.5 14 -55.5 14q-39 0 -63.5 -21.5t-35.5 -52t-11 -59.5q0 -41 21.5 -66.5t58.5 -25.5q26 0 52.5 12t44.5 31l22 131q-10 23 -33.5 37z" />
    <glyph glyph-name="A" unicode="A" horiz-adv-x="762" 
d="M227 165l-62 -165h-163l280 710h195l280 -710h-169l-61 165h-300zM378 565l-99 -264h197z" />
    <glyph glyph-name="B" unicode="B" horiz-adv-x="661" 
d="M620 203q0 -89 -61.5 -146t-183.5 -57h-308v710h297q121 0 179 -51.5t58 -134.5q0 -97 -94 -148q113 -45 113 -173zM350 419q93 3 93 81q0 76 -90 76h-133v-157h130zM438 151q24 24 24 64q0 83 -95 83h-147v-171h149q45 0 69 24z" />
    <glyph glyph-name="C" unicode="C" horiz-adv-x="746" 
d="M567.5 692q75.5 -36 132.5 -116l-110 -96q-46 60 -91 87t-108 27q-91 0 -144.5 -62t-53.5 -177q0 -114 52.5 -176.5t143.5 -62.5q69 0 114 33.5t90 106.5l120 -79q-53 -97 -135 -146t-187 -49q-106 0 -185.5 43t-123.5 127t-44 203t44 203t124 127t187 43q99 0 174.5 -36
z" />
    <glyph glyph-name="D" unicode="D" horiz-adv-x="740" 
d="M533.5 669.5q82.5 -40.5 129 -120t46.5 -194.5t-46.5 -194.5t-128.5 -120t-190 -40.5h-273v710h272q108 0 190.5 -40.5zM453 162.5q45 25.5 71 74.5t26 118t-26 118t-71 74.5t-100 25.5h-127v-436h127q55 0 100 25.5z" />
    <glyph glyph-name="E" unicode="E" horiz-adv-x="602" 
d="M222 573v-143h293v-132h-293v-161h350v-137h-505v710h505v-137h-350z" />
    <glyph glyph-name="F" unicode="F" horiz-adv-x="560" 
d="M226 573v-152h273v-136h-273v-285h-155v710h478v-137h-323z" />
    <glyph glyph-name="G" unicode="G" horiz-adv-x="748" 
d="M569.5 683.5q78.5 -40.5 125.5 -121.5l-110 -86q-37 60 -82.5 87t-105.5 27q-96 0 -148 -61t-52 -175t52.5 -175.5t148.5 -61.5q70 0 113.5 34t53.5 103h-201v137h351v-51q0 -188 -90 -272.5t-235 -84.5q-104 0 -183.5 42t-124 125.5t-44.5 202.5t44.5 202.5t124 126
t183.5 42.5q101 0 179.5 -40.5z" />
    <glyph glyph-name="H" unicode="H" horiz-adv-x="743" 
d="M521 0v302h-299v-302h-155v710h155v-272h299v272h155v-710h-155z" />
    <glyph glyph-name="I" unicode="I" horiz-adv-x="297" 
d="M71 0v710h155v-710h-155z" />
    <glyph glyph-name="J" unicode="J" horiz-adv-x="477" 
d="M348.5 42.5q-61.5 -60.5 -165.5 -60.5q-55 0 -100.5 19t-85.5 57l83 108q45 -47 97 -47q40 0 59 23t19 79v489h155v-487q0 -120 -61.5 -180.5z" />
    <glyph glyph-name="K" unicode="K" horiz-adv-x="699" 
d="M701 0h-207l-209 279l-63 -65v-214h-155v710h155v-297l283 297h198l-306 -315z" />
    <glyph glyph-name="L" unicode="L" horiz-adv-x="576" 
d="M571 137v-137h-504v710h155v-573h349z" />
    <glyph glyph-name="M" unicode="M" horiz-adv-x="921" 
d="M680 456l-156 -426h-127l-157 426l-17 -456h-155l29 710h190l173 -490l173 490h191l28 -710h-155z" />
    <glyph glyph-name="N" unicode="N" horiz-adv-x="783" 
d="M527 0l-303 492h-2v-492h-155v710h189l302 -492h2v492h155v-710h-188z" />
    <glyph glyph-name="O" unicode="O" horiz-adv-x="792" 
d="M582.5 685.5q80.5 -42.5 126 -126.5t45.5 -204t-45.5 -204t-126.5 -126.5t-186 -42.5t-186 42.5t-126.5 126.5t-45.5 204t45.5 204t126 126.5t186.5 42.5t186.5 -42.5zM251 531.5q-54 -62.5 -54 -176.5q0 -113 54.5 -176t144.5 -63t144.5 63t54.5 176q0 114 -54 176.5
t-145 62.5t-145 -62.5z" />
    <glyph glyph-name="P" unicode="P" horiz-adv-x="650" 
d="M565.5 642.5q65.5 -67.5 65.5 -176.5q0 -114 -67.5 -183.5t-198.5 -69.5h-139v-213h-155v710h294q135 0 200.5 -67.5zM226 349h131q57 0 86 30.5t29 87.5q0 51 -27.5 78.5t-89.5 27.5h-129v-224z" />
    <glyph glyph-name="Q" unicode="Q" horiz-adv-x="775" 
d="M702.5 157q-42.5 -82 -118.5 -127l86 -142h-166l-59 97q-28 -3 -58 -3q-105 0 -186 42.5t-126.5 126.5t-45.5 204t45.5 204t126 126.5t186.5 42.5t186.5 -42.5t126 -126.5t45.5 -204q0 -116 -42.5 -198zM243 179q54 -63 144 -63t144.5 63t54.5 176q0 114 -54 176.5
t-145 62.5q-90 0 -144 -62.5t-54 -176.5q0 -113 54 -176z" />
    <glyph glyph-name="R" unicode="R" horiz-adv-x="664" 
d="M334 256h-112v-256h-155v710h292q87 0 144.5 -30t85 -80.5t27.5 -111.5q0 -71 -33.5 -126t-97.5 -83l144 -279h-169zM362 390q50 0 76.5 26t26.5 70q0 41 -26.5 65.5t-86.5 24.5h-130v-186h140z" />
    <glyph glyph-name="S" unicode="S" horiz-adv-x="614" 
d="M453 703q64 -25 111 -75l-108 -103q-36 37 -71.5 53t-77.5 16q-102 0 -102 -74q0 -26 15 -41.5t40.5 -24t76.5 -21.5q73 -18 121.5 -37.5t85 -63.5t36.5 -118q0 -72 -35 -124.5t-98 -80t-144 -27.5q-189 0 -285 143l117 91q38 -51 78 -75.5t90 -24.5q56 0 86.5 22
t30.5 65q0 26 -14 41t-39.5 24.5t-78.5 23.5l-29 8q-61 18 -105.5 40t-75 64.5t-30.5 108.5q0 101 68.5 158t186.5 57q86 0 150 -25z" />
    <glyph glyph-name="T" unicode="T" horiz-adv-x="605" 
d="M380 573v-573h-154v573h-221v137h595v-137h-220z" />
    <glyph glyph-name="U" unicode="U" horiz-adv-x="732" 
d="M627 113.5q-39 -64.5 -107 -98t-154 -33.5t-154 33.5t-107 98t-39 153.5v443h155v-443q0 -74 39 -112.5t106 -38.5t106 38.5t39 112.5v443h155v-443q0 -89 -39 -153.5z" />
    <glyph glyph-name="V" unicode="V" horiz-adv-x="716" 
d="M458 0h-199l-254 710h167l187 -551l187 551h166z" />
    <glyph glyph-name="W" unicode="W" horiz-adv-x="970" 
d="M779 0h-187l-107 476l-107 -476h-187l-178 710h163l114 -523l103 493h184l103 -493l114 523h163z" />
    <glyph glyph-name="X" unicode="X" horiz-adv-x="704" 
d="M347 241l-166 -241h-177l250 363l-234 347h185l148 -219l151 219h176l-234 -340l250 -370h-187z" />
    <glyph glyph-name="Y" unicode="Y" horiz-adv-x="664" 
d="M409 0h-155v279l-262 431h177l167 -283l170 283h166l-263 -431v-279z" />
    <glyph glyph-name="Z" unicode="Z" horiz-adv-x="593" 
d="M17 0v137l367 436h-333v137h510v-137l-365 -436h377v-137h-556z" />
    <glyph glyph-name="asciicircum" unicode="^" horiz-adv-x="594" 
d="M297 544l-121 -221h-122l199 353h89l198 -353h-122z" />
    <glyph glyph-name="a" unicode="a" horiz-adv-x="596" 
d="M399 442v43h136v-485h-136v43q-50 -56 -136 -56q-70 0 -123 32t-82 90t-29 133t29 133.5t82 90.5t123 32q86 0 136 -56zM202.5 345q-32.5 -38 -32.5 -103t32.5 -103t88.5 -38q34 0 60.5 15t43.5 43v166q-17 28 -43.5 43t-60.5 15q-56 0 -88.5 -38z" />
    <glyph glyph-name="b" unicode="b" horiz-adv-x="599" 
d="M201 446q49 52 132 52q70 0 123 -32t82 -90.5t29 -133.5t-29 -133.5t-82 -90.5t-123 -32q-86 0 -136 56v-42h-137v730h141v-284zM244 368q-27 -15 -43 -43v-166q16 -28 43 -43t61 -15q56 0 88.5 38t32.5 103t-32.5 103t-88.5 38q-34 0 -61 -15z" />
    <glyph glyph-name="c" unicode="c" horiz-adv-x="525" 
d="M496 393l-92 -79q-28 35 -53.5 49.5t-58.5 14.5q-57 0 -88 -36.5t-31 -97.5q0 -64 31.5 -101t86.5 -37q38 0 66 17.5t50 50.5l98 -71q-30 -54 -85 -84.5t-131 -30.5q-80 0 -138 32t-89 89.5t-31 132.5t31 132.5t89.5 89.5t138.5 32q139 0 206 -103z" />
    <glyph glyph-name="d" unicode="d" horiz-adv-x="599" 
d="M402 0v42q-50 -56 -136 -56q-70 0 -123.5 32t-82.5 90.5t-29 133.5t29 133.5t82.5 90.5t123.5 32q82 0 131 -52v284h141v-730h-136zM205.5 345q-32.5 -38 -32.5 -103t32.5 -103t87.5 -38q35 0 61.5 15t42.5 43v166q-16 28 -42.5 43t-61.5 15q-55 0 -87.5 -38z" />
    <glyph glyph-name="e" unicode="e" horiz-adv-x="565" 
d="M529 203h-361q10 -53 44 -82t85 -29q78 0 123 59l99 -62q-76 -104 -223 -104q-84 0 -144 32.5t-91.5 91.5t-31.5 137q0 75 30.5 132t88 89t135.5 32t134 -31.5t85.5 -88t29.5 -129.5q0 -24 -3 -47zM210 367q-28 -25 -39 -66h219q-10 43 -37.5 67t-70.5 24q-44 0 -72 -25z
" />
    <glyph glyph-name="f" unicode="f" horiz-adv-x="341" 
d="M357 709l-40 -102q-28 18 -50 18q-24 0 -39 -17t-15 -50v-73h112v-106h-112v-379h-141v379h-52v106h52v81q0 59 24 99t63 59.5t84 19.5q64 0 114 -35z" />
    <glyph glyph-name="g" unicode="g" horiz-adv-x="599" 
d="M402 443v42h136v-476q0 -132 -73 -198t-196 -66q-66 0 -119.5 19t-100.5 59l73 97q63 -55 142 -55q70 0 101.5 34.5t31.5 107.5v32q-47 -52 -131 -52q-70 0 -123.5 32t-82.5 90.5t-29 133.5t29 133.5t82.5 90.5t123.5 32q86 0 136 -56zM205.5 346q-32.5 -38 -32.5 -103
t32.5 -103t87.5 -38q35 0 61.5 15t42.5 43v165q-16 29 -42.5 44t-61.5 15q-55 0 -87.5 -38z" />
    <glyph glyph-name="h" unicode="h" horiz-adv-x="608" 
d="M343 498q102 0 158 -63.5t56 -177.5v-257h-141v242q0 60 -28.5 93.5t-79.5 33.5q-35 0 -63 -16t-44 -43v-310h-141v730h141v-291q53 59 142 59z" />
    <glyph glyph-name="i" unicode="i" horiz-adv-x="262" 
d="M60 0v485h141v-485h-141zM187.5 719q22.5 -21 22.5 -60t-23 -59t-58 -20t-57 20.5t-22 59.5t22.5 59.5t57.5 20.5t57.5 -21z" />
    <glyph glyph-name="j" unicode="j" horiz-adv-x="262" 
d="M148 -202.5q-53 -46.5 -132 -46.5q-57 0 -108 30l48 115q25 -16 53 -16q22 0 36.5 14t14.5 45v546h141v-538q0 -103 -53 -149.5zM187.5 719q22.5 -21 22.5 -60t-23 -59t-58 -20t-57 20.5t-22 59.5t22.5 59.5t57.5 20.5t57.5 -21z" />
    <glyph glyph-name="k" unicode="k" horiz-adv-x="584" 
d="M201 183v-183h-141v730h141v-383l165 138h208l-229 -185l240 -300h-178l-163 218z" />
    <glyph glyph-name="l" unicode="l" horiz-adv-x="262" 
d="M60 0v730h141v-730h-141z" />
    <glyph glyph-name="m" unicode="m" horiz-adv-x="906" 
d="M802.5 439.5q52.5 -58.5 52.5 -163.5v-276h-141v257q0 53 -24.5 82.5t-68.5 29.5q-30 0 -54.5 -14t-40.5 -38q2 -26 2 -41v-276h-141v257q0 53 -24.5 82.5t-68.5 29.5q-31 0 -55.5 -14.5t-37.5 -37.5v-317h-141v485h132v-51q51 64 138 64q54 0 94.5 -19.5t65.5 -57.5
q31 37 73.5 57t92.5 20q94 0 146.5 -58.5z" />
    <glyph glyph-name="n" unicode="n" horiz-adv-x="608" 
d="M501 434.5q56 -63.5 56 -177.5v-257h-141v241q0 61 -28.5 94.5t-79.5 33.5q-35 0 -63 -16t-44 -43v-310h-141v485h137v-51q53 64 146 64q102 0 158 -63.5z" />
    <glyph glyph-name="o" unicode="o" horiz-adv-x="579" 
d="M430 466q59 -32 89.5 -90t30.5 -134t-30.5 -134t-89.5 -90t-141 -32t-140.5 32t-89 90t-30.5 134t30.5 134t89 90t140.5 32t141 -32zM202.5 344.5q-32.5 -38.5 -32.5 -102.5t32.5 -102.5t86.5 -38.5t87 38.5t33 102.5t-33 102.5t-87 38.5t-86.5 -38.5z" />
    <glyph glyph-name="p" unicode="p" horiz-adv-x="599" 
d="M456 467q53 -32 82 -90.5t29 -133.5t-29 -133.5t-82 -90.5t-123 -32q-85 0 -132 52v-279h-141v725h137v-42q50 56 136 56q70 0 123 -32zM244 369q-27 -15 -43 -44v-165q16 -28 43 -43t61 -15q56 0 88.5 38t32.5 103t-32.5 103t-88.5 38q-34 0 -61 -15z" />
    <glyph glyph-name="q" unicode="q" horiz-adv-x="599" 
d="M402 443v42h136v-725h-141v279q-47 -52 -131 -52q-70 0 -123.5 32t-82.5 90.5t-29 133.5t29 133.5t82.5 90.5t123.5 32q86 0 136 -56zM205.5 346q-32.5 -38 -32.5 -103t32.5 -103t87.5 -38q35 0 61.5 15t42.5 43v165q-16 29 -42.5 44t-61.5 15q-55 0 -87.5 -38z" />
    <glyph glyph-name="r" unicode="r" horiz-adv-x="428" 
d="M439 464l-64 -132q-35 22 -72 22q-30 0 -56.5 -17.5t-45.5 -53.5v-283h-141v485h136v-72q51 83 137 83q53 0 106 -32z" />
    <glyph glyph-name="s" unicode="s" horiz-adv-x="463" 
d="M423 427l-76 -93q-53 51 -118 51q-54 0 -54 -35q0 -18 15.5 -28t56.5 -19q57 -12 91.5 -24t61.5 -42.5t27 -83.5q0 -78 -59 -121.5t-148 -43.5q-65 0 -114.5 20.5t-89.5 62.5l89 92q28 -34 56.5 -49t62.5 -15q65 0 65 43q0 20 -17 29t-62 21l-22 6q-65 17 -108 49.5
t-43 96.5q0 69 54.5 110.5t141.5 41.5q113 0 190 -69z" />
    <glyph glyph-name="t" unicode="t" horiz-adv-x="372" 
d="M338 485v-106h-130v-206q0 -66 52 -66q27 0 55 20l51 -89q-58 -47 -136 -47q-75 0 -118.5 44.5t-43.5 121.5v222h-56v106h56v132h140v-132h130z" />
    <glyph glyph-name="u" unicode="u" horiz-adv-x="598" 
d="M401 0v47q-52 -60 -142 -60q-99 0 -153.5 63.5t-54.5 177.5v257h141v-241q0 -61 27 -94.5t75 -33.5q34 0 61 15t42 40v314h141v-485h-137z" />
    <glyph glyph-name="v" unicode="v" horiz-adv-x="570" 
d="M374 0h-173l-201 485h158l131 -348l127 348h154z" />
    <glyph glyph-name="w" unicode="w" horiz-adv-x="869" 
d="M709 0h-165l-101 329l-98 -329h-166l-170 485h151l105 -344l98 344h161l99 -339l93 339h144z" />
    <glyph glyph-name="x" unicode="x" horiz-adv-x="597" 
d="M293 150l-120 -150h-168l200 251l-197 234h182l102 -129l98 129h176l-186 -230l213 -255h-182z" />
    <glyph glyph-name="y" unicode="y" horiz-adv-x="578" 
d="M275 -240h-150l97 216l-219 509h154l136 -336l130 336h151z" />
    <glyph glyph-name="z" unicode="z" horiz-adv-x="485" 
d="M189 115h272v-115h-443v105l252 265h-232v115h409v-104z" />
    <glyph glyph-name="asciitilde" unicode="~" horiz-adv-x="596" 
d="M261 342q25 -12 58 -34q24 -17 40.5 -25.5t33.5 -8.5q57 0 67 78h99q-3 -50 -23 -94t-56.5 -71.5t-87.5 -27.5q-32 0 -57.5 12t-56.5 34q-25 18 -41.5 26t-33.5 8q-57 0 -67 -78h-99q3 51 23 95t56.5 71t86.5 27q33 0 58 -12z" />
    <glyph glyph-name="sterling" unicode="&#xa3;" horiz-adv-x="562" 
d="M457.5 15q-46.5 -31 -110.5 -31q-45 0 -84 15t-92 43l-23 -42l-119 40q30 55 51 116t21 106q0 19 -1 28h-63v104h37q-18 59 -18 126q0 88 57 136.5t157 48.5q171 0 229 -144l-111 -55q-19 49 -47 67t-62 18q-36 0 -59 -17t-24 -52q0 -28 4 -49.5t12 -54.5l6 -24h170v-104
h-155l1 -25q0 -63 -18 -122q83 -46 132 -46q30 0 49.5 16t45.5 53l90 -78q-29 -42 -75.5 -73z" />
    <glyph glyph-name="dotlessi" horiz-adv-x="262" 
d="M60 0v485h141v-485h-141z" />
    <glyph glyph-name="uni0237" horiz-adv-x="262" 
d="M148 -202.5q-53 -46.5 -132 -46.5q-57 0 -108 30l48 115q25 -16 53 -16q22 0 36.5 14t14.5 45v546h141v-538q0 -103 -53 -149.5z" />
    <glyph glyph-name="dotaccent" horiz-adv-x="203" 
d="M158.5 719q22.5 -21 22.5 -60t-23 -59t-58 -20t-57 20.5t-22 59.5t22.5 59.5t57.5 20.5t57.5 -21z" />
    <glyph glyph-name="Euro" unicode="&#x20ac;" horiz-adv-x="556" 
d="M440 6.5q-51 -21.5 -113 -21.5q-216 0 -256 232h-52v80h43q-2 36 -2 55v9h-41v80h45q13 118 70 183.5t177 65.5q84 0 138.5 -34t79.5 -98l-101 -61q-19 43 -47 60.5t-64 17.5q-52 0 -77.5 -33t-33.5 -101h239v-80h-244v-20q0 -30 1 -44h243v-80h-236q11 -64 40 -91.5
t83 -27.5q40 0 64.5 14t54.5 48l85 -77q-45 -55 -96 -76.5z" />
  </font>
</defs>
</svg>
