<svg width="24" height="24" viewBox="0 0 24 24" fill="none" xmlns="http://www.w3.org/2000/svg">
<path d="M0.5 12C0.5 5.64873 5.64873 0.5 12 0.5C18.3513 0.5 23.5 5.64873 23.5 12C23.5 18.3513 18.3513 23.5 12 23.5C5.64873 23.5 0.5 18.3513 0.5 12Z" stroke="white"/>
<path fill-rule="evenodd" clip-rule="evenodd" d="M14.0753 10.4389L13.9696 11.5635H12.5614V16.6239H10.8746V11.5635H9.75V10.4389H10.8746V9.62304C10.8746 9.21455 10.8315 8.5834 11.1284 8.19346C11.441 7.78047 11.8436 7.49989 12.5819 7.49989C13.7843 7.49989 14.2777 7.67111 14.2777 7.67111L14.0326 9.0841C14.0326 9.0841 13.635 8.96912 13.2642 8.96912C12.8937 8.96912 12.5614 9.10153 12.5614 9.47235V10.4389H14.0753Z" fill="white"/>
</svg>
