<svg width="16" height="16" viewBox="0 0 16 16" fill="none" xmlns="http://www.w3.org/2000/svg">
<g id="16x16 / Core / Chevron-up ">
<path id="Icon" fill-rule="evenodd" clip-rule="evenodd" d="M13.3528 10.6881C13.5487 10.4936 13.5498 10.177 13.3553 9.98102L8.98034 5.575L8.89033 5.4922L8.88656 5.48907C8.33394 5.0295 7.52648 5.06568 7.02067 5.57507L2.64538 9.98073L2.59617 10.0393L2.5902 10.0483C2.45373 10.2551 2.47745 10.5186 2.64816 10.6881C2.84411 10.8827 3.16069 10.8816 3.35526 10.6856L7.72776 6.2822L7.77912 6.23735C7.92212 6.12997 8.13458 6.14263 8.27067 6.27968L12.6454 10.6859L12.7036 10.7355L12.7126 10.7416C12.9184 10.8795 13.1821 10.8576 13.3528 10.6881Z" fill="#5E10B1"/>
</g>
</svg>
