<?xml version="1.0" encoding="UTF-8"?><svg id="uuid-4170de19-b5e8-48ca-b9ac-992653fbe973" xmlns="http://www.w3.org/2000/svg" xmlns:xlink="http://www.w3.org/1999/xlink" viewBox="0 0 500 500"><defs><linearGradient id="uuid-3a2958ec-4925-43bf-a771-5dba16ae6666" x1="409.3" y1="164.97" x2="454.32" y2="96.5" gradientUnits="userSpaceOnUse"><stop offset=".14" stop-color="#8d22e9" stop-opacity="0"/><stop offset=".23" stop-color="#8d22e9" stop-opacity=".06"/><stop offset=".39" stop-color="#8d22e9" stop-opacity=".23"/><stop offset=".62" stop-color="#8d22e9" stop-opacity=".5"/><stop offset=".9" stop-color="#8d22e9" stop-opacity=".86"/><stop offset="1" stop-color="#8d22e9"/></linearGradient><linearGradient id="uuid-15c62979-7a31-4ced-bf63-00ed548ba67a" x1="383.51" y1="147.59" x2="428.45" y2="79.24" xlink:href="#uuid-3a2958ec-4925-43bf-a771-5dba16ae6666"/><linearGradient id="uuid-93ace44a-ee90-4640-a510-0a8a5c3bc81a" x1="436.86" y1="182.42" x2="481.64" y2="114.32" xlink:href="#uuid-3a2958ec-4925-43bf-a771-5dba16ae6666"/></defs><path d="m282.24,401.55c-1.35,0-2.07-.07-2.71-.13-.6-.06-1.12-.11-2.25-.11-1.44,0-2.21-.13-2.88-.25-.58-.1-1.04-.18-2.07-.18s-1.43.09-1.99.21c-.69.14-1.48.31-2.97.31-1.19,0-1.79.02-2.38.05-.64.03-1.29.05-2.58.05-1.46,0-2.23-.14-2.91-.26-.57-.1-1.03-.19-2.05-.19-1.17,0-1.74.03-2.34.07-.64.04-1.31.08-2.61.08s-2.08-.07-2.72-.14c-.6-.06-1.12-.11-2.24-.11s-1.7.04-2.28.09c-.66.05-1.34.11-2.67.11s-1.94-.03-2.58-.05c-.59-.03-1.19-.05-2.38-.05s-1.71.04-2.3.08c-.65.05-1.33.1-2.66.1s-2.09-.08-2.73-.14c-.6-.06-1.11-.12-2.23-.12-1.04,0-1.53.08-2.09.17-.67.11-1.43.23-2.86.23-1.34,0-2.03-.06-2.69-.12-.58-.05-1.13-.1-2.27-.1s-1.71.04-2.3.09c-.65.05-1.33.1-2.66.1s-2.12-.09-2.77-.17c-.59-.07-1.09-.14-2.18-.14-1.19,0-1.78.03-2.37.05-.65.03-1.29.06-2.58.06-1.14,0-1.69.05-2.27.1-.66.06-1.34.12-2.68.12s-2.02-.06-2.67-.11c-.59-.05-1.14-.09-2.28-.09-1.37,0-2.09-.08-2.73-.14-.6-.06-1.11-.12-2.22-.12s-1.6.06-2.18.13c-.65.08-1.39.17-2.77.17-1.08,0-1.57.07-2.15.15-.66.09-1.4.19-2.8.19s-2.22-.14-2.89-.25c-.58-.1-1.03-.18-2.06-.18s-1.56.07-2.13.16c-.66.1-1.41.21-2.82.21s-2.16-.11-2.82-.2c-.57-.08-1.07-.15-2.14-.15-1.25,0-1.87,0-2.49,0-.61,0-1.23,0-2.46,0-1.03,0-1.48.08-2.06.18-.68.12-1.45.26-2.9.26-1.23,0-1.85,0-2.46,0-.62,0-1.25,0-2.5,0-1.54,0-2.39-.22-3.07-.39-.55-.14-.95-.24-1.88-.24-1.25,0-1.87,0-2.49,0-.62,0-1.23,0-2.46,0-1.08,0-1.59.06-2.17.14-.65.08-1.39.18-2.78.18-1.12,0-1.64.05-2.24.11-.64.06-1.36.14-2.72.14-1.22,0-1.83,0-2.45.02-.63,0-1.25.02-2.51.02-1.46,0-2.23-.14-2.91-.27-.57-.11-1.02-.19-2.04-.19-1.2,0-1.8.02-2.4.04-.64.02-1.28.04-2.55.04-1.11,0-1.63.05-2.22.12-.64.07-1.37.14-2.73.14s-2.01-.05-2.66-.1c-.59-.05-1.15-.09-2.29-.09-1.36,0-2.09-.08-2.73-.14-.6-.06-1.11-.12-2.23-.12-1.22,0-1.83.01-2.44.02-.63.01-1.26.02-2.52.02-.99,0-1.42.09-1.98.21-.66.14-1.49.32-2.98.32-1.37,0-2.1-.08-2.74-.15-.59-.06-1.11-.12-2.21-.12s-1.71.04-2.31.08c-.65.05-1.32.09-2.64.09s-1.91-.02-2.55-.04c-.6-.02-1.2-.04-2.4-.04s-1.76.03-2.35.06c-.64.03-1.3.07-2.6.07-1.37,0-2.1-.08-2.75-.16-.59-.07-1.1-.12-2.21-.12-1.31,0-1.98-.04-2.62-.08-.6-.04-1.17-.07-2.33-.07-1.08,0-1.58.07-2.16.15-.66.09-1.4.19-2.8.19-1.29,0-1.94-.03-2.59-.06-.59-.03-1.18-.05-2.37-.05-1.35,0-2.06-.07-2.7-.12-.58-.05-1.13-.1-2.26-.1s-1.64.05-2.24.11c-.63.06-1.35.13-2.71.13s-2.1-.08-2.75-.16c-.59-.07-1.1-.13-2.21-.13-1.2,0-1.81.02-2.41.03-.64.02-1.27.04-2.54.04-1.13,0-1.68.05-2.26.1-.63.06-1.35.12-2.69.12s-1.99-.04-2.63-.09c-.6-.04-1.16-.08-2.32-.08-1.3,0-1.95-.03-2.59-.06-.59-.03-1.18-.06-2.36-.06-1.25,0-1.88,0-2.5-.01-.61,0-1.22-.01-2.45-.01-.99,0-1.42.09-1.98.21-.66.14-1.48.32-2.97.32-1.32,0-2.4-1.07-2.4-2.4s1.07-2.4,2.4-2.4c.99,0,1.42-.09,1.98-.21.66-.14,1.48-.32,2.97-.32,1.25,0,1.88,0,2.5.01.61,0,1.22.01,2.45.01,1.3,0,1.95.03,2.59.06.59.03,1.18.06,2.36.06,1.32,0,1.99.04,2.63.09.6.04,1.16.08,2.32.08s1.68-.05,2.26-.1c.63-.06,1.35-.12,2.69-.12,1.2,0,1.81-.02,2.41-.03.64-.02,1.27-.04,2.54-.04,1.38,0,2.1.08,2.75.16.59.07,1.1.13,2.2.13s1.64-.05,2.24-.11c.63-.06,1.35-.13,2.71-.13s2.06.07,2.7.12c.58.05,1.13.1,2.26.1,1.29,0,1.94.03,2.59.06.59.03,1.18.05,2.37.05,1.08,0,1.58-.07,2.16-.15.66-.09,1.4-.19,2.8-.19,1.31,0,1.98.04,2.62.08.6.04,1.17.07,2.33.07,1.38,0,2.1.08,2.75.16.59.07,1.1.12,2.21.12,1.17,0,1.76-.03,2.35-.06.64-.03,1.3-.07,2.6-.07s1.91.02,2.55.04c.6.02,1.2.04,2.4.04s1.72-.04,2.31-.08c.65-.04,1.32-.09,2.64-.09s2.1.08,2.74.15c.59.06,1.11.12,2.21.12.98,0,1.42-.09,1.98-.21.66-.14,1.49-.32,2.98-.32,1.22,0,1.83,0,2.44-.02.63-.01,1.26-.02,2.52-.02,1.36,0,2.09.08,2.73.14.6.06,1.11.12,2.23.12,1.33,0,2.01.05,2.66.1.59.05,1.15.09,2.29.09s1.63-.05,2.22-.12c.64-.07,1.37-.14,2.73-.14,1.2,0,1.8-.02,2.4-.04.64-.02,1.28-.04,2.55-.04,1.46,0,2.23.14,2.91.27.57.11,1.02.19,2.04.19,1.22,0,1.83,0,2.45-.02.63,0,1.25-.02,2.51-.02,1.12,0,1.64-.05,2.24-.11.64-.06,1.36-.14,2.72-.14,1.08,0,1.59-.06,2.17-.14.65-.08,1.39-.18,2.78-.18,1.25,0,1.87,0,2.49,0,.62,0,1.23,0,2.46,0,1.54,0,2.39.22,3.08.39.55.14.95.24,1.88.24,1.23,0,1.85,0,2.46,0,.62,0,1.25,0,2.49,0,1.03,0,1.48-.08,2.06-.18.68-.12,1.45-.26,2.9-.26,1.25,0,1.87,0,2.49,0,.62,0,1.23,0,2.46,0,1.41,0,2.16.11,2.82.2.57.08,1.07.15,2.14.15s1.56-.07,2.13-.16c.66-.1,1.41-.21,2.82-.21s2.22.14,2.89.25c.58.1,1.03.18,2.06.18s1.57-.07,2.15-.15c.66-.09,1.4-.19,2.81-.19,1.09,0,1.6-.06,2.18-.13.65-.08,1.39-.17,2.77-.17s2.09.08,2.73.14c.6.06,1.11.12,2.22.12,1.34,0,2.02.06,2.67.11.59.05,1.14.09,2.28.09s1.69-.05,2.27-.1c.66-.06,1.34-.12,2.68-.12,1.19,0,1.78-.03,2.37-.05.65-.03,1.29-.06,2.58-.06,1.39,0,2.12.09,2.77.17.59.07,1.09.14,2.18.14,1.15,0,1.7-.04,2.29-.09.65-.05,1.33-.1,2.66-.1s2.03.06,2.69.12c.58.05,1.13.1,2.27.1,1.04,0,1.53-.08,2.09-.17.67-.11,1.43-.23,2.86-.23s2.09.08,2.73.14c.6.06,1.11.12,2.23.12s1.71-.04,2.3-.08c.65-.05,1.33-.1,2.65-.1s1.94.03,2.58.05c.59.03,1.19.05,2.38.05s1.7-.04,2.28-.09c.66-.05,1.34-.11,2.67-.11s2.08.07,2.72.14c.6.06,1.12.11,2.24.11s1.74-.03,2.34-.07c.64-.04,1.31-.08,2.61-.08,1.46,0,2.23.14,2.91.26.57.1,1.03.19,2.05.19,1.19,0,1.79-.02,2.38-.05.64-.03,1.29-.05,2.58-.05.99,0,1.43-.09,1.99-.21.69-.14,1.48-.31,2.97-.31s2.21.13,2.88.25c.58.1,1.04.18,2.07.18,1.36,0,2.08.07,2.71.13.6.06,1.12.11,2.25.11.96,0,1.37-.1,1.93-.23.67-.16,1.51-.36,3.03-.36,1.25,0,1.87,0,2.5.01.61,0,1.23,0,2.46,0,1.33,0,2.01.05,2.67.1.59.05,1.15.09,2.29.09,1.41,0,2.16.11,2.82.2.57.08,1.07.15,2.14.15,1.18,0,1.77-.03,2.36-.06.65-.03,1.3-.07,2.6-.07.98,0,1.42-.09,1.97-.21.66-.14,1.49-.32,2.98-.32s2.4.23,3.09.41c.54.14.94.25,1.86.25,1.23,0,1.84,0,2.45-.01.62,0,1.25-.01,2.5-.01,1,0,1.44-.09,2-.2.69-.14,1.47-.3,2.96-.3s2.32.18,2.98.32c.55.12.99.21,1.98.21,1.05,0,1.54-.08,2.1-.17.67-.11,1.42-.23,2.85-.23,1.32,0,1.99.05,2.64.09.59.04,1.16.08,2.31.08s1.79-.02,2.39-.04c.64-.02,1.28-.05,2.57-.05s1.95.03,2.59.06c.59.03,1.18.06,2.36.06,1.06,0,1.55-.07,2.12-.16.67-.1,1.42-.21,2.84-.21,1.33,0,2.01.05,2.66.1.59.04,1.15.09,2.29.09,1.39,0,2.13.09,2.78.18.58.07,1.09.14,2.18.14,1.02,0,1.47-.08,2.04-.19.68-.13,1.46-.27,2.92-.27,1.3,0,1.95.03,2.59.06.59.03,1.18.06,2.36.06s1.64-.05,2.24-.11c.64-.06,1.36-.13,2.71-.13,1.46,0,2.24.15,2.92.27.57.11,1.02.19,2.04.19,1.19,0,1.78-.03,2.38-.05.64-.03,1.29-.05,2.58-.05,1.12,0,1.64-.05,2.24-.11.64-.06,1.36-.13,2.72-.13s2.15.1,2.81.19c.58.08,1.08.15,2.15.15,1.31,0,1.97.04,2.62.08.6.03,1.17.07,2.34.07,1.03,0,1.48-.08,2.06-.18.68-.12,1.45-.26,2.9-.26s2.19.12,2.85.23c.57.09,1.05.17,2.11.17s1.58-.07,2.16-.14c.65-.09,1.4-.19,2.79-.19,1.27,0,1.91.02,2.54.03.6.02,1.21.03,2.42.03,1.42,0,2.17.11,2.83.21.57.08,1.07.16,2.13.16s1.59-.06,2.17-.14c.65-.08,1.39-.18,2.79-.18,1.1,0,1.61-.06,2.2-.13.64-.07,1.38-.16,2.75-.16s2.03.06,2.69.12c.58.05,1.14.1,2.27.1,1.35,0,2.07.07,2.71.13.58.06,1.12.11,2.25.11s1.64-.05,2.24-.11c.64-.06,1.36-.14,2.72-.14,1.17,0,1.74-.03,2.35-.06.64-.04,1.31-.07,2.61-.07,1.44,0,2.2.13,2.87.24.56.09,1.05.17,2.09.17s1.45-.09,2.02-.2c.69-.14,1.47-.29,2.94-.29s2.32.18,2.98.32c.56.12.99.21,1.98.21,1.09,0,1.6-.06,2.18-.14.65-.08,1.39-.17,2.78-.17,1.15,0,1.71-.04,2.3-.09.66-.05,1.33-.1,2.67-.1s1.9.01,2.54.03c.61.01,1.21.03,2.43.03,1.49,0,2.28.17,2.98.31.56.12,1,.21,1.99.21,1.32,0,2.4,1.07,2.4,2.4s-1.07,2.4-2.4,2.4c-1.49,0-2.28-.17-2.98-.31-.56-.12-1-.21-1.99-.21-1.27,0-1.9-.01-2.54-.03-.61-.01-1.21-.03-2.43-.03-1.15,0-1.71.04-2.3.09-.66.05-1.33.1-2.67.1-1.09,0-1.6.06-2.19.14-.65.08-1.39.17-2.77.17-1.49,0-2.32-.18-2.98-.32-.55-.12-.99-.21-1.98-.21s-1.45.09-2.02.2c-.69.14-1.47.29-2.94.29s-2.2-.13-2.87-.24c-.56-.09-1.04-.17-2.09-.17-1.17,0-1.74.03-2.35.06-.64.04-1.31.07-2.61.07-1.12,0-1.64.05-2.24.11-.64.06-1.36.14-2.72.14s-2.07-.07-2.71-.13c-.6-.06-1.12-.11-2.25-.11-1.35,0-2.03-.06-2.69-.12-.58-.05-1.13-.1-2.27-.1s-1.61.06-2.2.13c-.64.08-1.38.16-2.75.16-1.09,0-1.59.06-2.18.14-.65.08-1.39.18-2.78.18s-2.17-.11-2.83-.21c-.57-.08-1.07-.16-2.13-.16-1.27,0-1.91-.02-2.54-.03-.6-.02-1.21-.03-2.42-.03-1.08,0-1.58.07-2.16.14-.65.09-1.4.19-2.79.19s-2.19-.12-2.85-.23c-.57-.09-1.05-.17-2.11-.17s-1.48.08-2.06.18c-.68.12-1.45.26-2.9.26-1.31,0-1.97-.04-2.62-.08-.6-.03-1.17-.07-2.34-.07-1.4,0-2.15-.1-2.81-.19-.58-.08-1.08-.15-2.15-.15s-1.64.05-2.24.11c-.64.06-1.36.13-2.72.13-1.19,0-1.78.03-2.38.05-.65.03-1.29.05-2.58.05-1.46,0-2.24-.15-2.92-.28-.57-.11-1.02-.19-2.04-.19-1.12,0-1.64.05-2.24.11-.64.06-1.36.13-2.71.13s-1.95-.03-2.59-.06c-.59-.03-1.18-.06-2.36-.06-1.02,0-1.47.08-2.04.19-.68.13-1.46.27-2.91.27s-2.13-.09-2.78-.18c-.58-.07-1.09-.14-2.17-.14-1.33,0-2.01-.05-2.66-.1-.59-.04-1.15-.09-2.29-.09-1.06,0-1.55.07-2.12.16-.67.1-1.42.21-2.84.21-1.3,0-1.95-.03-2.59-.06-.59-.03-1.18-.06-2.36-.06s-1.79.02-2.39.04c-.64.02-1.28.05-2.57.05s-1.99-.05-2.64-.09c-.59-.04-1.16-.08-2.31-.08-1.05,0-1.54.08-2.1.17-.67.11-1.42.23-2.85.23s-2.31-.18-2.98-.32c-.55-.12-.99-.21-1.98-.21s-1.44.09-2,.2c-.69.14-1.47.3-2.96.3-1.23,0-1.84,0-2.45.01-.62,0-1.25.01-2.5.01-1.55,0-2.4-.23-3.09-.41-.54-.14-.94-.25-1.86-.25-.98,0-1.42.09-1.97.21-.66.14-1.49.32-2.98.32-1.18,0-1.77.03-2.36.06-.65.03-1.3.07-2.6.07-1.41,0-2.16-.11-2.82-.2-.57-.08-1.07-.15-2.14-.15-1.33,0-2.01-.05-2.67-.1-.59-.05-1.15-.09-2.29-.09-1.25,0-1.87,0-2.5-.01-.61,0-1.23,0-2.46,0-.96,0-1.37.1-1.93.23-.67.16-1.51.36-3.03.36Z" fill="#420656"/><path d="m400.79,164.26c-2.47,0-2.47-.22-4.93-.22s-2.47-.32-4.93-.32-2.47.61-4.94.61-2.47-.46-4.94-.46-2.47-.07-4.94-.07-2.47.15-4.93.15-2.47.09-4.93.09-2.47-.31-4.94-.31-2.47.6-4.94.6-2.47-.53-4.94-.53-2.47.34-4.94.34-2.47.05-4.94.05-2.47-.42-4.94-.42-2.47.05-4.94.05-2.47.43-4.94.43-2.47.02-4.94.02-2.47-.39-4.94-.39-2.47-.16-4.94-.16-2.47.18-4.94.18-2.47.32-4.94.32-2.47-.47-4.94-.47-2.47.17-4.94.17-2.47.02-4.93.02-2.47-.01-4.93-.01-2.47-.21-4.93-.21-2.47.1-4.93.1-2.47.14-4.94.14-2.47.05-4.94.05-2.47.13-4.93.13-2.47-.17-4.93-.17-2.47-.04-4.93-.04-2.47-.17-4.94-.17-2.47.58-4.94.58-2.47-.56-4.93-.56-2.47.16-4.94.16-2.47-.26-4.94-.26-2.47.42-4.94.42-2.47-.4-4.94-.4-2.47.01-4.94.01-2.47.02-4.94.02-2.47.5-4.94.5-2.47-.44-4.94-.44-2.47-.1-4.94-.1-2.47.2-4.94.2-2.47-.17-4.94-.17-2.47.33-4.94.33-2.47.27-4.94.27-2.47-.09-4.94-.09-2.47.1-4.94.1-2.47-.56-4.93-.56-2.47.21-4.94.21-2.47.27-4.94.27-2.47-.38-4.94-.38-2.47.45-4.94.45-2.47-.27-4.94-.27-2.47.14-4.94.14-2.47-.26-4.94-.26-2.47.02-4.94.02-2.47.18-4.94.18-2.47-.24-4.95-.24-2.47-.18-4.95-.18c-1.81,0-3.43.91-5,1.56s-3,1.61-4.23,2.84-2.34,2.53-3.01,4.16-1.21,3.26-1.21,5.07c0,2.49.36,2.49.36,4.97s.01,2.49.01,4.97-.06,2.49-.06,4.97-.06,2.48-.06,4.97.06,2.48.06,4.97-.2,2.48-.2,4.97.31,2.48.31,4.97-.15,2.49-.15,4.97-.41,2.49-.41,4.97.06,2.48.06,4.97.27,2.48.27,4.97.02,2.49.02,4.97.26,2.49.26,4.97-.02,2.49-.02,4.97-.18,2.48-.18,4.97-.42,2.49-.42,4.97.57,2.49.57,4.97-.38,2.49-.38,4.97.27,2.49.27,4.97.02,2.49.02,4.97-.27,2.49-.27,4.97.09,2.49.09,4.97-.22,2.49-.22,4.97,0,2.49,0,4.97.23,2.49.23,4.97.14,2.49.14,4.97-.31,2.49-.31,4.97.15,2.49.15,4.98.15,2.49.15,4.98.05,2.49.05,4.98.09,2.49.09,4.97-.51,2.49-.51,4.97.06,2.49.06,4.97.47,2.49.47,4.97-.29,2.49-.29,4.98.23,2.49.23,4.98-.45,2.49-.45,4.98.05,2.49.05,4.98.13,2.49.13,4.98-.08,2.49-.08,4.98-.12,2.49-.12,4.98-1.56,3.27.2,5.03,2.53-.3,5.01-.3,2.48-.07,4.96-.07,2.48.42,4.97.42,2.48-.2,4.97-.2,2.48-.14,4.96-.14,2.48.09,4.96.09,2.48-.11,4.96-.11,2.48.44,4.96.44,2.48-.18,4.97-.18,2.48-.2,4.97-.2,2.48-.11,4.96-.11,2.48.24,4.96.24,2.48-.15,4.96-.15,2.48.43,4.97.43,2.48-.32,4.97-.32,2.48-.15,4.97-.15,2.48.49,4.96.49,2.48-.15,4.97-.15,2.48-.31,4.97-.31,2.48.51,4.97.51,2.48.01,4.97.01,2.48-.63,4.97-.63,2.48.51,4.97.51,2.48-.05,4.97-.05,2.48.11,4.97.11,2.48-.57,4.97-.57,2.48.56,4.97.56,2.48-.24,4.96-.24,2.48-.3,4.96-.3,2.48.5,4.96.5,2.48,0,4.96,0,2.48.15,4.97.15,2.48-.32,4.97-.32,2.48-.18,4.96-.18,2.48.02,4.96.02,2.48.19,4.96.19,2.48.22,4.97.22,2.48-.46,4.96-.46,2.48.34,4.96.34,2.48-.01,4.97-.01,2.48.21,4.97.21,2.48-.59,4.97-.59,2.48.5,4.97.5,2.48-.41,4.97-.41,2.48.38,4.97.38,2.48-.47,4.97-.47,2.48.17,4.97.17,2.48.04,4.97.04,2.48-.17,4.97-.17,2.48.2,4.97.2,2.48.02,4.97.02,2.48-.07,4.97-.07,2.48-.11,4.97-.11,2.48.37,4.97.37,2.48-.22,4.96-.22,2.48-.25,4.97-.25,2.48.14,4.97.14,2.48.19,4.97.19,2.49-.35,4.97-.35,2.49.57,4.97.57,2.49-.2,4.97-.2,2.49-.39,4.97-.39,2.48.56,4.97.56,2.49-.31,4.97-.31,2.49-.14,4.98-.14,2.98,1.73,4.74-.03.25-2.24.25-4.73.03-2.49.03-4.97-.33-2.49-.33-4.97.52-2.48.52-4.97-.05-2.48-.05-4.97.11-2.48.11-4.97-.14-2.48-.14-4.97.17-2.49.17-4.97-.51-2.49-.51-4.97.15-2.48.15-4.97.05-2.48.05-4.97-.14-2.49-.14-4.97.43-2.49.43-4.97-.24-2.49-.24-4.97.21-2.48.21-4.97-.04-2.49-.04-4.97-.02-2.49-.02-4.97-.35-2.49-.35-4.97.42-2.49.42-4.97,0-2.49,0-4.97-.29-2.49-.29-4.97-.1-2.49-.1-4.97.37-2.49.37-4.97-.48-2.49-.48-4.97-.05-2.49-.05-4.97.33-2.49.33-4.97.18-2.49.18-4.97-.51-2.49-.51-4.98.35-2.49.35-4.98-.29-2.49-.29-4.98.42-2.49.42-4.97.08-2.49.08-4.97-.1-2.49-.1-4.97-.07-2.49-.07-4.97.13-2.49.13-4.98-.28-2.49-.28-4.98.03-2.49.03-4.98.3-2.49.3-4.98-.15-2.49-.15-4.98-.23-2.49-.23-4.98-.2-2.49-.2-4.98.42-2.49.42-4.98c0-1.81-.39-3.57-1.04-5.14s-2-2.82-3.22-4.04-2.41-2.55-4.04-3.23-3.33-.64-5.14-.64Z" fill="#fff"/><path d="m87.62,389.34c-.92,0-1.97-.33-3.06-1.42-2.13-2.14-1.54-4.09-1.18-5.25.15-.5.28-.92.28-1.48,0-1.3.03-1.96.07-2.61.03-.59.06-1.19.06-2.37,0-1.29.02-1.93.04-2.57.02-.6.04-1.2.04-2.41s-.03-1.77-.06-2.37c-.03-.65-.07-1.3-.07-2.61,0-1.22-.01-1.83-.02-2.44-.01-.63-.03-1.27-.03-2.54,0-1.46.14-2.23.26-2.92.1-.58.19-1.03.19-2.06,0-1.13-.05-1.69-.1-2.27-.06-.63-.12-1.35-.12-2.71s.09-2.12.16-2.77c.07-.59.13-1.11.13-2.21,0-1.02-.09-1.47-.19-2.04-.13-.69-.28-1.47-.28-2.94,0-1.21-.01-1.82-.03-2.43-.02-.64-.03-1.27-.03-2.54,0-1.49.16-2.27.3-2.97.12-.56.21-1.01.21-2.01,0-1.2-.02-1.8-.04-2.4-.02-.64-.04-1.28-.04-2.57s-.01-1.83-.02-2.44c-.01-.63-.02-1.27-.02-2.53,0-1.17-.03-1.74-.07-2.35-.04-.65-.08-1.31-.08-2.63,0-1.17-.03-1.74-.07-2.35-.04-.65-.08-1.31-.08-2.63,0-1.39.09-2.13.17-2.78.07-.59.14-1.1.14-2.19,0-1.18-.03-1.75-.06-2.36-.04-.64-.07-1.31-.07-2.62,0-1.13-.05-1.69-.1-2.27-.06-.63-.12-1.35-.12-2.7v-4.97c0-1.35.06-2.03.12-2.7.05-.58.1-1.14.1-2.28,0-1.2-.02-1.8-.04-2.4-.02-.64-.05-1.29-.05-2.57,0-1.37.08-2.1.15-2.75.07-.6.12-1.11.12-2.23,0-1.23,0-1.85,0-2.47,0-.63,0-1.25,0-2.51,0-1.11-.06-1.63-.12-2.23-.07-.64-.15-1.37-.15-2.74s.11-2.18.21-2.84c.09-.57.16-1.07.16-2.13,0-.97-.1-1.41-.22-1.95-.15-.67-.34-1.51-.34-3.02s.13-2.21.24-2.88c.09-.56.17-1.05.17-2.09,0-1.33.05-2,.09-2.65.04-.6.08-1.16.08-2.32,0-1.25,0-1.88.01-2.51,0-.62.01-1.23.01-2.46,0-1.12-.05-1.64-.12-2.24-.07-.64-.14-1.37-.14-2.74,0-1.23,0-1.85,0-2.47,0-.63,0-1.25,0-2.5,0-1.11-.06-1.63-.12-2.23-.07-.64-.15-1.37-.15-2.74,0-1.21-.01-1.82-.03-2.43-.02-.64-.03-1.27-.03-2.54,0-1.44.13-2.21.24-2.88.09-.56.17-1.05.17-2.09,0-1.32.04-1.99.08-2.63.04-.6.07-1.17.07-2.34,0-1.09-.06-1.6-.14-2.19-.08-.65-.17-1.39-.17-2.78s.05-2.02.11-2.68c.05-.59.09-1.15.09-2.29,0-1.21-.01-1.82-.03-2.42-.02-.64-.03-1.27-.03-2.54s.02-1.91.03-2.55c.02-.61.03-1.21.03-2.42,0-1.27.01-1.91.03-2.54.01-.61.03-1.21.03-2.43s0-1.85,0-2.47c0-.62,0-1.25,0-2.5,0-1.07-.07-1.57-.16-2.14-.1-.66-.2-1.41-.2-2.83,0-2.31.75-4.41,1.4-5.99.88-2.11,2.28-3.68,3.53-4.93,1.48-1.48,3.11-2.57,5-3.36.28-.12.56-.24.85-.37,1.45-.64,3.1-1.37,5.07-1.37,1.32,0,2,.05,2.65.1.59.04,1.15.08,2.3.08,1.35,0,2.07.07,2.71.13.6.06,1.12.11,2.24.11s1.7-.04,2.29-.09c.65-.05,1.33-.1,2.65-.1,1.23,0,1.84,0,2.45,0,.62,0,1.24,0,2.49,0,1.36,0,2.09.08,2.73.15.59.06,1.11.12,2.22.12,1.17,0,1.74-.03,2.34-.06.64-.04,1.3-.07,2.6-.07s2.09.08,2.73.15c.59.06,1.11.12,2.21.12,1.02,0,1.47-.08,2.04-.19.68-.12,1.45-.26,2.9-.26s2.17.11,2.83.21c.57.09,1.06.16,2.11.16,1.1,0,1.62-.06,2.21-.12.64-.07,1.36-.15,2.73-.15,1.13,0,1.69-.05,2.27-.09.66-.06,1.33-.11,2.67-.11,1.5,0,2.33.19,3,.34.54.12.97.22,1.94.22,1.19,0,1.78-.02,2.37-.05.64-.03,1.28-.05,2.57-.05s1.92.02,2.55.04c.6.02,1.19.04,2.39.04,1.1,0,1.62-.06,2.21-.12.64-.07,1.37-.15,2.73-.15,1.08,0,1.58-.07,2.15-.14.65-.09,1.39-.18,2.78-.18,1.32,0,1.98.04,2.63.09.59.04,1.15.08,2.31.08s1.69-.04,2.28-.09c.65-.05,1.33-.11,2.66-.11s1.93.03,2.57.05c.59.03,1.18.05,2.37.05,1.45,0,2.21.14,2.89.26.57.1,1.03.18,2.05.18s1.43-.09,1.99-.2c.69-.14,1.47-.3,2.95-.3,1.23,0,1.84,0,2.45,0,.62,0,1.24,0,2.48,0s1.84,0,2.46,0c.62,0,1.24,0,2.48,0,1.43,0,2.18.12,2.85.23.56.09,1.04.17,2.09.17s1.49-.08,2.06-.18c.67-.12,1.43-.25,2.87-.25,1.36,0,2.08.08,2.72.14.6.06,1.11.12,2.22.12s1.72-.04,2.31-.07c.64-.04,1.31-.08,2.62-.08,1.5,0,2.33.19,3,.34.54.12.97.22,1.93.22s1.36-.09,1.92-.23c.67-.16,1.5-.35,3.01-.35,1.32,0,1.99.05,2.64.09.59.04,1.15.08,2.3.08,1.25,0,1.88.01,2.5.02.61,0,1.21.02,2.43.02,1.32,0,1.98.05,2.63.09.59.04,1.15.08,2.3.08s1.74-.03,2.34-.06c.64-.03,1.3-.07,2.6-.07,1.21,0,1.82-.01,2.42-.02.63-.01,1.26-.02,2.51-.02,1.17,0,1.73-.03,2.33-.07.64-.04,1.3-.07,2.61-.07,1.19,0,1.78-.02,2.37-.05.64-.02,1.28-.05,2.56-.05s2.02.06,2.67.12c.58.05,1.13.1,2.26.1,1.24,0,1.86,0,2.48,0,.61,0,1.23,0,2.46,0s1.83,0,2.45-.01c.62,0,1.24-.01,2.49-.01,1.15,0,1.71-.04,2.31-.08.65-.04,1.31-.09,2.63-.09,1.46,0,2.24.15,2.92.28.56.11,1.01.19,2.02.19,1.08,0,1.58-.06,2.16-.14.65-.08,1.39-.18,2.77-.18,1.15,0,1.7-.04,2.29-.08.65-.05,1.32-.1,2.65-.1s1.98.04,2.63.09c.59.04,1.16.08,2.31.08,1.42,0,2.18.12,2.84.22.56.09,1.05.17,2.09.17,1.22,0,1.83,0,2.45-.01.62,0,1.24-.01,2.49-.01,1.03,0,1.48-.08,2.06-.18.67-.12,1.44-.25,2.88-.25,1.21,0,1.82-.01,2.42-.02.63-.01,1.26-.02,2.52-.02,1.44,0,2.2.13,2.87.25.58.1,1.03.18,2.06.18,1.21,0,1.82-.01,2.42-.02.63-.01,1.26-.02,2.51-.02,1.07,0,1.57-.07,2.14-.15.66-.09,1.4-.19,2.8-.19,1.49,0,2.31.18,2.97.32.55.12.99.21,1.97.21s1.35-.1,1.9-.23c.67-.16,1.51-.37,3.04-.37,1.38,0,2.12.09,2.76.17.58.07,1.09.13,2.17.13,1.19,0,1.78-.02,2.38-.04.64-.02,1.28-.05,2.56-.05,1.16,0,1.73-.03,2.33-.07.64-.04,1.3-.08,2.61-.08s1.9.02,2.53.04c.6.02,1.2.03,2.4.03,1.45,0,2.22.14,2.9.27.57.1,1.02.19,2.03.19.94,0,1.34-.1,1.89-.23.67-.17,1.52-.37,3.04-.37,1.39,0,2.12.1,2.78.18.58.08,1.08.14,2.16.14,1.34,0,2.05.06,2.68.12.58.05,1.13.1,2.25.1v2.4l.06-2.4c2.01,0,4,0,6,.83,1.89.78,3.23,2.14,4.41,3.34l.81.81c1.2,1.18,2.56,2.53,3.34,4.42.8,1.93,1.23,4.03,1.23,6.06,0,1.45-.13,2.21-.24,2.89-.09.56-.18,1.05-.18,2.1,0,1.15.04,1.71.09,2.3.05.66.11,1.34.11,2.68,0,1.13.05,1.69.1,2.27.06.64.12,1.35.12,2.71,0,1.17.03,1.74.07,2.34.04.65.08,1.32.08,2.63,0,1.39-.09,2.13-.17,2.78-.07.59-.13,1.1-.13,2.2,0,1.26,0,1.89-.01,2.52,0,.62-.01,1.23-.01,2.46,0,1.11.06,1.63.12,2.22.07.65.15,1.38.15,2.75,0,1.31-.04,1.97-.07,2.61-.03.59-.06,1.18-.06,2.36s.02,1.81.04,2.42c.02.64.04,1.28.04,2.56,0,1.19.02,1.79.05,2.39.03.65.05,1.29.05,2.58s-.02,1.92-.04,2.57c-.02.6-.04,1.2-.04,2.41,0,1.44-.13,2.21-.24,2.88-.1.58-.18,1.04-.18,2.09,0,1.1.06,1.61.13,2.21.08.65.16,1.38.16,2.77s-.11,2.16-.2,2.83c-.08.58-.15,1.08-.15,2.15,0,1,.09,1.44.21,2,.14.7.31,1.48.31,2.97,0,1.33-.05,2.01-.1,2.66-.04.59-.09,1.15-.09,2.31,0,1.4-.1,2.14-.18,2.8-.08.58-.14,1.09-.14,2.18,0,1.22.01,1.83.02,2.44.01.63.02,1.27.02,2.53,0,1.01.09,1.46.2,2.03.13.69.29,1.47.29,2.95s-.11,2.17-.21,2.84c-.09.57-.16,1.07-.16,2.13,0,1.2.02,1.79.05,2.39.03.65.05,1.29.05,2.58,0,1.1.06,1.61.13,2.21.08.65.16,1.38.16,2.77v4.97c0,1.44-.12,2.21-.23,2.88-.09.56-.17,1.05-.17,2.09s.07,1.57.15,2.15c.09.66.2,1.41.2,2.82,0,1.23,0,1.85.01,2.46,0,.63.01,1.26.01,2.51s0,1.84.02,2.45c0,.63.02,1.26.02,2.52,0,1.34-.06,2.03-.11,2.69-.05.59-.1,1.14-.1,2.28s.05,1.68.11,2.26c.06.64.13,1.36.13,2.71,0,1.45-.13,2.22-.25,2.9-.1.58-.18,1.04-.18,2.07,0,1.17.03,1.74.07,2.34.04.65.08,1.31.08,2.62s-.01,1.9-.03,2.54c-.01.61-.03,1.22-.03,2.43,0,1.31-.04,1.98-.08,2.63-.04.6-.07,1.17-.07,2.34,0,1,.09,1.44.21,2,.14.69.31,1.48.31,2.97,0,1.32-.05,2-.09,2.65-.04.6-.08,1.16-.08,2.32s.03,1.75.06,2.35c.04.64.07,1.31.07,2.62s-.03,1.94-.06,2.59c-.03.59-.05,1.19-.05,2.37s.01,1.83.02,2.43c.01.63.03,1.27.03,2.53,0,1.49-.17,2.32-.31,2.98-.12.56-.21,1-.21,1.99,0,1.08.07,1.59.14,2.17.09.66.19,1.4.19,2.8,0,1.26,0,1.88-.01,2.51,0,.62-.01,1.23-.01,2.46,0,.54.12.91.26,1.37.45,1.41.76,3.08-1.22,5.05-2.19,2.18-4.1,1.44-5.12,1.04-.46-.18-.8-.31-1.31-.31-1.18,0-1.75.03-2.36.07-.64.04-1.31.07-2.62.07-1.09,0-1.6.06-2.19.14-.65.08-1.39.17-2.78.17-1.51,0-2.34-.19-3.01-.34-.55-.12-.98-.22-1.96-.22-1.06,0-1.55.08-2.12.16-.67.1-1.43.22-2.85.22-1.15,0-1.7.04-2.29.09-.66.05-1.34.11-2.68.11-1.51,0-2.35-.19-3.02-.34-.55-.12-.98-.22-1.95-.22-1.08,0-1.57.07-2.15.15-.66.09-1.41.2-2.82.2-1.33,0-2.01-.05-2.66-.1-.59-.04-1.15-.09-2.31-.09-1.31,0-1.97-.04-2.61-.07-.6-.03-1.18-.06-2.35-.06s-1.64.05-2.24.11c-.64.07-1.36.14-2.73.14-1.13,0-1.68.05-2.27.1-.63.06-1.35.12-2.7.12-1.42,0-2.17-.11-2.84-.21-.57-.09-1.07-.16-2.13-.16-1.19,0-1.79.03-2.38.05-.65.03-1.29.05-2.59.05-1.21,0-1.81.02-2.42.03-.64.02-1.28.04-2.55.04s-1.88,0-2.5-.01c-.62,0-1.23,0-2.46,0-1.34,0-2.02-.05-2.67-.11-.59-.05-1.15-.09-2.29-.09s-1.73.04-2.32.08c-.65.04-1.32.09-2.65.09s-1.89,0-2.52-.02c-.61,0-1.22-.02-2.45-.02-1.32,0-1.99-.04-2.64-.09-.6-.04-1.16-.08-2.32-.08-1.02,0-1.47.08-2.04.19-.69.13-1.46.27-2.93.27s-2.18-.11-2.84-.22c-.57-.09-1.06-.16-2.12-.16s-1.53.08-2.1.17c-.67.11-1.43.24-2.87.24s-2.26-.16-2.96-.3c-.56-.11-1.01-.2-2.01-.2s-1.37.1-1.93.23c-.68.16-1.52.36-3.04.36-1.34,0-2.03-.06-2.69-.12-.59-.05-1.14-.1-2.28-.1-1.23,0-1.85,0-2.47,0-.62,0-1.25,0-2.5,0-1.41,0-2.15-.1-2.81-.19-.58-.08-1.08-.15-2.15-.15s-1.47.08-2.05.19c-.68.13-1.46.27-2.92.27-1.35,0-2.07-.06-2.7-.12-.58-.05-1.13-.1-2.27-.1-1.33,0-2.01-.05-2.67-.1-.59-.05-1.15-.09-2.3-.09-1.25,0-1.88,0-2.5,0-.62,0-1.23,0-2.46,0-1.15,0-1.71.04-2.3.09-.65.05-1.33.1-2.66.1-1.09,0-1.59.06-2.18.14-.65.08-1.39.18-2.79.18-1.31,0-1.98-.04-2.62-.08-.6-.04-1.17-.07-2.34-.07h-4.96c-1.48,0-2.26-.16-2.96-.3-.56-.11-1.01-.2-2.01-.2-1.1,0-1.61.06-2.2.13-.65.08-1.38.17-2.77.17-1.12,0-1.64.05-2.25.11-.64.06-1.36.13-2.71.13-1.51,0-2.34-.19-3.01-.34-.55-.12-.98-.22-1.96-.22s-1.38.09-1.95.22c-.67.15-1.51.35-3.02.35-1.3,0-1.95-.03-2.59-.06-.59-.03-1.19-.05-2.37-.05s-1.82.01-2.43.03c-.63.01-1.27.03-2.54.03-1.48,0-2.27-.16-2.96-.3-.56-.12-1-.21-2-.21-.94,0-1.34.1-1.89.24-.68.17-1.53.39-3.07.39-1.25,0-1.87,0-2.5,0-.62,0-1.23,0-2.47,0-1.49,0-2.27-.16-2.97-.3-.56-.12-1-.21-2-.21-1.09,0-1.6.06-2.18.14-.65.08-1.39.18-2.79.18-1.17,0-1.74.03-2.34.07-.65.04-1.31.08-2.62.08-1.48,0-2.26-.15-2.95-.29-.57-.11-1.01-.2-2.02-.2-1.17,0-1.74.03-2.34.07-.65.04-1.31.08-2.63.08-1.09,0-1.59.07-2.17.14-.65.08-1.4.18-2.79.18s-2.21-.13-2.89-.25c-.58-.1-1.04-.18-2.07-.18-1.17,0-1.74.03-2.34.07-.64.04-1.31.08-2.62.08s-2.08-.07-2.71-.13c-.6-.06-1.13-.11-2.25-.11-1.19,0-1.78.03-2.37.05-.65.03-1.29.06-2.59.06-1.15,0-1.7.04-2.29.09-.66.05-1.34.11-2.67.11-1.15,0-1.71.04-2.31.08-.65.05-1.33.1-2.66.1-1.45,0-2.22-.14-2.9-.26-.58-.1-1.03-.18-2.06-.18-1.19,0-1.79.03-2.38.05-.65.03-1.29.06-2.58.06s-1.92-.02-2.57-.04c-.6-.02-1.2-.04-2.4-.04s-1.75.03-2.35.06c-.64.04-1.31.07-2.61.07-1.14,0-1.7.04-2.29.09-.66.05-1.34.11-2.68.11-1.44,0-2.21-.13-2.88-.24-.58-.1-1.04-.18-2.08-.18-1.21,0-1.81.02-2.41.03-.64.02-1.28.04-2.55.04-.45,0-.78.14-1.33.39-.53.24-1.35.61-2.32.61Zm12.01-223.25c-.96,0-2.01.47-3.12.96-.32.14-.64.28-.95.41-1.3.54-2.43,1.3-3.45,2.32-.92.92-1.94,2.04-2.49,3.38-.51,1.23-1.03,2.69-1.03,4.15,0,1.07.07,1.57.16,2.14.1.66.2,1.41.2,2.83,0,1.24,0,1.86,0,2.47,0,.62,0,1.25,0,2.5s-.01,1.91-.03,2.54c-.01.61-.03,1.21-.03,2.43s-.02,1.91-.03,2.55c-.02.61-.03,1.21-.03,2.42s.01,1.82.03,2.42c.02.64.03,1.27.03,2.54,0,1.34-.05,2.02-.11,2.68-.05.59-.09,1.15-.09,2.29s.06,1.6.14,2.19c.08.65.17,1.39.17,2.78,0,1.32-.04,1.99-.08,2.63-.04.6-.07,1.17-.07,2.34,0,1.44-.13,2.21-.24,2.88-.09.56-.17,1.05-.17,2.09,0,1.21.01,1.82.03,2.43.02.64.03,1.27.03,2.54,0,1.11.06,1.63.12,2.23.07.64.15,1.37.15,2.74,0,1.23,0,1.85,0,2.47,0,.63,0,1.25,0,2.5,0,1.12.05,1.64.12,2.24.07.64.14,1.37.14,2.74,0,1.25,0,1.88-.01,2.51,0,.62-.01,1.23-.01,2.46,0,1.33-.05,2-.09,2.65-.04.6-.08,1.16-.08,2.32,0,1.44-.13,2.21-.24,2.88-.09.56-.17,1.05-.17,2.09,0,.97.1,1.41.22,1.95.15.67.34,1.51.34,3.02,0,1.42-.11,2.18-.21,2.84-.09.57-.16,1.07-.16,2.13s.06,1.63.12,2.23c.07.64.15,1.37.15,2.74,0,1.23,0,1.85,0,2.47,0,.63,0,1.25,0,2.51,0,1.37-.08,2.1-.15,2.75-.07.6-.12,1.11-.12,2.23,0,1.2.02,1.8.04,2.4.02.64.05,1.29.05,2.57s-.06,2.03-.12,2.7c-.05.58-.1,1.14-.1,2.28v4.97c0,1.13.05,1.69.1,2.27.06.63.12,1.35.12,2.7,0,1.18.03,1.75.06,2.36.04.64.07,1.31.07,2.62,0,1.39-.09,2.13-.17,2.78-.07.59-.14,1.1-.14,2.19,0,1.17.03,1.74.07,2.35.04.65.08,1.31.08,2.63,0,1.17.03,1.74.07,2.34.04.65.08,1.32.08,2.63,0,1.22.01,1.83.02,2.44.01.63.02,1.27.02,2.53s.02,1.8.04,2.4c.02.64.04,1.28.04,2.57,0,1.49-.16,2.27-.3,2.97-.12.56-.21,1.01-.21,2.01,0,1.21.01,1.82.03,2.43.02.64.03,1.27.03,2.54,0,1.02.09,1.47.19,2.04.13.69.28,1.47.28,2.94,0,1.38-.09,2.12-.16,2.77-.07.59-.13,1.11-.13,2.21s.05,1.69.1,2.27c.06.63.12,1.35.12,2.71,0,1.46-.14,2.23-.26,2.92-.1.58-.19,1.03-.19,2.06,0,1.22.01,1.83.02,2.44.01.63.03,1.27.03,2.54,0,1.18.03,1.77.06,2.37.03.65.07,1.3.07,2.61s-.02,1.93-.04,2.57c-.02.6-.04,1.2-.04,2.41,0,1.31-.03,1.96-.07,2.61-.03.59-.06,1.19-.06,2.37,0,1.27-.28,2.2-.49,2.88-.03.1-.07.22-.1.32.03-.01.05-.02.08-.03.72-.33,1.81-.83,3.33-.83,1.21,0,1.81-.02,2.41-.03.64-.02,1.28-.04,2.55-.04,1.44,0,2.21.13,2.88.24.58.1,1.04.18,2.08.18,1.15,0,1.7-.04,2.29-.09.66-.05,1.34-.11,2.67-.11,1.18,0,1.75-.03,2.35-.06.64-.04,1.31-.07,2.61-.07s1.92.02,2.57.04c.6.02,1.2.04,2.4.04s1.79-.03,2.38-.05c.65-.03,1.29-.06,2.58-.06,1.45,0,2.22.14,2.9.26.58.1,1.03.18,2.06.18,1.15,0,1.71-.04,2.31-.08.65-.05,1.33-.1,2.66-.1,1.15,0,1.7-.04,2.29-.09.66-.05,1.34-.11,2.67-.11,1.19,0,1.78-.03,2.38-.05.65-.03,1.29-.06,2.59-.06,1.36,0,2.08.07,2.71.13.6.06,1.13.11,2.25.11s1.74-.03,2.34-.07c.64-.04,1.31-.08,2.62-.08,1.45,0,2.21.13,2.89.25.58.1,1.04.18,2.08.18s1.59-.07,2.17-.14c.65-.08,1.4-.18,2.79-.18,1.17,0,1.74-.03,2.34-.07.65-.04,1.32-.08,2.63-.08,1.47,0,2.26.15,2.95.29.57.11,1.01.2,2.02.2,1.17,0,1.74-.03,2.34-.07.65-.04,1.31-.08,2.62-.08,1.09,0,1.6-.06,2.18-.14.65-.08,1.39-.18,2.78-.18,1.49,0,2.27.16,2.97.3.56.12,1,.21,2,.21,1.25,0,1.87,0,2.5,0,.62,0,1.23,0,2.47,0,.94,0,1.34-.1,1.89-.24.68-.17,1.53-.39,3.08-.39s2.27.16,2.96.3c.56.12,1,.21,2,.21,1.22,0,1.82-.01,2.43-.03.63-.01,1.27-.03,2.53-.03s1.94.03,2.59.06c.59.03,1.19.05,2.37.05.97,0,1.38-.09,1.94-.22.67-.15,1.51-.35,3.02-.35s2.34.19,3.01.34c.55.12.98.22,1.96.22,1.12,0,1.65-.05,2.25-.11.64-.06,1.36-.13,2.71-.13,1.1,0,1.61-.06,2.2-.13.65-.08,1.38-.17,2.77-.17,1.48,0,2.26.16,2.96.3.56.11,1.01.2,2.01.2h4.96c1.31,0,1.98.04,2.62.08.6.04,1.17.07,2.34.07,1.09,0,1.6-.06,2.18-.14.65-.08,1.39-.18,2.78-.18,1.15,0,1.71-.04,2.3-.09.65-.05,1.33-.1,2.66-.1,1.25,0,1.88,0,2.5,0,.62,0,1.23,0,2.46,0,1.33,0,2.01.05,2.67.1.59.05,1.15.09,2.3.09,1.35,0,2.07.06,2.7.12.58.05,1.13.1,2.27.1,1.02,0,1.47-.08,2.05-.19.68-.13,1.46-.27,2.92-.27s2.15.1,2.81.19c.58.08,1.08.15,2.15.15,1.23,0,1.85,0,2.47,0,.62,0,1.25,0,2.5,0,1.35,0,2.03.06,2.69.12.59.05,1.14.1,2.28.1.96,0,1.37-.1,1.93-.23.68-.16,1.52-.36,3.04-.36s2.26.16,2.96.3c.56.11,1.01.2,2.01.2s1.53-.08,2.09-.17c.67-.11,1.43-.24,2.87-.24s2.18.11,2.84.22c.57.09,1.06.16,2.12.16s1.47-.08,2.04-.19c.69-.13,1.46-.27,2.93-.27,1.32,0,1.99.04,2.64.09.6.04,1.16.08,2.32.08,1.26,0,1.89,0,2.52.02.61,0,1.22.02,2.45.02s1.72-.04,2.32-.08c.65-.04,1.32-.09,2.65-.09s2.02.05,2.67.11c.59.05,1.15.09,2.29.09,1.25,0,1.88,0,2.5.01.62,0,1.23,0,2.46,0s1.81-.02,2.42-.03c.64-.02,1.28-.04,2.55-.04,1.19,0,1.79-.03,2.38-.05.65-.03,1.29-.05,2.59-.05,1.42,0,2.17.11,2.84.21.57.09,1.07.16,2.13.16,1.13,0,1.68-.05,2.27-.1.63-.06,1.35-.12,2.7-.12,1.12,0,1.64-.05,2.24-.11.64-.07,1.36-.14,2.73-.14s1.97.04,2.62.07c.6.03,1.18.06,2.35.06,1.33,0,2.01.05,2.66.1.59.04,1.15.09,2.31.09,1.08,0,1.57-.07,2.15-.15.66-.09,1.41-.2,2.82-.2,1.51,0,2.35.19,3.02.34.55.12.98.22,1.95.22,1.15,0,1.7-.04,2.29-.09.66-.05,1.34-.11,2.68-.11,1.06,0,1.55-.08,2.12-.16.67-.1,1.43-.22,2.85-.22,1.51,0,2.34.19,3.01.34.55.12.98.22,1.96.22,1.09,0,1.6-.06,2.19-.14.65-.08,1.39-.17,2.78-.17,1.18,0,1.75-.03,2.36-.07.64-.04,1.31-.07,2.62-.07,1.41,0,2.4.38,3.05.64,0,0,.01,0,.02,0,.02-.02.04-.04.05-.05-.01-.04-.03-.09-.04-.13-.19-.61-.49-1.53-.49-2.82s0-1.88.01-2.51c0-.62.01-1.23.01-2.46,0-1.08-.07-1.59-.14-2.17-.09-.66-.19-1.4-.19-2.8,0-1.49.17-2.32.31-2.98.12-.56.21-1,.21-1.99,0-1.22-.01-1.83-.02-2.43-.01-.63-.03-1.27-.03-2.53s.03-1.94.06-2.59c.03-.59.05-1.19.05-2.37s-.03-1.75-.06-2.35c-.04-.64-.07-1.31-.07-2.62s.05-2,.09-2.65c.04-.6.08-1.16.08-2.32,0-1-.09-1.44-.21-2-.14-.69-.3-1.48-.3-2.97,0-1.31.04-1.98.08-2.63.04-.6.07-1.17.07-2.34,0-1.27.01-1.9.03-2.54.01-.61.03-1.22.03-2.43s-.03-1.74-.07-2.35c-.04-.65-.08-1.31-.08-2.62,0-1.45.13-2.22.25-2.9.1-.58.18-1.04.18-2.07,0-1.13-.05-1.68-.11-2.26-.06-.64-.13-1.36-.13-2.71s.06-2.03.11-2.69c.05-.59.1-1.14.1-2.28,0-1.23,0-1.84-.02-2.45,0-.63-.02-1.26-.02-2.52s0-1.85-.01-2.46c0-.63-.01-1.26-.01-2.51,0-1.07-.07-1.57-.15-2.15-.09-.66-.2-1.41-.2-2.82s.13-2.21.24-2.88c.09-.56.17-1.05.17-2.09v-4.97c0-1.1-.07-1.61-.14-2.2-.08-.65-.16-1.38-.16-2.77,0-1.19-.02-1.79-.05-2.39-.03-.65-.05-1.29-.05-2.58,0-1.42.11-2.17.21-2.84.09-.57.16-1.07.16-2.13s-.09-1.46-.2-2.03c-.13-.69-.29-1.47-.29-2.94,0-1.22-.01-1.83-.02-2.44-.01-.63-.02-1.26-.02-2.53,0-1.4.1-2.14.18-2.8.08-.58.14-1.09.14-2.18,0-1.33.05-2.01.1-2.67.04-.59.09-1.15.09-2.31,0-1-.09-1.44-.21-2-.14-.7-.31-1.48-.31-2.97s.11-2.16.2-2.83c.08-.58.15-1.08.15-2.15s-.06-1.61-.13-2.21c-.08-.65-.16-1.38-.16-2.77s.13-2.21.24-2.88c.1-.58.18-1.04.18-2.09,0-1.28.02-1.92.04-2.57.02-.6.04-1.2.04-2.41s-.02-1.79-.05-2.39c-.03-.65-.05-1.29-.05-2.58,0-1.21-.02-1.81-.04-2.42-.02-.64-.04-1.28-.04-2.56s.04-1.97.07-2.61c.03-.59.06-1.18.06-2.36,0-1.11-.06-1.63-.12-2.22-.07-.65-.15-1.38-.15-2.75,0-1.26,0-1.89.01-2.52,0-.62.01-1.23.01-2.46,0-1.39.09-2.13.17-2.78.07-.59.13-1.1.13-2.2,0-1.17-.03-1.74-.07-2.34-.04-.65-.08-1.32-.08-2.63,0-1.13-.05-1.69-.1-2.27-.06-.64-.12-1.35-.12-2.71,0-1.15-.04-1.71-.09-2.3-.05-.66-.11-1.34-.11-2.68,0-1.44.13-2.21.24-2.89.09-.56.18-1.05.18-2.1,0-1.4-.3-2.86-.86-4.22-.41-1-1.32-1.9-2.28-2.85l-.85-.85c-.95-.96-1.84-1.86-2.83-2.28-1.11-.46-2.63-.48-4.16-.46h-.06c-1.34,0-2.05-.06-2.68-.12-.58-.05-1.13-.1-2.25-.1-1.39,0-2.13-.1-2.78-.18-.58-.08-1.08-.14-2.16-.14-.94,0-1.34.1-1.9.23-.67.17-1.52.37-3.04.37s-2.23-.14-2.91-.27c-.57-.1-1.02-.19-2.03-.19-1.27,0-1.9-.02-2.54-.04-.6-.02-1.2-.03-2.4-.03s-1.73.03-2.33.07c-.64.04-1.3.08-2.61.08-1.19,0-1.79.02-2.38.04-.64.02-1.28.05-2.55.05-1.38,0-2.12-.09-2.76-.17-.58-.07-1.09-.13-2.17-.13-.95,0-1.35.1-1.9.23-.67.16-1.51.37-3.04.37s-2.31-.18-2.97-.32c-.55-.12-.99-.21-1.96-.21-1.07,0-1.57.07-2.14.15-.66.09-1.4.19-2.8.19-1.21,0-1.82.01-2.42.02-.63.01-1.26.02-2.51.02-1.44,0-2.2-.13-2.87-.25-.58-.1-1.03-.18-2.06-.18-1.21,0-1.82.01-2.42.02-.63.01-1.26.02-2.52.02-1.03,0-1.48.08-2.06.18-.67.12-1.44.25-2.88.25-1.22,0-1.83,0-2.45.01-.62,0-1.24.01-2.49.01-1.42,0-2.18-.12-2.84-.22-.56-.09-1.05-.17-2.09-.17-1.31,0-1.98-.04-2.63-.09-.59-.04-1.16-.08-2.31-.08s-1.7.04-2.29.08c-.65.05-1.32.1-2.65.1-1.08,0-1.58.06-2.16.14-.65.08-1.39.18-2.77.18-1.46,0-2.24-.15-2.92-.28-.56-.11-1.01-.19-2.02-.19-1.15,0-1.71.04-2.31.08-.65.04-1.31.09-2.63.09-1.22,0-1.83,0-2.45.01-.62,0-1.24.01-2.49.01s-1.86,0-2.48,0c-.61,0-1.23,0-2.46,0-1.34,0-2.02-.06-2.67-.12-.58-.05-1.13-.1-2.26-.1-1.19,0-1.78.02-2.37.05-.64.02-1.28.05-2.56.05-1.17,0-1.73.03-2.33.07-.64.04-1.3.07-2.61.07-1.21,0-1.82.01-2.42.02-.63.01-1.26.02-2.51.02-1.17,0-1.74.03-2.34.06-.64.03-1.3.07-2.6.07s-1.98-.05-2.63-.09c-.59-.04-1.15-.08-2.3-.08-1.25,0-1.88-.01-2.51-.02-.61,0-1.21-.02-2.43-.02-1.32,0-1.99-.05-2.64-.09-.59-.04-1.15-.08-2.3-.08-.96,0-1.36.09-1.92.22-.67.16-1.5.35-3.01.35s-2.33-.19-3-.34c-.54-.12-.97-.22-1.94-.22-1.16,0-1.72.04-2.31.07-.64.04-1.31.08-2.62.08s-2.08-.08-2.72-.14c-.6-.06-1.11-.12-2.22-.12-1.03,0-1.49.08-2.06.18-.67.12-1.43.25-2.87.25s-2.18-.12-2.85-.23c-.56-.09-1.05-.17-2.09-.17-1.23,0-1.84,0-2.46,0-.62,0-1.24,0-2.48,0s-1.84,0-2.45,0c-.62,0-1.24,0-2.48,0-.99,0-1.43.09-1.99.2-.69.14-1.47.3-2.95.3s-2.21-.14-2.89-.26c-.57-.1-1.03-.18-2.05-.18-1.29,0-1.93-.03-2.57-.05-.59-.02-1.18-.05-2.37-.05s-1.69.04-2.28.09c-.65.05-1.33.11-2.66.11s-1.98-.04-2.63-.09c-.59-.04-1.15-.08-2.31-.08-1.08,0-1.58.07-2.16.14-.65.09-1.39.18-2.78.18-1.1,0-1.62.06-2.21.12-.64.07-1.37.15-2.73.15-1.28,0-1.91-.02-2.55-.04-.6-.02-1.19-.04-2.39-.04s-1.78.02-2.37.05c-.64.03-1.28.05-2.57.05-1.5,0-2.33-.19-3-.34-.54-.12-.97-.22-1.94-.22-1.13,0-1.69.05-2.27.09-.66.06-1.33.11-2.67.11-1.1,0-1.62.06-2.21.12-.64.07-1.36.15-2.73.15s-2.17-.11-2.83-.21c-.57-.09-1.06-.16-2.11-.16s-1.47.08-2.04.19c-.68.12-1.45.26-2.9.26-1.37,0-2.09-.08-2.73-.15-.59-.06-1.11-.12-2.21-.12-1.17,0-1.74.03-2.34.06-.64.03-1.3.07-2.6.07s-2.09-.08-2.73-.15c-.59-.06-1.11-.12-2.22-.12-1.23,0-1.84,0-2.45,0-.62,0-1.24,0-2.49,0-1.15,0-1.7.04-2.29.09-.65.05-1.32.1-2.65.1s-2.07-.07-2.71-.13c-.6-.06-1.12-.11-2.24-.11-1.32,0-2-.05-2.65-.1-.59-.04-1.15-.08-2.3-.08Z" fill="#420656"/><path d="m140.78,388.92c-1.25,0-1.88,0-2.5,0-.62,0-1.24,0-2.47,0-1.38,0-2.11-.08-2.76-.16-.59-.07-1.11-.13-2.21-.13-1.41,0-2.16-.11-2.82-.2-.58-.08-1.08-.15-2.15-.15s-1.58.07-2.16.15c-.66.09-1.41.19-2.81.19-1.16,0-1.72.04-2.31.08-.65.05-1.33.1-2.66.1-1.2,0-1.8.02-2.4.04-.64.02-1.29.05-2.58.05s-2-.05-2.65-.09c-.6-.04-1.16-.08-2.32-.08-1.37,0-2.1-.08-2.74-.15-.6-.06-1.12-.12-2.23-.12-2.05,0-3.54-1.53-3.54-3.64,0-1.2-.02-1.79-.03-2.39-.02-.63-.04-1.26-.04-2.53,0-1.16-.03-1.73-.06-2.33-.04-.64-.07-1.29-.07-2.59,0-1.19-.02-1.78-.04-2.37-.02-.64-.04-1.27-.04-2.54,0-1.15-.04-1.7-.08-2.29-.04-.64-.09-1.31-.09-2.62s.06-2,.11-2.65c.05-.58.09-1.13.09-2.26,0-1.32.05-1.99.1-2.64.04-.58.09-1.13.09-2.27,0-1.28.03-1.91.05-2.55.02-.59.05-1.18.05-2.36s-.04-1.68-.09-2.27c-.05-.65-.11-1.32-.11-2.65,0-1.1-.05-1.61-.12-2.21-.07-.63-.14-1.35-.14-2.7,0-1.21,0-1.81-.02-2.41,0-.62-.02-1.25-.02-2.49s.04-1.96.08-2.59c.03-.6.07-1.16.07-2.32s-.03-1.75-.06-2.33c-.03-.64-.07-1.29-.07-2.58,0-1.46.15-2.24.29-2.92.11-.56.2-1,.2-1.99,0-1.06-.07-1.55-.15-2.12-.09-.65-.2-1.39-.2-2.79,0-1.14-.04-1.69-.08-2.28-.05-.65-.1-1.31-.1-2.63v-4.91c0-1.45.14-2.22.26-2.89.1-.56.19-1.01.19-2.02,0-1.26.01-1.88.03-2.51.01-.6.03-1.2.03-2.4,0-1.04-.08-1.52-.16-2.08-.1-.66-.22-1.41-.22-2.83,0-1.32.05-1.99.1-2.64.04-.58.09-1.13.09-2.27,0-1.21,0-1.82-.02-2.42,0-.62-.02-1.24-.02-2.49s-.01-1.8-.03-2.4c-.01-.63-.03-1.25-.03-2.5,0-1.33.06-2,.11-2.66.05-.58.1-1.12.1-2.25,0-1.27.02-1.9.04-2.53.02-.59.04-1.19.04-2.37s-.04-1.68-.09-2.27c-.05-.65-.1-1.32-.1-2.64,0-1.05-.07-1.53-.16-2.09-.1-.66-.21-1.41-.21-2.81,0-1.3.04-1.96.08-2.6.04-.59.07-1.15.07-2.3s-.03-1.75-.06-2.33c-.03-.64-.07-1.29-.07-2.58,0-1.2-.01-1.8-.03-2.4-.01-.63-.03-1.25-.03-2.51,0-1.52.21-2.35.37-3.03.13-.55.23-.94.23-1.88s-.09-1.36-.22-1.92c-.15-.66-.34-1.49-.34-2.99,0-1.26.02-1.89.03-2.51.02-.6.03-1.19.03-2.39,0-1.4.11-2.14.2-2.79.08-.57.15-1.06.15-2.11,0-1.21,0-1.81-.02-2.42,0-.62-.02-1.24-.02-2.49,0-1.07-.07-1.56-.14-2.14-.09-.65-.18-1.38-.18-2.77s.13-2.19.24-2.85c.1-.57.17-1.03.17-2.05,0-1.28.03-1.92.06-2.56.03-.59.05-1.17.05-2.34s-.02-1.77-.05-2.36c-.02-.64-.05-1.27-.05-2.54,0-1.12-.05-1.66-.1-2.24-.06-.62-.12-1.33-.12-2.66s.04-1.97.09-2.61c.04-.59.08-1.15.08-2.29s-.04-1.69-.08-2.28c-.05-.65-.1-1.31-.1-2.63s.04-1.97.08-2.61c.04-.59.07-1.15.07-2.3,0-2.18,1.59-3.89,3.63-3.89,1.28,0,1.92.02,2.57.04.6.02,1.21.04,2.42.04,1.28,0,1.92.02,2.56.04.61.02,1.21.04,2.42.04s1.8-.02,2.4-.04c.64-.02,1.29-.05,2.58-.05,1.39,0,2.13.09,2.78.17.59.07,1.1.13,2.2.13.98,0,1.42-.1,1.97-.22.67-.15,1.5-.33,3.01-.33,1.4,0,2.14.1,2.79.18.59.08,1.09.14,2.18.14,1.37,0,2.09.07,2.73.14.6.06,1.12.11,2.25.11s1.68-.05,2.26-.11c.64-.06,1.36-.13,2.72-.13s2.02.05,2.67.1c.59.05,1.15.09,2.3.09s1.7-.05,2.29-.09c.66-.05,1.34-.11,2.68-.11s2.03.06,2.69.11c.59.05,1.14.1,2.29.1,1.3,0,1.95.03,2.6.06.59.03,1.19.05,2.38.05,1.05,0,1.53-.08,2.09-.17.67-.11,1.44-.24,2.88-.24,1.27,0,1.9.01,2.54.03.61.01,1.22.02,2.44.02s1.83-.01,2.44-.02c.63-.01,1.27-.02,2.53-.02,1.15,0,1.71-.04,2.31-.09.66-.05,1.33-.1,2.67-.1s2.02.05,2.68.11c.59.05,1.15.09,2.3.09s1.63-.06,2.23-.12c.64-.07,1.37-.15,2.74-.15s2.03.06,2.69.11c.59.05,1.14.1,2.29.1,1.23,0,1.84,0,2.45-.02.63,0,1.26-.02,2.52-.02s1.9.01,2.54.03c.61.01,1.22.03,2.44.03,1.46,0,2.23.14,2.91.26.58.1,1.03.19,2.06.19,1.11,0,1.62-.06,2.22-.12.65-.07,1.38-.15,2.75-.15s2.1.08,2.74.15c.6.06,1.12.12,2.23.12,1.17,0,1.74-.03,2.34-.07.65-.04,1.31-.08,2.63-.08,1.19,0,1.79-.02,2.39-.05.65-.03,1.29-.05,2.59-.05,1.11,0,1.63-.06,2.23-.12.64-.07,1.37-.15,2.75-.15,1.26,0,1.89.01,2.52.02.61,0,1.22.02,2.45.02,1.15,0,1.71-.04,2.31-.09.65-.05,1.33-.1,2.66-.1,1.56,0,2.41.23,3.1.41.55.15.94.25,1.87.25,1,0,1.44-.09,2-.21.7-.14,1.48-.31,2.97-.31s2.25.15,2.94.29c.57.11,1.02.2,2.03.2,1.11,0,1.63-.06,2.23-.12.64-.07,1.37-.15,2.74-.15h4.97c1.21,0,1.82-.02,2.43-.03.64-.01,1.27-.03,2.54-.03s2,.05,2.65.09c.6.04,1.16.08,2.32.08,1.28,0,1.92.02,2.56.04.6.02,1.2.04,2.41.04s1.77-.03,2.36-.06c.64-.03,1.3-.07,2.61-.07,1.12,0,1.63-.05,2.23-.12.64-.07,1.37-.15,2.74-.15,1.18,0,1.77-.03,2.37-.06.65-.03,1.3-.07,2.61-.07s1.89,0,2.52.02c.61,0,1.23.02,2.45.02,1.51,0,2.35.19,3.02.35.55.13.98.22,1.95.22,1.16,0,1.72-.04,2.32-.08.65-.04,1.33-.09,2.65-.09,1.1,0,1.61-.06,2.21-.13.65-.08,1.38-.16,2.77-.16,1.48,0,2.26.15,2.95.29.57.11,1.01.2,2.02.2h4.97c1.03,0,1.49-.08,2.07-.18.68-.12,1.45-.26,2.9-.26,1.24,0,1.85,0,2.47,0,.62,0,1.25,0,2.5,0,1.42,0,2.18.11,2.84.21.57.09,1.07.16,2.13.16s1.6-.06,2.19-.14c.65-.08,1.39-.18,2.79-.18,1.18,0,1.77-.03,2.36-.06.64-.03,1.3-.07,2.61-.07,1.44,0,2.21.13,2.88.24.58.1,1.04.18,2.09.18,1.16,0,1.72-.04,2.32-.08.65-.04,1.33-.09,2.65-.09,1.16,0,1.73-.04,2.33-.08.65-.04,1.32-.09,2.64-.09,1.14,0,1.7-.05,2.28-.1.66-.06,1.34-.11,2.69-.11,1.27,0,1.91.02,2.54.03.61.01,1.21.03,2.43.03s1.84,0,2.46-.02c.63,0,1.26-.02,2.52-.02,1.36,0,2.09.07,2.73.14.6.06,1.12.11,2.24.11,1.19,0,1.79-.02,2.39-.05.65-.03,1.29-.05,2.59-.05,1.36,0,2.08.07,2.71.13.58.06,1.13.11,2.26.11,2.04,0,3.57,1.58,3.57,3.69,0,1.2.01,1.81.03,2.41.01.63.03,1.26.03,2.51,0,1.12.05,1.66.1,2.24.06.63.12,1.34.12,2.68,0,1.11.05,1.62.11,2.22.06.63.13,1.35.13,2.7,0,1.5-.19,2.33-.35,3-.13.56-.22.96-.22,1.91,0,1.18.03,1.76.05,2.35.03.64.05,1.28.05,2.56,0,1.19.02,1.79.04,2.38.02.63.04,1.26.04,2.53s0,1.82.01,2.43c0,.62.01,1.24.01,2.48s.02,1.77.04,2.36c.02.64.05,1.27.05,2.55s-.05,2-.11,2.65c-.05.58-.09,1.13-.09,2.26s.03,1.75.06,2.34c.03.64.06,1.28.06,2.57s-.05,1.99-.1,2.64c-.05.58-.09,1.13-.09,2.27,0,.99.09,1.44.19,1.99.13.68.28,1.45.28,2.91,0,1.2.01,1.8.03,2.4.02.63.03,1.26.03,2.51s0,1.85,0,2.47c0,.61,0,1.22,0,2.44s-.02,1.88-.03,2.51c-.01.6-.03,1.2-.03,2.4,0,1.39-.1,2.12-.18,2.77-.08.57-.14,1.07-.14,2.14,0,1.21.01,1.81.02,2.41.01.62.02,1.25.02,2.5,0,1.08.06,1.58.13,2.16.08.64.17,1.37.17,2.75s-.13,2.2-.25,2.87c-.1.57-.18,1.02-.18,2.04s.07,1.53.16,2.1c.1.66.21,1.4.21,2.81s-.13,2.2-.25,2.87c-.1.57-.18,1.02-.18,2.04,0,1.1.05,1.61.12,2.2.07.63.14,1.35.14,2.71s-.05,1.99-.1,2.63c-.04.58-.09,1.14-.09,2.27,0,1.04.08,1.52.17,2.08.11.66.23,1.41.23,2.83s-.09,2.1-.17,2.75c-.07.58-.13,1.08-.13,2.16,0,1.16.03,1.72.07,2.32.04.64.07,1.29.07,2.59,0,1.37-.09,2.1-.17,2.74-.07.58-.13,1.08-.13,2.16s.08,1.52.17,2.08c.11.66.23,1.41.23,2.83,0,1.26-.02,1.89-.03,2.52-.02.6-.03,1.19-.03,2.39s-.01,1.87-.02,2.5c-.01.6-.02,1.21-.02,2.41,0,1.37-.09,2.1-.17,2.74-.07.58-.13,1.08-.13,2.16s.07,1.54.16,2.1c.1.66.21,1.4.21,2.8,0,1.22,0,1.83,0,2.44,0,.62,0,1.23,0,2.46,0,1.3-.04,1.96-.08,2.6-.04.59-.07,1.15-.07,2.3s.05,1.61.12,2.2c.07.63.14,1.35.14,2.71,0,1.5-.19,2.32-.34,2.99-.13.56-.22.96-.22,1.92,0,1.02.08,1.47.18,2.04.12.67.25,1.43.25,2.87,0,1.14.04,1.69.08,2.28.05.65.09,1.31.09,2.62s-.03,1.91-.05,2.54c-.02.59-.05,1.18-.05,2.36,0,1.35-.08,2.07-.14,2.71-.06.59-.12,1.1-.12,2.2s.05,1.63.11,2.22c.06.63.13,1.34.13,2.68,0,1.18.02,1.78.04,2.37.02.63.04,1.27.04,2.54,0,2-1.69,3.46-4.02,3.46-1.23,0-1.85,0-2.47.01-.63,0-1.26.01-2.52.01-.96,0-1.37.1-1.93.23-.68.16-1.52.37-3.06.37s-2.38-.21-3.06-.37c-.56-.14-.97-.23-1.92-.23-1.04,0-1.49.08-2.08.18-.68.12-1.45.25-2.9.25s-2.14-.09-2.79-.18c-.59-.07-1.1-.14-2.19-.14s-1.58.07-2.16.15c-.66.09-1.41.19-2.82.19-1.33,0-2.01-.05-2.67-.1-.59-.04-1.16-.09-2.31-.09-1.39,0-2.13-.09-2.78-.17-.59-.07-1.1-.13-2.2-.13s-1.64.05-2.24.12c-.64.07-1.37.14-2.73.14-1.18,0-1.78.03-2.37.06-.65.03-1.3.06-2.6.06-1.22,0-1.83.01-2.44.02-.63.01-1.27.03-2.54.03-1.19,0-1.78.03-2.37.06-.65.03-1.3.06-2.6.06-1.41,0-2.16-.11-2.83-.2-.58-.08-1.08-.15-2.15-.15-1.19,0-1.79.03-2.38.05-.65.03-1.3.06-2.6.06h-4.98c-1.31,0-1.98-.03-2.62-.07-.6-.03-1.17-.07-2.35-.07-1.33,0-2.01-.05-2.67-.1-.59-.04-1.15-.09-2.31-.09-1.05,0-1.54.08-2.1.17-.67.11-1.43.23-2.87.23s-2.1-.08-2.74-.15c-.6-.06-1.12-.12-2.23-.12s-1.74.04-2.34.07c-.65.04-1.32.08-2.64.08s-2.08-.07-2.71-.13c-.58-.06-1.13-.11-2.26-.11-1,0-1.45.09-2.01.2-.69.14-1.48.3-2.96.3s-2.35-.19-3.02-.34c-.55-.12-.98-.22-1.96-.22s-1.42.1-1.97.22c-.67.15-1.5.33-3,.33s-2.33-.18-2.99-.32c-.55-.12-.99-.21-1.98-.21-1.07,0-1.56.07-2.14.16-.67.1-1.42.21-2.84.21-1.32,0-1.98-.04-2.63-.08-.6-.04-1.17-.07-2.34-.07-1.33,0-2.01-.05-2.66-.1-.59-.04-1.16-.08-2.31-.08s-1.71.04-2.3.09c-.66.05-1.34.11-2.67.11h-4.98c-1.36,0-2.08-.07-2.71-.13-.58-.06-1.13-.11-2.26-.11-1.05,0-1.54.08-2.11.17-.67.11-1.43.22-2.86.22-1.14,0-1.69.05-2.28.1-.66.06-1.35.12-2.69.12-1.53,0-2.37-.2-3.05-.36-.56-.13-.97-.23-1.93-.23-1.13,0-1.65.05-2.25.11-.64.06-1.36.13-2.72.13-1.24,0-1.85,0-2.47,0-.62,0-1.25,0-2.5,0s-1.79.02-2.39.05c-.65.03-1.29.05-2.58.05-1.21,0-1.82.02-2.42.03-.64.02-1.27.03-2.54.03s-1.88,0-2.5,0c-.62,0-1.23,0-2.47,0s-1.78.03-2.37.06c-.65.03-1.3.06-2.6.06-1.21,0-1.81.02-2.41.04-.64.02-1.28.04-2.56.04h-4.97c-1.43,0-2.18-.12-2.85-.22-.57-.09-1.06-.16-2.12-.16s-1.59.07-2.18.14c-.66.08-1.4.18-2.79.18s-2.12-.08-2.76-.16c-.59-.07-1.11-.13-2.21-.13-1.17,0-1.74.03-2.35.07-.65.04-1.31.08-2.63.08-1.2,0-1.8.02-2.41.04-.64.02-1.28.04-2.57.04-1.19,0-1.79.02-2.39.05-.65.03-1.29.05-2.58.05-1.22,0-1.83,0-2.45.02-.63,0-1.26.02-2.53.02-1.37,0-2.09-.08-2.74-.14-.6-.06-1.12-.12-2.24-.12-1.35,0-2.07-.07-2.71-.12-.58-.05-1.13-.1-2.27-.1-.99,0-1.43.09-1.98.21-.66.14-1.49.32-2.99.32Zm-14.92-5.45c1.41,0,2.16.11,2.82.2.58.08,1.07.15,2.15.15,1.38,0,2.11.08,2.76.16.59.07,1.11.13,2.21.13,1.25,0,1.88,0,2.5,0,.62,0,1.24,0,2.47,0,.99,0,1.43-.09,1.98-.21.66-.14,1.49-.32,2.99-.32,1.35,0,2.07.07,2.71.12.58.05,1.13.1,2.27.1,1.37,0,2.09.08,2.74.14.6.06,1.12.12,2.24.12,1.22,0,1.83,0,2.45-.02.63,0,1.26-.02,2.53-.02,1.2,0,1.79-.02,2.39-.05.65-.03,1.29-.05,2.58-.05,1.2,0,1.8-.02,2.41-.04.64-.02,1.28-.04,2.57-.04,1.17,0,1.74-.03,2.35-.07.64-.04,1.31-.08,2.62-.08,1.38,0,2.12.08,2.76.16.59.07,1.11.13,2.21.13s1.59-.07,2.18-.14c.66-.08,1.4-.18,2.79-.18s2.18.12,2.85.22c.57.09,1.06.16,2.12.16h4.97c1.21,0,1.81-.02,2.41-.04.64-.02,1.28-.04,2.56-.04,1.19,0,1.78-.03,2.37-.06.65-.03,1.3-.06,2.6-.06s1.88,0,2.5,0c.62,0,1.23,0,2.47,0s1.82-.02,2.42-.03c.64-.02,1.27-.03,2.55-.03,1.19,0,1.79-.02,2.38-.05.65-.03,1.29-.05,2.58-.05s1.85,0,2.47,0c.62,0,1.25,0,2.5,0,1.13,0,1.65-.05,2.25-.11.64-.06,1.36-.13,2.72-.13,1.53,0,2.37.2,3.04.36.56.13.97.23,1.93.23,1.14,0,1.69-.05,2.28-.1.66-.06,1.35-.12,2.69-.12,1.06,0,1.55-.08,2.11-.17.67-.11,1.43-.22,2.86-.22s2.08.07,2.71.13c.58.06,1.13.11,2.26.11h4.98c1.15,0,1.71-.04,2.3-.08.66-.05,1.34-.11,2.67-.11s2.01.05,2.66.1c.59.04,1.16.08,2.31.08,1.32,0,1.98.04,2.63.08.6.04,1.17.07,2.34.07,1.07,0,1.56-.07,2.14-.16.67-.1,1.42-.21,2.84-.21,1.5,0,2.33.18,2.99.32.55.12.99.21,1.98.21s1.42-.1,1.97-.22c.67-.15,1.5-.33,3-.33s2.35.19,3.02.34c.55.12.98.22,1.96.22s1.45-.09,2.01-.2c.69-.14,1.48-.3,2.96-.3,1.36,0,2.08.07,2.71.13.58.05,1.13.11,2.26.11s1.74-.04,2.34-.07c.65-.04,1.32-.08,2.64-.08s2.1.08,2.74.15c.6.06,1.12.12,2.23.12,1.05,0,1.54-.08,2.1-.17.67-.11,1.43-.23,2.87-.23,1.33,0,2.01.05,2.67.1.59.04,1.15.09,2.31.09,1.31,0,1.98.04,2.62.08.6.03,1.17.07,2.35.07h4.98c1.19,0,1.79-.03,2.38-.06.65-.03,1.3-.06,2.59-.06,1.41,0,2.16.11,2.82.2.58.08,1.08.15,2.15.15,1.19,0,1.78-.03,2.37-.06.65-.03,1.3-.06,2.6-.06,1.22,0,1.83-.01,2.44-.02.63-.01,1.27-.03,2.54-.03,1.18,0,1.78-.03,2.37-.06.65-.03,1.3-.06,2.6-.06,1.12,0,1.64-.05,2.24-.12.64-.07,1.37-.14,2.73-.14s2.13.09,2.78.17c.59.07,1.1.13,2.2.13,1.33,0,2.01.05,2.67.1.59.04,1.16.09,2.31.09,1.08,0,1.58-.07,2.16-.15.66-.09,1.41-.19,2.82-.19s2.14.09,2.79.18c.59.07,1.1.14,2.19.14,1.04,0,1.49-.08,2.08-.18.68-.12,1.45-.25,2.9-.25,1.53,0,2.38.21,3.06.37.56.14.97.23,1.92.23s1.37-.1,1.93-.23c.68-.16,1.52-.37,3.05-.37,1.23,0,1.85,0,2.47-.01.48,0,.96-.01,1.73-.01,0-.4-.02-.72-.03-1.03-.02-.63-.04-1.27-.04-2.54,0-1.11-.05-1.63-.11-2.22-.06-.63-.13-1.34-.13-2.68s.08-2.07.14-2.71c.06-.59.12-1.1.12-2.2,0-1.27.02-1.91.05-2.55.02-.59.05-1.18.05-2.36s-.04-1.69-.08-2.28c-.05-.65-.09-1.31-.09-2.62,0-1.02-.08-1.47-.18-2.04-.12-.67-.25-1.43-.25-2.87s.19-2.32.34-2.99c.13-.56.22-.96.22-1.92,0-1.1-.05-1.61-.12-2.2-.07-.63-.14-1.35-.14-2.71s.04-1.96.08-2.6c.04-.59.07-1.15.07-2.3,0-1.22,0-1.83,0-2.44,0-.62,0-1.23,0-2.46,0-1.05-.07-1.54-.16-2.1-.1-.66-.21-1.4-.21-2.8s.09-2.1.17-2.74c.07-.58.13-1.08.13-2.16,0-1.25.01-1.88.02-2.5.01-.6.02-1.21.02-2.41s.02-1.89.03-2.52c.02-.6.03-1.19.03-2.39,0-1.04-.08-1.52-.17-2.07-.11-.66-.23-1.41-.23-2.83s.09-2.1.17-2.74c.07-.58.13-1.08.13-2.16,0-1.16-.03-1.72-.07-2.32-.04-.64-.07-1.29-.07-2.59,0-1.38.09-2.11.17-2.75.07-.58.13-1.08.13-2.16s-.08-1.52-.17-2.08c-.11-.66-.23-1.41-.23-2.83,0-1.32.05-1.99.1-2.63.04-.58.09-1.14.09-2.27s-.05-1.61-.12-2.2c-.07-.63-.14-1.35-.14-2.71,0-1.44.13-2.2.25-2.87.1-.57.18-1.02.18-2.04s-.07-1.53-.16-2.1c-.1-.66-.21-1.4-.21-2.81s.13-2.2.25-2.87c.1-.57.18-1.02.18-2.04,0-1.08-.06-1.58-.13-2.16-.08-.64-.17-1.37-.17-2.75,0-1.2-.01-1.81-.02-2.41-.01-.62-.02-1.25-.02-2.5,0-1.39.1-2.12.18-2.77.08-.57.14-1.07.14-2.14,0-1.26.02-1.89.03-2.51.01-.6.03-1.2.03-2.4s0-1.85,0-2.47c0-.61,0-1.22,0-2.44s-.01-1.8-.03-2.4c-.02-.63-.03-1.26-.03-2.51,0-1-.09-1.44-.19-1.99-.13-.68-.28-1.45-.28-2.91,0-1.32.05-1.99.1-2.64.04-.58.09-1.13.09-2.27s-.03-1.75-.06-2.34c-.03-.64-.06-1.28-.06-2.57s.05-2,.11-2.65c.05-.58.09-1.13.09-2.26s-.02-1.77-.04-2.36c-.02-.64-.05-1.27-.05-2.55s0-1.82-.01-2.43c0-.62-.01-1.24-.01-2.48s-.02-1.79-.04-2.38c-.02-.63-.04-1.26-.04-2.53,0-1.18-.03-1.76-.05-2.35-.03-.64-.05-1.28-.05-2.56,0-1.5.19-2.33.35-3,.13-.56.22-.96.22-1.91,0-1.11-.05-1.62-.11-2.22-.06-.63-.13-1.35-.13-2.69,0-1.12-.05-1.66-.1-2.24-.06-.63-.12-1.34-.12-2.68,0-1.2-.01-1.81-.03-2.41,0-.41-.02-.83-.02-1.42-.63-.02-1.08-.07-1.49-.11-.58-.05-1.13-.11-2.26-.11-1.19,0-1.79.02-2.39.05-.65.03-1.29.05-2.58.05-1.36,0-2.09-.07-2.73-.14-.6-.06-1.12-.11-2.24-.11-1.23,0-1.84,0-2.46.02-.63,0-1.26.02-2.52.02s-1.91-.02-2.54-.03c-.61-.01-1.21-.03-2.43-.03-1.14,0-1.69.05-2.28.1-.66.06-1.34.11-2.69.11-1.16,0-1.73.04-2.33.08-.65.04-1.32.09-2.64.09-1.16,0-1.72.04-2.32.08-.65.04-1.33.09-2.65.09-1.44,0-2.21-.13-2.88-.24-.58-.1-1.04-.18-2.09-.18-1.18,0-1.77.03-2.36.06-.64.03-1.3.07-2.61.07-1.09,0-1.6.06-2.19.14-.65.08-1.39.18-2.79.18s-2.18-.11-2.84-.21c-.57-.09-1.07-.16-2.13-.16-1.24,0-1.85,0-2.47,0-.62,0-1.25,0-2.5,0-1.03,0-1.49.08-2.07.18-.68.12-1.45.26-2.9.26h-4.97c-1.48,0-2.26-.16-2.95-.29-.57-.11-1.01-.2-2.02-.2-1.1,0-1.61.06-2.21.13-.65.08-1.38.16-2.77.16-1.16,0-1.72.04-2.32.08-.65.04-1.33.09-2.65.09-1.51,0-2.35-.19-3.02-.35-.55-.13-.98-.22-1.95-.22-1.26,0-1.89,0-2.52-.02-.61,0-1.23-.02-2.45-.02s-1.77.03-2.37.06c-.65.03-1.3.07-2.61.07-1.12,0-1.63.05-2.23.12-.64.07-1.37.15-2.74.15-1.18,0-1.77.03-2.36.06-.64.03-1.3.07-2.61.07s-1.92-.02-2.56-.04c-.6-.02-1.2-.04-2.41-.04-1.33,0-2-.05-2.65-.09-.6-.04-1.16-.08-2.32-.08-1.21,0-1.82.01-2.43.03-.64.02-1.27.03-2.54.03h-4.97c-1.11,0-1.63.06-2.23.13-.64.07-1.37.15-2.74.15-1.47,0-2.25-.15-2.94-.29-.57-.11-1.02-.2-2.03-.2s-1.44.09-2,.21c-.7.14-1.48.31-2.97.31s-2.41-.23-3.1-.41c-.55-.15-.94-.25-1.87-.25-1.16,0-1.72.04-2.31.09-.65.05-1.33.1-2.66.1-1.26,0-1.89-.01-2.52-.02-.61,0-1.22-.02-2.45-.02-1.11,0-1.63.06-2.23.12-.64.07-1.37.15-2.75.15-1.19,0-1.79.02-2.39.05-.65.03-1.29.05-2.59.05-1.17,0-1.74.03-2.34.07-.65.04-1.31.08-2.63.08s-2.1-.08-2.74-.15c-.6-.06-1.12-.12-2.23-.12s-1.62.06-2.22.12c-.65.07-1.38.15-2.75.15-1.46,0-2.23-.14-2.91-.26-.58-.1-1.03-.19-2.06-.19-1.27,0-1.9-.01-2.54-.03-.61-.01-1.22-.03-2.44-.03s-1.84,0-2.45.02c-.63,0-1.26.02-2.52.02-1.34,0-2.03-.06-2.69-.11-.59-.05-1.14-.1-2.29-.1s-1.63.06-2.23.12c-.64.07-1.37.15-2.74.15s-2.02-.05-2.68-.11c-.59-.05-1.15-.09-2.3-.09s-1.71.04-2.31.09c-.66.05-1.33.1-2.67.1-1.22,0-1.83.01-2.44.02-.63.01-1.27.02-2.53.02s-1.9-.01-2.54-.03c-.61-.01-1.22-.02-2.44-.02-1.05,0-1.53.08-2.09.17-.67.11-1.44.24-2.88.24-1.3,0-1.95-.03-2.6-.06-.59-.03-1.19-.05-2.38-.05-1.34,0-2.03-.06-2.69-.11-.59-.05-1.14-.1-2.29-.1s-1.7.05-2.29.09c-.66.05-1.34.11-2.68.11s-2.02-.05-2.67-.1c-.59-.05-1.15-.09-2.3-.09s-1.68.05-2.26.11c-.64.06-1.36.13-2.72.13s-2.09-.07-2.73-.14c-.6-.06-1.12-.11-2.25-.11-1.4,0-2.14-.1-2.79-.18-.59-.08-1.09-.14-2.18-.14-.98,0-1.42.1-1.97.22-.67.15-1.5.33-3.01.33-1.39,0-2.13-.09-2.78-.17-.59-.07-1.1-.13-2.2-.13-1.2,0-1.8.02-2.4.04-.64.02-1.29.05-2.58.05s-1.92-.02-2.56-.04c-.61-.02-1.21-.04-2.42-.04-1.28,0-1.92-.02-2.57-.04-.37-.01-.75-.02-1.26-.03-.01.74-.05,1.23-.08,1.7-.04.59-.07,1.15-.07,2.3s.04,1.69.08,2.28c.05.65.1,1.31.1,2.63s-.04,1.97-.09,2.61c-.04.59-.08,1.15-.08,2.29s.05,1.66.1,2.24c.06.62.12,1.33.12,2.66,0,1.18.02,1.77.05,2.36.02.64.05,1.27.05,2.54s-.03,1.92-.06,2.56c-.03.59-.05,1.17-.05,2.34,0,1.43-.13,2.19-.24,2.85-.1.57-.17,1.03-.17,2.05s.07,1.56.14,2.14c.09.65.18,1.38.18,2.77,0,1.21,0,1.81.02,2.42,0,.62.02,1.24.02,2.49,0,1.4-.11,2.14-.2,2.79-.08.57-.15,1.06-.15,2.11,0,1.26-.02,1.89-.03,2.51-.02.6-.03,1.19-.03,2.39,0,.96.09,1.36.22,1.92.15.66.34,1.49.34,2.99s-.21,2.36-.37,3.03c-.13.55-.23.94-.23,1.88,0,1.2.01,1.8.03,2.4.01.63.03,1.25.03,2.51,0,1.16.03,1.75.06,2.33.03.64.07,1.29.07,2.58s-.04,1.96-.08,2.6c-.04.59-.07,1.15-.07,2.3,0,1.05.07,1.53.16,2.09.1.66.21,1.41.21,2.81,0,1.13.04,1.68.09,2.26.05.65.1,1.32.1,2.64s-.02,1.9-.04,2.53c-.02.59-.04,1.19-.04,2.37,0,1.33-.06,2-.11,2.66-.05.58-.1,1.12-.1,2.25,0,1.2.01,1.8.03,2.4.01.63.03,1.25.03,2.5s0,1.82.02,2.42c0,.62.02,1.24.02,2.48,0,1.32-.05,1.99-.1,2.64-.04.58-.09,1.13-.09,2.27,0,1.04.08,1.52.16,2.08.1.66.22,1.41.22,2.83,0,1.26-.01,1.88-.03,2.51-.01.6-.03,1.2-.03,2.4,0,1.45-.14,2.21-.27,2.89-.1.56-.19,1.01-.19,2.02v4.91c0,1.14.05,1.69.09,2.28.05.65.1,1.31.1,2.63,0,1.06.07,1.55.15,2.12.09.65.2,1.39.2,2.79s-.15,2.24-.29,2.92c-.11.56-.2,1-.2,1.99,0,1.16.03,1.75.06,2.33.03.64.07,1.29.07,2.58s-.04,1.96-.08,2.59c-.03.6-.07,1.16-.07,2.32s0,1.81.02,2.41c0,.62.02,1.25.02,2.49,0,1.1.05,1.61.12,2.2.07.63.14,1.35.14,2.71,0,1.13.04,1.68.09,2.26.05.65.11,1.32.11,2.65s-.03,1.91-.05,2.55c-.02.59-.05,1.18-.05,2.36,0,1.32-.05,1.99-.1,2.64-.04.58-.09,1.13-.09,2.27,0,1.33-.06,2-.11,2.65-.05.58-.09,1.13-.09,2.26s.04,1.7.08,2.29c.04.64.09,1.31.09,2.62,0,1.19.02,1.78.04,2.37.02.64.04,1.27.04,2.54,0,1.16.03,1.73.06,2.33.04.64.07,1.29.07,2.59,0,1.2.02,1.79.03,2.39.01.41.02.82.03,1.39.63.03,1.07.08,1.48.12.6.06,1.12.12,2.23.12,1.32,0,2,.05,2.65.09.6.04,1.16.08,2.32.08s1.8-.02,2.4-.04c.64-.02,1.29-.05,2.58-.05,1.16,0,1.72-.04,2.31-.08.65-.05,1.33-.1,2.66-.1,1.08,0,1.58-.07,2.16-.15.66-.09,1.41-.19,2.81-.19Z" fill="#420656"/><path d="m333.32,283.31c-2.46,0-2.46-.07-4.91-.07s-2.46-.34-4.91-.34-2.45.03-4.91.03-2.45,0-4.91,0-2.46-.08-4.91-.08-2.46-.01-4.91-.01-2.46.09-4.91.09-2.45.15-4.91.15-2.46.4-4.91.4-2.46,0-4.91,0-2.46-.6-4.91-.6-2.46,0-4.91,0-2.46.31-4.91.31-2.46-.24-4.91-.24-2.46.27-4.91.27-2.46.14-4.91.14-2.46-.14-4.91-.14-2.46.15-4.91.15-2.46-.2-4.91-.2-2.46-.24-4.91-.24-2.46.07-4.91.07-2.46.28-4.92.28-2.46-.08-4.91-.08-2.45-.05-4.91-.05-2.46.13-4.91.13-2.46.06-4.91.06-2.46-.35-4.91-.35-2.46.13-4.92.13-2.46.22-4.92.22-2.46-.03-4.92-.03-2.46.12-4.92.12-2.46-.25-4.91-.25-2.46.1-4.92.1-2.46-.3-4.92-.3-2.46-.03-4.92-.03c-.38,0-.42-.08-.42-.46,0-2.45-.13-2.45-.13-4.89s.02-2.45.02-4.89.07-2.44.07-4.89-.14-2.45-.14-4.89.05-2.44.05-4.89-.29-2.45-.29-4.89.44-2.45.44-4.89-.25-2.45-.25-4.89-.2-2.45-.2-4.89.29-2.45.29-4.89-.37-2.45-.37-4.89-.04-2.45-.04-4.9.46-2.45.46-4.9-.28-2.45-.28-4.9c0-.38.41-.97.79-.97,2.46,0,2.46.24,4.91.24s2.46-.12,4.91-.12,2.45.43,4.91.43,2.45-.54,4.91-.54,2.46.37,4.91.37,2.46.09,4.91.09,2.46-.04,4.91-.04,2.45-.43,4.91-.43,2.46.1,4.91.1,2.46.5,4.91.5,2.46-.59,4.91-.59,2.46.53,4.91.53,2.46-.27,4.91-.27,2.46.35,4.91.35,2.46-.6,4.91-.6,2.46.48,4.91.48,2.46-.35,4.91-.35,2.46-.19,4.91-.19,2.46.34,4.91.34,2.46.17,4.91.17,2.46.03,4.91.03,2.46-.44,4.92-.44,2.46-.06,4.91-.06,2.45.6,4.91.6,2.46-.48,4.91-.48,2.46-.08,4.91-.08,2.46-.07,4.91-.07,2.46.5,4.92.5,2.46-.11,4.92-.11,2.46-.04,4.92-.04,2.46.07,4.92.07,2.46-.3,4.91-.3,2.46.19,4.92.19,2.46-.23,4.92-.23,2.46.06,4.92.06c.38,0,.9.47.9.84,0,2.45-.45,2.45-.45,4.89s-.11,2.45-.11,4.89.12,2.44.12,4.89.09,2.45.09,4.89.12,2.44.12,4.89.04,2.45.04,4.89.01,2.45.01,4.89-.28,2.45-.28,4.89,0,2.45,0,4.89.15,2.45.15,4.89-.18,2.45-.18,4.89.16,2.45.16,4.9.36,2.45.36,4.9-.44,2.45-.44,4.9c0,.38-.14.83-.52.83Z" fill="#8d22e9"/><path d="m252.3,362.99c-2.53,0-2.53-.05-5.05-.05s-2.53.41-5.05.41-2.53-.51-5.05-.51-2.53.13-5.05.13-2.53.41-5.05.41-2.53-.37-5.05-.37-2.52.27-5.05.27-2.53.13-5.05.13-2.52-.18-5.05-.18-2.53-.02-5.05-.02-2.53-.25-5.05-.25-2.53.5-5.05.5-2.53-.05-5.05-.05-2.53,0-5.05,0-2.53-.42-5.05-.42-2.53.04-5.06.04-2.53.08-5.06.08-2.53.21-5.06.21c-.38,0-.47-.51-.47-.89,0-2.4-.56-2.4-.56-4.8s.35-2.4.35-4.8.05-2.4.05-4.8-.18-2.4-.18-4.8-.02-2.4-.02-4.8.13-2.4.13-4.8-.02-2.4-.02-4.8.33-2.4.33-4.8-.42-2.4-.42-4.8.29-2.4.29-4.8.15-2.4.15-4.8-.15-2.4-.15-4.8-.03-2.4-.03-4.81-.26-2.41-.26-4.81-.09-2.41-.09-4.81c0-.38.52-.81.9-.81,2.53,0,2.53.41,5.05.41s2.53-.62,5.05-.62,2.53.28,5.05.28,2.53.12,5.05.12,2.53-.16,5.05-.16,2.53.16,5.05.16,2.52.19,5.05.19,2.53-.36,5.05-.36,2.52.28,5.05.28,2.53.08,5.05.08,2.53-.09,5.05-.09,2.53-.08,5.05-.08,2.53.25,5.05.25,2.53-.21,5.05-.21,2.53-.12,5.05-.12,2.53.23,5.06.23,2.53-.11,5.06-.11,2.53-.26,5.06-.26c.38,0,.69.44.69.82,0,2.4.24,2.4.24,4.8s-.39,2.4-.39,4.8.17,2.4.17,4.8-.15,2.4-.15,4.8.07,2.4.07,4.8-.24,2.4-.24,4.8.07,2.4.07,4.8,0,2.4,0,4.8.05,2.4.05,4.8.45,2.4.45,4.8-.08,2.4-.08,4.8-.15,2.4-.15,4.8.08,2.4.08,4.81-.2,2.41-.2,4.81.21,2.41.21,4.81c0,.38-.45.57-.83.57Z" fill="#8d22e9"/><path d="m334.24,363.37c-2.55,0-2.55-.52-5.11-.52s-2.55.02-5.11.02-2.55.46-5.1.46-2.55-.44-5.11-.44-2.55.1-5.1.1-2.55-.15-5.11-.15-2.55.42-5.11.42-2.55.05-5.11.05-2.55-.45-5.11-.45-2.56.51-5.11.51-2.55,0-5.11,0-2.56-.58-5.11-.58-2.56.33-5.12.33-2.56.29-5.12.29c-.38,0-.69-.62-.69-1,0-2.4.34-2.4.34-4.8s-.66-2.4-.66-4.8.1-2.4.1-4.8.22-2.4.22-4.8-.25-2.4-.25-4.8.59-2.4.59-4.8-.51-2.4-.51-4.8.36-2.4.36-4.8-.05-2.4-.05-4.8.09-2.4.09-4.8,0-2.4,0-4.8-.35-2.4-.35-4.8-.14-2.4-.14-4.81.08-2.41.08-4.81.19-2.41.19-4.81c0-.38.32-.56.7-.56,2.55,0,2.55-.3,5.11-.3s2.55.52,5.11.52,2.55-.06,5.1-.06,2.55-.27,5.11-.27,2.55-.31,5.1-.31,2.55.39,5.11.39,2.55.24,5.11.24,2.55-.62,5.11-.62,2.55.32,5.11.32,2.56-.11,5.11-.11,2.55-.15,5.11-.15,2.56.37,5.11.37,2.56.17,5.12.17,2.56-.44,5.12-.44c.38,0,.7.43.7.81,0,2.4.14,2.4.14,4.8s-.22,2.4-.22,4.8.29,2.4.29,4.8-.53,2.4-.53,4.8.01,2.4.01,4.8.34,2.4.34,4.8.13,2.4.13,4.8-.07,2.4-.07,4.8-.23,2.4-.23,4.8.16,2.4.16,4.8.05,2.4.05,4.8-.24,2.4-.24,4.8-.17,2.4-.17,4.81.16,2.41.16,4.81.47,2.41.47,4.81c0,.38-.6.95-.98.95Z" fill="#8d22e9"/><path d="m429.91,139.58c-.94-.05-1.99-.25-2.85-.78-.9-.56-1.29-1.62-1.76-2.49s-.71-1.81-.68-2.83.25-1.91.81-2.81q.95-1.53,1.9-3.07c.95-1.53.91-1.56,1.86-3.09s.78-1.63,1.74-3.17.85-1.6,1.8-3.13.96-1.53,1.91-3.06,1.07-1.46,2.02-3,1.18-1.4,2.13-2.93.98-1.52,1.94-3.05c.56-.9,1.18-1.64,2.05-2.11s1.87-.63,2.9-.59,1.98.16,2.88.72c.9.56,1.59,1.32,2.06,2.2s.92,1.91.89,2.94-.33,2.08-.89,2.99c-.95,1.53-1.01,1.5-1.96,3.03s-1.04,1.48-1.99,3.01-1.14,1.41-2.1,2.94-.74,1.67-1.69,3.2-1.16,1.41-2.11,2.94-.93,1.55-1.88,3.08-.67,1.71-1.63,3.25-1.26,1.35-2.21,2.88c-.58.93-1.23,1.68-2.13,2.15s-1.95.87-3,.81Z" fill="url(#uuid-3a2958ec-4925-43bf-a771-5dba16ae6666)"/><path d="m403.99,139.45c-1.36-.08-2.61-.56-3.58-1.44s-1.85-2.01-2.06-3.39c-.27-1.78-.12-1.81-.39-3.59s-.24-1.79-.51-3.57-.04-1.82-.31-3.6-.63-1.73-.9-3.51-.34-1.77-.61-3.56.2-1.86-.07-3.64-.52-1.75-.79-3.54-.15-1.81-.42-3.59c-.16-1.05-.13-2.06.24-2.98s.9-1.9,1.7-2.54,1.78-1.05,2.84-1.21c1.05-.16,2.17-.13,3.1.23s1.54,1.33,2.18,2.13,1.02,1.61,1.18,2.66c.27,1.78.31,1.78.58,3.56s.27,1.78.54,3.57.32,1.78.59,3.56.46,1.76.73,3.54.39,1.77.66,3.55.27,1.79.54,3.57.14,1.81.41,3.6.01,1.83.28,3.62c.16,1.05,0,1.97-.36,2.89s-.84,1.81-1.64,2.45-1.69.95-2.74,1.11c-.41.06-.78.16-1.18.14Z" fill="url(#uuid-15c62979-7a31-4ced-bf63-00ed548ba67a)"/><path d="m441.48,164c-1.21-.07-2.23-.69-3.16-1.42s-1.7-1.57-2.05-2.77c-.3-1.02-.34-2.04-.11-3s.63-2,1.33-2.74,1.7-1,2.72-1.3c1.73-.52,1.66-.76,3.39-1.28s1.75-.46,3.48-.97,1.74-.48,3.47-1,1.68-.69,3.41-1.21,1.73-.5,3.46-1.02,1.73-.5,3.47-1.02,1.7-.63,3.43-1.15,1.82-.21,3.56-.73c1.02-.3,2.02-.38,2.99-.15s2.06.56,2.8,1.26,1.19,1.69,1.5,2.7c.3,1.02.29,2.08.06,3.04s-.91,1.77-1.61,2.51-1.36,1.57-2.38,1.87c-1.73.52-1.71.58-3.44,1.1s-1.86.07-3.59.58-1.66.76-3.38,1.27-1.76.4-3.49.92-1.7.61-3.43,1.13-1.69.65-3.42,1.17-1.74.49-3.47,1.01-1.7.63-3.43,1.15c-.67.2-1.41.08-2.06.04Z" fill="url(#uuid-93ace44a-ee90-4640-a510-0a8a5c3bc81a)"/><path d="m444.35,398.91c-2.46,0-2.46-.4-4.91-.4s-2.46.37-4.91.37-2.46.24-4.91.24-2.46-.56-4.91-.56-2.46.46-4.91.46-2.46-.5-4.91-.5-2.46-.04-4.91-.04-2.46.03-4.91.03-2.46.46-4.91.46-2.46.18-4.91.18-2.46-.43-4.91-.43-2.46.09-4.91.09-2.46.29-4.91.29-2.46.06-4.91.06-2.46-.35-4.91-.35-2.46.15-4.91.15-2.46-.17-4.91-.17-2.46.2-4.91.2-2.46-.47-4.91-.47-2.46.63-4.91.63-2.46-.47-4.91-.47-2.46.45-4.91.45-2.46-.38-4.91-.38-2.46-.12-4.91-.12-2.46.22-4.91.22-2.46.02-4.91.02-2.46-.24-4.91-.24-2.46-.04-4.92-.04-2.46.19-4.91.19-2.46-.13-4.91-.13-2.46-.07-4.91-.07-2.46.26-4.92.26-2.46.08-4.91.08-2.46-.07-4.91-.07-2.46.11-4.91.11-2.46.09-4.92.09-2.46.07-4.91.07-2.46-.17-4.91-.17-2.46-.35-4.92-.35-2.46-.07-4.91-.07-2.46.6-4.91.6-2.45-.06-4.91-.06-2.45-.23-4.91-.23-2.46-.18-4.91-.18-2.46.05-4.92.05-2.46.2-4.91.2-2.46-.12-4.91-.12-2.46.33-4.91.33-2.46-.17-4.91-.17-2.46-.26-4.92-.26-2.46.26-4.91.26-2.46-.17-4.91-.17-2.46.12-4.91.12-2.46-.29-4.92-.29-2.46.47-4.91.47-2.46-.37-4.92-.37-2.46.15-4.92.15-2.46-.26-4.91-.26-2.46.5-4.92.5-2.46-.2-4.92-.2-2.46-.17-4.92-.17-2.46.25-4.92.25-2.46-.4-4.92-.4-2.46-.05-4.92-.05-2.46.36-4.92.36-2.46.32-4.92.32-2.46-.3-4.92-.3-2.46.06-4.91.06-2.46-.21-4.92-.21-2.46-.21-4.91-.21-2.46.07-4.92.07-2.46-.03-4.92-.03-2.46.41-4.92.41-2.46.18-4.92.18-2.46.01-4.92.01-2.46-.58-4.92-.58-2.46.04-4.92.04-2.46.12-4.93.12-2.46.03-4.93.03c-1.87,0-3.49-1.19-3.96-2.99-.71-2.69-1.03-2.6-1.74-5.29s-.42-2.76-1.14-5.45c-.23-.87.44-1.63,1.34-1.63,2.46,0,2.46-.22,4.93-.22s2.46-.22,4.93-.22,2.46.2,4.93.2,2.46.14,4.93.14,2.46.3,4.93.3,2.46-.14,4.93-.14,2.46.07,4.93.07,2.46-.03,4.93-.03,2.46,0,4.93,0,2.46,0,4.93,0,2.46-.48,4.93-.48,2.46.16,4.93.16,2.46.12,4.93.12,2.46-.2,4.93-.2,2.46.17,4.93.17,2.46-.3,4.93-.3,2.46.02,4.93.02,2.46.15,4.93.15,2.46.13,4.93.13,2.46-.17,4.93-.17,2.46.2,4.93.2,2.46.28,4.93.28,2.46-.02,4.93-.02,2.46-.11,4.93-.11,2.46-.18,4.93-.18,2.46-.21,4.93-.21,2.46.55,4.93.55,2.46-.62,4.93-.62,2.46,0,4.93,0,2.46.15,4.93.15,2.46-.03,4.93-.03,2.46.54,4.93.54,2.46-.31,4.93-.31,2.47-.19,4.93-.19,2.46-.15,4.93-.15,2.46.06,4.93.06,2.46.29,4.93.29,2.47-.16,4.93-.16,2.46-.03,4.93-.03,2.46-.04,4.93-.04,2.46.27,4.93.27,2.46-.06,4.93-.06,2.46.19,4.93.19,2.46-.3,4.92-.3,2.46.01,4.92.01,2.46.38,4.93.38,2.46-.09,4.93-.09,2.46-.04,4.93-.04,2.46-.37,4.93-.37,2.46-.04,4.93-.04,2.46.19,4.93.19,2.47.19,4.93.19,2.46-.39,4.93-.39,2.46.02,4.93.02,2.46.14,4.93.14,2.47-.15,4.93-.15,2.46.15,4.93.15,2.46-.08,4.93-.08,2.47.23,4.93.23,2.46-.4,4.93-.4,2.47.62,4.93.62,2.47-.6,4.93-.6,2.47.08,4.93.08,2.47.35,4.93.35,2.47.09,4.93.09,2.47.06,4.93.06,2.47-.11,4.93-.11,2.47-.37,4.93-.37,2.47.12,4.93.12,2.46.28,4.93.28,2.47-.04,4.93-.04,2.46-.37,4.93-.37,2.47.55,4.93.55,2.47-.35,4.93-.35,2.47-.13,4.93-.13,2.47-.18,4.93-.18,2.47.56,4.94.56,2.47-.26,4.93-.26,2.47.11,4.94.11,2.47-.06,4.94-.06,2.47-.31,4.94-.31c.9,0,1.56,1.12,1.33,1.99-.71,2.69-.77,2.67-1.49,5.36s-.9,2.64-1.61,5.33c-.48,1.8-1.86,3.23-3.73,3.23Z" fill="#fff"/><path d="m120.02,401.55c-1.38,0-2.11-.09-2.75-.17-.58-.07-1.08-.13-2.16-.13-1.2,0-1.8.01-2.4.03-.63.02-1.26.03-2.52.03-1.33,0-2.01-.06-2.67-.12-.58-.05-1.13-.1-2.25-.1-1.33,0-2.01-.06-2.66-.11-.58-.05-1.13-.1-2.26-.1-1.2,0-1.79.02-2.39.03-.63.02-1.26.04-2.53.04s-1.87,0-2.49-.02c-.61,0-1.21-.02-2.43-.02-1.03,0-1.49.08-2.06.17-.67.11-1.43.24-2.86.24-1.14,0-1.7.04-2.29.08-.65.05-1.32.1-2.63.1-1.22,0-1.84,0-2.45,0-.62,0-1.24,0-2.47,0-1.51,0-2.34-.2-3.01-.35-.56-.13-.96-.23-1.91-.23-1.21,0-1.82,0-2.42.02-.62,0-1.25.02-2.5.02-1.17,0-1.76.03-2.34.06-.65.03-1.29.07-2.58.07-1.22,0-1.83,0-2.44.01-.62,0-1.24.01-2.49.01-2.96,0-5.54-1.96-6.28-4.78-.32-1.21-.53-1.75-.78-2.38-.27-.67-.57-1.43-.96-2.92-.39-1.47-.51-2.27-.62-2.98-.1-.65-.19-1.26-.52-2.48-.29-1.11-.06-2.27.63-3.17.72-.93,1.82-1.47,3.03-1.47,1.13,0,1.67-.05,2.25-.1.63-.06,1.34-.12,2.67-.12,1.12,0,1.67-.05,2.25-.1.63-.06,1.34-.12,2.68-.12s2,.05,2.65.11c.58.05,1.14.09,2.27.09,1.3,0,1.96.04,2.6.08.6.03,1.16.07,2.33.07,1.38,0,2.11.09,2.75.17.58.07,1.09.13,2.17.13,1.16,0,1.73-.03,2.32-.07.64-.04,1.3-.08,2.6-.08s1.9.02,2.53.03c.6.02,1.2.03,2.4.03s1.82,0,2.43-.02c.62,0,1.25-.02,2.5-.02h9.85c1,.01,1.44-.08,2-.18.68-.13,1.46-.29,2.93-.29,1.31,0,1.97.04,2.62.08.59.04,1.16.07,2.31.07,1.29,0,1.93.03,2.58.06.59.03,1.17.06,2.35.06s1.69-.04,2.27-.09c.65-.05,1.33-.11,2.66-.11s1.98.05,2.63.09c.59.04,1.15.08,2.3.08,1.09,0,1.59-.06,2.18-.13.64-.08,1.37-.17,2.75-.17,1.24,0,1.86,0,2.48,0,.61,0,1.22,0,2.45,0,1.31,0,1.97.04,2.61.08.6.04,1.16.07,2.32.07,1.29,0,1.94.03,2.59.07.59.03,1.17.06,2.34.06s1.71-.04,2.3-.08c.65-.04,1.31-.09,2.63-.09s2,.05,2.65.11c.58.05,1.14.09,2.27.09,1.37,0,2.09.08,2.73.15.59.07,1.1.12,2.2.12,1.22,0,1.84,0,2.45,0,.62,0,1.24,0,2.48,0,1.18,0,1.76-.03,2.35-.05.64-.03,1.29-.06,2.58-.06,1.15,0,1.7-.04,2.29-.08.65-.05,1.32-.09,2.64-.09,1.13,0,1.68-.05,2.26-.1.66-.06,1.34-.12,2.67-.12,1.5,0,2.32.18,2.99.33.54.12.97.22,1.94.22s1.33-.1,1.88-.24c.68-.17,1.52-.38,3.05-.38h4.93c1.3,0,1.97.04,2.61.07.6.04,1.16.07,2.32.07s1.83,0,2.43-.02c.62,0,1.25-.02,2.49-.02,1.49,0,2.32.18,2.98.33.55.12.98.22,1.95.22,1.08,0,1.58-.06,2.17-.14.65-.08,1.38-.17,2.76-.17,1.14,0,1.7-.04,2.28-.09.65-.05,1.32-.1,2.65-.1,1.16,0,1.72-.04,2.32-.07.64-.04,1.31-.08,2.61-.08s1.89.02,2.52.03c.6.01,1.2.03,2.41.03,1.37,0,2.1.09,2.74.16.59.07,1.09.13,2.18.13,1.16,0,1.72-.04,2.31-.07.64-.04,1.31-.08,2.62-.08,1.22,0,1.83,0,2.44-.01.62,0,1.25-.01,2.49-.01s1.82,0,2.43-.02c.62,0,1.25-.02,2.5-.02,1.37,0,2.09.08,2.73.15.59.07,1.1.12,2.2.12,1.21,0,1.81-.01,2.41-.03.63-.01,1.26-.03,2.52-.03,1.32,0,2,.05,2.65.1.59.04,1.14.09,2.28.09s1.59-.06,2.17-.13c.65-.08,1.38-.17,2.75-.17,1.24,0,1.86,0,2.48,0,.61,0,1.22,0,2.45,0,1.42,0,2.17.12,2.83.22.56.09,1.05.16,2.09.16,1.19,0,1.78-.02,2.38-.04.64-.02,1.28-.05,2.55-.05s1.82,0,2.42-.02c.63,0,1.25-.02,2.5-.02,1.05,0,1.54-.07,2.11-.16.66-.1,1.41-.21,2.82-.21,1.21,0,1.82,0,2.42-.02.63,0,1.25-.02,2.5-.02,1.32,0,2,.05,2.65.1.59.04,1.14.09,2.28.09,1.33,0,2,.05,2.65.1.59.05,1.14.09,2.28.09,1.04,0,1.53-.08,2.09-.17.66-.1,1.42-.22,2.84-.22,1.24,0,1.86,0,2.48,0,.61,0,1.22,0,2.45,0,1.3,0,1.96.04,2.6.08.6.03,1.16.07,2.33.07s1.72-.04,2.32-.07c.64-.04,1.31-.08,2.61-.08s1.97.04,2.61.08c.6.04,1.16.07,2.32.07s1.79-.02,2.39-.04c.64-.02,1.27-.04,2.54-.04,1.34,0,2.06.07,2.69.12.58.05,1.12.1,2.24.1,1.04,0,1.52-.08,2.08-.17.67-.11,1.42-.23,2.85-.23,1.53,0,2.38.21,3.05.38.55.14.94.24,1.88.24s1.34-.1,1.9-.23c.67-.16,1.51-.37,3.03-.37,1.27,0,1.91.02,2.55.04.6.02,1.19.04,2.38.04,1.4,0,2.15.11,2.8.2.57.08,1.07.15,2.13.15,1.28,0,1.92.02,2.55.05.59.02,1.19.04,2.38.04,1.26,0,1.89.02,2.53.03.6.01,1.2.03,2.41.03s1.77-.03,2.36-.05c.64-.03,1.28-.05,2.57-.05,1.05,0,1.54-.07,2.11-.16.66-.1,1.41-.21,2.82-.21,1.29,0,1.94.03,2.58.06.59.03,1.18.06,2.35.06,1.37,0,2.09.08,2.74.16.59.07,1.1.12,2.19.12,1.21,0,1.82,0,2.43-.02.63-.01,1.25-.02,2.51-.02,1.05,0,1.54-.07,2.11-.16.66-.1,1.41-.21,2.82-.21,1.5,0,2.32.18,2.98.33.55.12.98.22,1.95.22,1.06,0,1.56-.07,2.13-.15.66-.09,1.4-.2,2.81-.2,1.17,0,1.75-.03,2.34-.06.64-.03,1.3-.07,2.59-.07,1.14,0,1.7-.04,2.29-.08.65-.05,1.32-.1,2.64-.1,1.5,0,2.33.19,3,.34.56.13.97.22,1.93.22,1.11,0,1.62-.05,2.22-.12.64-.07,1.36-.14,2.71-.14,1.29,0,1.93.03,2.58.06.59.03,1.18.05,2.36.05s1.81-.01,2.42-.03c.63-.01,1.26-.03,2.52-.03,1.09,0,1.59-.06,2.17-.13.65-.08,1.38-.17,2.77-.17,1.12,0,2.18.54,2.9,1.48.78,1.02,1.06,2.33.75,3.53-.36,1.37-.56,2.05-.76,2.74-.19.65-.38,1.31-.73,2.62-.38,1.43-.62,2.14-.86,2.83-.22.64-.42,1.24-.76,2.5-.79,3-3.22,5.01-6.04,5.01-1.42,0-2.18-.12-2.85-.23-.56-.09-1.04-.17-2.07-.17s-1.54.07-2.1.16c-.66.1-1.4.21-2.81.21-1.11,0-1.62.05-2.22.11-.63.06-1.35.13-2.69.13-1.5,0-2.33-.19-2.99-.34-.56-.13-.96-.22-1.92-.22-1,0-1.45.08-2.01.19-.68.13-1.45.27-2.9.27s-2.25-.16-2.93-.3c-.55-.11-.99-.2-1.98-.2-1.25,0-1.87-.01-2.5-.02-.6-.01-1.21-.02-2.42-.02s-1.82,0-2.43.01c-.62,0-1.24.01-2.48.01-1.01,0-1.45.08-2.02.19-.68.13-1.45.27-2.9.27-1.14,0-1.7.04-2.29.08-.65.05-1.31.09-2.63.09-1.44,0-2.2-.13-2.88-.25-.57-.1-1.02-.18-2.04-.18-1.18,0-1.77.02-2.36.04-.64.02-1.27.05-2.55.05-1.09,0-1.59.06-2.18.13-.64.08-1.37.16-2.73.16-1.2,0-1.8.01-2.4.03-.63.01-1.25.03-2.51.03-1.4,0-2.14-.11-2.79-.2-.57-.08-1.06-.15-2.12-.15-1.16,0-1.72.03-2.31.07-.64.04-1.3.08-2.6.08s-1.98-.05-2.62-.09c-.59-.04-1.14-.08-2.29-.08s-1.68.04-2.26.09c-.65.05-1.33.11-2.65.11-1.46,0-2.23-.15-2.91-.28-.56-.11-1-.19-2-.19-.93,0-1.32.1-1.86.24-.68.17-1.52.39-3.05.39s-2.23-.15-2.91-.28c-.56-.11-1-.19-2-.19s-1.46.08-2.03.19c-.68.12-1.44.26-2.89.26s-2.17-.12-2.83-.22c-.56-.09-1.04-.16-2.09-.16-1.29,0-1.93-.03-2.58-.06-.58-.03-1.17-.06-2.34-.06s-1.67.05-2.25.1c-.62.06-1.33.12-2.67.12-1.22,0-1.83,0-2.44,0-.62,0-1.24,0-2.47,0-1.34,0-2.06-.07-2.69-.13-.6-.06-1.12-.11-2.23-.11-1.25,0-1.87-.01-2.5-.02-.6-.01-1.21-.02-2.42-.02-1.14,0-1.69.04-2.27.09-.65.05-1.32.1-2.64.1s-1.93-.03-2.58-.07c-.58-.03-1.17-.06-2.33-.06-1.26,0-1.89-.02-2.52-.03-.6-.02-1.2-.03-2.39-.03-1.1,0-1.62.05-2.21.12-.63.07-1.35.14-2.71.14-1.19,0-1.79.02-2.38.04-.63.02-1.27.04-2.53.04s-1.9-.02-2.53-.04c-.6-.02-1.19-.04-2.39-.04s-1.76.03-2.35.05c-.64.03-1.28.06-2.56.06-1.19,0-1.78.02-2.37.04-.64.02-1.27.04-2.54.04-1.2,0-1.79.02-2.39.03-.63.02-1.26.03-2.52.03s-1.98-.04-2.62-.09c-.59-.04-1.15-.08-2.29-.08-1.4,0-2.14-.11-2.8-.2-.57-.08-1.06-.15-2.12-.15-1.26,0-1.9-.02-2.53-.04-.6-.02-1.19-.04-2.39-.04-.94,0-1.34.1-1.89.23-.67.16-1.51.37-3.02.37-1.26,0-1.88-.02-2.51-.03-.6-.01-1.2-.03-2.4-.03-1.34,0-2.05-.07-2.68-.13-.57-.05-1.12-.11-2.23-.11-1.32,0-1.99-.05-2.63-.1-.59-.04-1.14-.08-2.28-.08-1.21,0-1.81.01-2.41.02-.63.01-1.25.02-2.5.02-1.13,0-1.68.04-2.26.09-.65.05-1.33.11-2.65.11s-1.93-.03-2.57-.06c-.58-.03-1.17-.06-2.34-.06-1.07,0-1.56.07-2.14.14-.65.09-1.39.19-2.78.19-1.31,0-1.98-.05-2.63-.09-.59-.04-1.14-.08-2.29-.08-1.35,0-2.07-.07-2.71-.14-.59-.06-1.11-.11-2.21-.11s-1.61.05-2.2.12c-.64.07-1.36.15-2.71.15s-1.98-.05-2.62-.09c-.59-.04-1.14-.08-2.29-.08s-1.76.03-2.34.06c-.64.03-1.29.06-2.57.06-1.37,0-2.1-.08-2.74-.16-.58-.07-1.09-.13-2.18-.13-1,0-1.45.08-2.01.19-.68.13-1.45.27-2.9.27s-2.16-.11-2.82-.21c-.56-.08-1.05-.16-2.1-.16-1.16,0-1.72.03-2.32.07-.64.04-1.3.08-2.6.08s-2.08-.08-2.71-.14c-.59-.06-1.1-.12-2.2-.12-.99,0-1.43.09-1.98.2-.69.14-1.46.3-2.93.3-1.33,0-2-.05-2.65-.11-.58-.05-1.13-.09-2.26-.09-1.31,0-1.98-.05-2.62-.09-.59-.04-1.15-.08-2.29-.08s-1.62.05-2.21.11c-.63.06-1.35.14-2.7.14-1.42,0-2.18-.12-2.84-.23-.56-.09-1.04-.17-2.07-.17-1.25,0-1.88-.01-2.51-.02-.6-.01-1.21-.02-2.41-.02-1.06,0-1.55.07-2.11.15-.66.1-1.4.2-2.8.2-1.07,0-1.57.06-2.15.14-.65.08-1.38.18-2.77.18Zm-4.92-5.1c1.38,0,2.11.09,2.75.17.58.07,1.08.13,2.16.13s1.57-.06,2.15-.14c.65-.08,1.38-.18,2.77-.18,1.06,0,1.55-.07,2.11-.15.66-.1,1.4-.2,2.8-.2,1.25,0,1.88.01,2.5.02.6.01,1.21.02,2.41.02,1.42,0,2.18.12,2.84.23.56.09,1.04.17,2.07.17,1.11,0,1.62-.05,2.21-.11.63-.06,1.35-.14,2.7-.14s1.98.05,2.62.09c.59.04,1.15.08,2.3.08,1.33,0,2,.05,2.65.11.58.05,1.13.09,2.26.09.99,0,1.43-.09,1.98-.2.69-.14,1.46-.3,2.93-.3,1.36,0,2.08.08,2.71.14.59.06,1.1.12,2.2.12,1.16,0,1.72-.03,2.32-.07.64-.04,1.3-.08,2.6-.08,1.41,0,2.16.11,2.82.21.56.08,1.05.16,2.1.16s1.45-.08,2.01-.19c.68-.13,1.45-.27,2.9-.27,1.37,0,2.09.08,2.74.16.58.07,1.09.13,2.18.13,1.17,0,1.76-.03,2.34-.06.64-.03,1.29-.06,2.57-.06s1.98.05,2.62.09c.59.04,1.14.08,2.29.08s1.61-.05,2.2-.12c.64-.07,1.36-.15,2.71-.15s2.07.07,2.71.14c.59.06,1.11.11,2.21.11,1.31,0,1.98.05,2.63.09.59.04,1.14.08,2.29.08,1.07,0,1.56-.07,2.13-.14.65-.09,1.39-.19,2.78-.19,1.29,0,1.93.03,2.57.06.58.03,1.17.06,2.34.06s1.68-.04,2.26-.09c.65-.05,1.33-.11,2.65-.11,1.21,0,1.81-.01,2.41-.02.63-.01,1.25-.02,2.5-.02,1.32,0,1.99.05,2.63.1.59.04,1.14.08,2.28.08,1.34,0,2.05.07,2.68.13.57.05,1.12.11,2.23.11,1.26,0,1.88.02,2.51.03.6.01,1.2.03,2.4.03.94,0,1.34-.1,1.89-.23.67-.16,1.51-.37,3.03-.37,1.26,0,1.9.02,2.53.04.6.02,1.19.04,2.39.04,1.4,0,2.14.11,2.8.2.57.08,1.06.15,2.11.15,1.31,0,1.97.04,2.62.09.59.04,1.15.08,2.3.08s1.79-.02,2.39-.03c.63-.02,1.26-.03,2.52-.03,1.19,0,1.78-.02,2.37-.04.64-.02,1.27-.04,2.54-.04,1.17,0,1.76-.03,2.35-.05.64-.03,1.28-.06,2.56-.06s1.9.02,2.53.04c.6.02,1.19.04,2.39.04s1.79-.02,2.38-.04c.63-.02,1.27-.04,2.53-.04,1.1,0,1.62-.05,2.21-.12.63-.07,1.35-.14,2.71-.14,1.26,0,1.89.02,2.52.03.6.02,1.2.03,2.39.03,1.29,0,1.93.03,2.58.07.58.03,1.17.06,2.33.06s1.69-.04,2.27-.09c.65-.05,1.32-.1,2.64-.1,1.25,0,1.87.01,2.5.02.6.01,1.21.02,2.42.02,1.34,0,2.06.07,2.69.13.6.06,1.11.11,2.23.11,1.22,0,1.83,0,2.44,0,.62,0,1.24,0,2.47,0,1.12,0,1.67-.05,2.25-.1.62-.06,1.33-.12,2.67-.12s1.93.03,2.58.06c.58.03,1.17.06,2.34.06,1.41,0,2.16.12,2.83.22.56.09,1.04.16,2.09.16s1.46-.08,2.02-.19c.68-.12,1.44-.26,2.89-.26s2.23.15,2.91.28c.56.11,1,.19,2,.19.93,0,1.32-.1,1.86-.24.68-.17,1.52-.39,3.05-.39s2.23.15,2.91.28c.56.11,1,.19,2,.19,1.13,0,1.68-.04,2.26-.09.65-.05,1.33-.11,2.65-.11s1.98.05,2.62.09c.59.04,1.14.08,2.29.08s1.72-.03,2.31-.07c.64-.04,1.3-.08,2.6-.08,1.4,0,2.14.11,2.79.2.57.08,1.06.15,2.12.15,1.2,0,1.8-.01,2.4-.03.63-.01,1.26-.03,2.51-.03,1.09,0,1.59-.06,2.18-.13.64-.08,1.37-.16,2.73-.16,1.18,0,1.77-.02,2.36-.04.64-.02,1.27-.05,2.55-.05,1.44,0,2.2.13,2.87.25.57.1,1.02.18,2.04.18,1.14,0,1.7-.04,2.29-.08.65-.05,1.31-.09,2.63-.09,1.01,0,1.45-.08,2.02-.19.68-.13,1.45-.27,2.9-.27,1.22,0,1.82,0,2.43-.01.62,0,1.24-.01,2.48-.01s1.87.01,2.5.02c.6.01,1.21.02,2.42.02,1.47,0,2.25.16,2.94.3.55.11.99.2,1.98.2s1.45-.08,2.01-.19c.68-.13,1.45-.27,2.9-.27s2.33.19,2.99.34c.56.13.96.22,1.92.22,1.11,0,1.63-.05,2.22-.11.63-.06,1.35-.13,2.69-.13,1.05,0,1.54-.07,2.1-.16.66-.1,1.4-.21,2.81-.21s2.18.12,2.85.23c.56.09,1.04.17,2.07.17.76,0,1.23-.78,1.41-1.44.38-1.42.62-2.14.85-2.82.22-.64.42-1.24.76-2.5.36-1.37.56-2.05.76-2.73.13-.45.26-.9.44-1.57-.33.03-.61.06-.9.09-.65.08-1.38.17-2.76.17-1.21,0-1.81.01-2.42.03-.63.01-1.26.03-2.52.03s-1.93-.03-2.58-.06c-.59-.03-1.18-.05-2.36-.05-1.11,0-1.62.05-2.22.12-.64.07-1.36.14-2.71.14-1.5,0-2.33-.19-3-.34-.56-.13-.97-.22-1.93-.22-1.14,0-1.7.04-2.29.08-.65.05-1.32.1-2.64.1-1.17,0-1.75.03-2.34.06-.64.03-1.3.07-2.59.07-1.06,0-1.56.07-2.13.15-.66.09-1.4.2-2.81.2-1.5,0-2.32-.18-2.98-.33-.55-.12-.98-.22-1.95-.22-1.05,0-1.54.07-2.11.16-.66.1-1.41.21-2.82.21-1.21,0-1.82,0-2.43.02-.63.01-1.25.02-2.5.02-1.37,0-2.09-.08-2.74-.16-.59-.07-1.1-.12-2.19-.12-1.29,0-1.93-.03-2.58-.06-.59-.03-1.18-.06-2.35-.06-1.06,0-1.55.07-2.11.16-.66.1-1.41.21-2.82.21-1.18,0-1.77.03-2.36.05-.64.03-1.28.05-2.57.05s-1.9-.02-2.53-.03c-.6-.01-1.2-.03-2.4-.03-1.28,0-1.92-.02-2.55-.05-.59-.02-1.19-.04-2.38-.04-1.4,0-2.15-.11-2.8-.2-.57-.08-1.06-.15-2.13-.15-1.27,0-1.91-.02-2.55-.04-.6-.02-1.19-.04-2.38-.04-.94,0-1.34.1-1.9.23-.67.16-1.51.37-3.03.37s-2.38-.21-3.05-.38c-.55-.14-.94-.24-1.88-.24-1.04,0-1.52.08-2.08.17-.67.11-1.42.23-2.85.23-1.34,0-2.06-.07-2.69-.12-.58-.05-1.12-.1-2.24-.1-1.19,0-1.79.02-2.39.04-.64.02-1.27.04-2.54.04s-1.97-.04-2.61-.08c-.6-.04-1.16-.07-2.32-.07s-1.72.04-2.32.07c-.64.04-1.31.08-2.62.08s-1.96-.04-2.6-.08c-.6-.03-1.16-.07-2.33-.07-1.24,0-1.86,0-2.48,0-.61,0-1.22,0-2.45,0-1.04,0-1.53.08-2.09.17-.66.1-1.42.22-2.84.22-1.33,0-2-.05-2.65-.1-.59-.05-1.14-.09-2.28-.09-1.32,0-2-.05-2.65-.1-.59-.04-1.14-.09-2.28-.09-1.21,0-1.82,0-2.42.02-.63,0-1.25.02-2.5.02-1.05,0-1.54.07-2.11.16-.66.1-1.41.21-2.82.21-1.21,0-1.82,0-2.42.02-.63,0-1.25.02-2.5.02s-1.78.02-2.38.04c-.64.02-1.28.05-2.55.05-1.42,0-2.17-.12-2.83-.22-.56-.09-1.05-.16-2.09-.16-1.24,0-1.86,0-2.48,0-.61,0-1.22,0-2.45,0-1.08,0-1.59.06-2.17.13-.65.08-1.38.17-2.75.17s-2-.05-2.65-.1c-.59-.04-1.14-.09-2.28-.09-1.2,0-1.81.01-2.41.03-.63.01-1.26.03-2.52.03-1.37,0-2.09-.08-2.73-.15-.59-.07-1.1-.12-2.2-.12-1.21,0-1.82,0-2.43.02-.62,0-1.25.02-2.5.02s-1.83,0-2.44.01c-.62,0-1.25.01-2.49.01-1.16,0-1.72.04-2.31.07-.64.04-1.31.08-2.62.08s-2.1-.09-2.74-.16c-.59-.07-1.09-.13-2.19-.13-1.26,0-1.89-.02-2.52-.03-.6-.01-1.2-.03-2.41-.03s-1.72.04-2.32.07c-.64.04-1.31.08-2.61.08-1.14,0-1.7.04-2.28.09-.65.05-1.32.1-2.65.1-1.08,0-1.58.06-2.16.14-.65.08-1.38.17-2.76.17-1.49,0-2.32-.18-2.98-.33-.55-.12-.98-.22-1.95-.22-1.22,0-1.83,0-2.43.02-.62,0-1.25.02-2.5.02s-1.97-.04-2.61-.08c-.6-.04-1.16-.07-2.32-.07h-4.93c-.94,0-1.33.1-1.88.24-.68.17-1.52.38-3.05.38s-2.32-.18-2.99-.33c-.54-.12-.97-.22-1.94-.22-1.13,0-1.68.05-2.26.1-.66.06-1.34.12-2.67.12-1.15,0-1.7.04-2.29.08-.65.05-1.32.09-2.64.09-1.18,0-1.76.03-2.35.05-.64.03-1.29.06-2.58.06s-1.84,0-2.45,0c-.62,0-1.24,0-2.48,0-1.37,0-2.09-.08-2.73-.15-.59-.07-1.1-.12-2.2-.12-1.33,0-2-.05-2.66-.11-.58-.05-1.14-.09-2.27-.09s-1.71.04-2.3.08c-.65.04-1.31.09-2.63.09s-1.94-.03-2.59-.07c-.59-.03-1.17-.06-2.34-.06-1.31,0-1.97-.04-2.61-.08-.6-.04-1.16-.07-2.32-.07-1.24,0-1.86,0-2.48,0-.61,0-1.22,0-2.45,0-1.09,0-1.59.06-2.18.13-.64.08-1.37.17-2.75.17s-1.98-.05-2.63-.09c-.59-.04-1.15-.08-2.3-.08s-1.69.04-2.27.09c-.65.05-1.33.11-2.66.11s-1.93-.03-2.58-.06c-.59-.03-1.17-.06-2.35-.06-1.31,0-1.97-.04-2.62-.08-.59-.04-1.16-.07-2.31-.07-1,0-1.44.09-2,.2-.68.13-1.46.29-2.93.29h-9.85c-1.21-.01-1.82,0-2.43,0-.62,0-1.25.02-2.5.02s-1.9-.02-2.53-.03c-.6-.02-1.2-.03-2.4-.03s-1.73.03-2.32.07c-.64.04-1.3.08-2.6.08-1.38,0-2.11-.09-2.76-.17-.58-.07-1.09-.13-2.17-.13-1.3,0-1.96-.04-2.6-.08-.6-.03-1.16-.07-2.33-.07-1.33,0-2-.05-2.65-.11-.58-.05-1.14-.09-2.28-.09s-1.67.05-2.25.1c-.63.06-1.34.12-2.68.12-1.13,0-1.67.05-2.25.1-.38.03-.8.07-1.37.09.15.67.22,1.16.29,1.61.1.65.19,1.26.52,2.48.32,1.21.53,1.75.78,2.38.27.67.57,1.43.96,2.91.19.73.84,1.21,1.65,1.21,1.22,0,1.83,0,2.44-.01.62,0,1.24-.01,2.49-.01,1.17,0,1.76-.03,2.34-.06.65-.03,1.29-.07,2.58-.07,1.21,0,1.82,0,2.42-.02.62,0,1.25-.02,2.5-.02,1.51,0,2.34.2,3.01.35.56.13.96.23,1.91.23,1.22,0,1.84,0,2.45,0,.62,0,1.24,0,2.47,0,1.14,0,1.7-.04,2.29-.08.65-.05,1.32-.1,2.63-.1,1.03,0,1.49-.08,2.06-.17.67-.11,1.43-.24,2.86-.24,1.25,0,1.87,0,2.49.02.61,0,1.21.02,2.43.02s1.79-.02,2.39-.03c.63-.02,1.26-.04,2.53-.04,1.33,0,2.01.06,2.66.11.58.05,1.13.1,2.25.1,1.33,0,2.01.06,2.67.12.58.05,1.13.1,2.25.1,1.2,0,1.8-.01,2.4-.03.63-.02,1.26-.03,2.52-.03Z" fill="#420656"/><path d="m166.65,202.08c-1.23,0-1.85,0-2.46-.02-.6,0-1.21-.01-2.41-.01-1.14,0-2.06-.92-2.06-2.06s.92-2.06,2.06-2.06c1.23,0,1.85,0,2.46.02.6,0,1.21.01,2.41.01.98,0,1.41-.1,1.96-.23.68-.16,1.45-.35,2.91-.35,1.28,0,1.93.04,2.56.07.6.03,1.16.07,2.32.07,1.29,0,1.94.04,2.58.09.59.04,1.15.08,2.3.08,1.27,0,1.91.03,2.54.06.58.03,1.17.06,2.34.06s1.81,0,2.42-.01c.62,0,1.23-.02,2.47-.02s1.77-.02,2.36-.05c.63-.02,1.26-.05,2.52-.05,1.14,0,2.06.92,2.06,2.06s-.92,2.06-2.06,2.06-1.77.02-2.36.05c-.63.02-1.26.05-2.52.05s-1.81,0-2.42.01c-.62,0-1.23.02-2.47.02s-1.91-.03-2.54-.06c-.58-.03-1.17-.06-2.34-.06-1.29,0-1.94-.04-2.58-.09-.59-.04-1.15-.08-2.3-.08-1.28,0-1.93-.04-2.56-.07-.6-.03-1.16-.07-2.32-.07-.98,0-1.41.1-1.96.23-.68.16-1.45.35-2.91.35Z" fill="#420656"/><path d="m286.43,202.11c-1.5,0-2.29-.14-2.99-.26-.61-.11-1.14-.2-2.28-.2s-1.68.09-2.3.19c-.7.12-1.49.25-2.97.25s-2.15-.08-2.85-.15c-.62-.07-1.21-.13-2.42-.13-1.14,0-2.06-.92-2.06-2.06s.92-2.06,2.06-2.06c1.42,0,2.15.08,2.85.15.62.07,1.21.13,2.42.13s1.68-.09,2.3-.19c.7-.12,1.49-.25,2.97-.25s2.29.14,2.99.26c.61.11,1.14.2,2.28.2s2.06.92,2.06,2.06-.92,2.06-2.06,2.06Z" fill="#420656"/><path d="m304.4,201.98c-1.45,0-2.22-.1-2.9-.19-.64-.08-1.19-.15-2.37-.15-1.31,0-1.97,0-2.62,0-.66,0-1.32,0-2.64,0-1.14,0-2.06-.92-2.06-2.06s.92-2.06,2.06-2.06c1.31,0,1.97,0,2.62,0,.66,0,1.32,0,2.64,0,1.45,0,2.22.1,2.9.19.64.08,1.19.15,2.37.15s1.8-.06,2.43-.12c.7-.07,1.42-.15,2.84-.15,1.14,0,2.06.92,2.06,2.06s-.92,2.06-2.06,2.06c-1.21,0-1.8.06-2.43.12-.7.07-1.42.15-2.85.15Z" fill="#420656"/><path d="m317.15,201.88c-1.14,0-2.06-.92-2.06-2.06s.92-2.06,2.06-2.06,1.71-.08,2.33-.17c.69-.1,1.47-.22,2.94-.22,1.33,0,1.99,0,2.66.01.65,0,1.31.01,2.62.01,1.42,0,2.14.07,2.84.14.62.06,1.22.12,2.43.12,1.14,0,2.06.92,2.06,2.06s-.92,2.06-2.06,2.06c-1.42,0-2.14-.07-2.84-.14-.62-.06-1.22-.12-2.43-.12-1.33,0-1.99,0-2.66-.01-.65,0-1.31-.01-2.62-.01-1.17,0-1.71.08-2.33.17-.69.1-1.47.22-2.94.22Z" fill="#420656"/></svg>