<?xml version="1.0" encoding="UTF-8"?><svg id="uuid-d0ccd81e-5cf7-462c-a0b3-1f45e25c5121" xmlns="http://www.w3.org/2000/svg" viewBox="0 0 347 150"><defs><style>.uuid-08a634fa-b01f-4831-9f7b-395508308930{fill:#fff;}.uuid-e4ecd087-9be1-425d-9e78-f4bc696f929c{fill:#3c1053;}</style></defs><g><g><path class="uuid-08a634fa-b01f-4831-9f7b-395508308930" d="m158.38,64.17h.72l11.82,18.86h10.45l-10.19-15.29c-1.05-1.56-2.28-3.38-3.51-5.01,6.2-.86,10.82-6.16,10.83-12.43,0-8.97-6.18-13.29-15.9-13.29-5.08,0-9.15.06-12.6.26v45.76h8.44l-.06-18.86Zm0-20.08c1.1-.15,2.2-.21,3.31-.2,5.32,0,7.92,3.04,7.92,7.25s-3.11,6.92-8.18,6.92c-1.02,0-2.04-.04-3.05-.14v-13.83Z"/><path class="uuid-08a634fa-b01f-4831-9f7b-395508308930" d="m214.81,68.39c.11-4.78-3.18-8.97-7.86-10v-.14c4.07-1.64,6.71-5.64,6.62-10.03,0-7-5.26-11.04-14.67-11.04-5.32,0-10.83.14-14.54.32v45.39c5.52,0,9.88.14,12.8.14,12.83,0,17.65-7.93,17.65-14.64Zm-22.01-24.33c1.36-.06,2.93-.14,4.74-.14,5.13,0,7.08,2.47,7.08,5.66,0,3.9-2.61,6.47-8.37,6.47-1.36,0-2.41,0-3.45-.07v-11.92Zm0,18.35h3.71c5.78,0,9.29,2.15,9.29,6.3,0,3.83-2.8,7.61-8.31,7.61-1.57,0-3.64-.14-4.68-.2v-13.71Z"/><path class="uuid-08a634fa-b01f-4831-9f7b-395508308930" d="m226.54,48.76c0-3.11,2.26-5.26,7.2-5.26,2.56.02,5.1.43,7.53,1.24l.77-7.41c-2.6-.52-5.25-.8-7.9-.83-10.58,0-16.56,5.39-16.56,13.17,0,14.41,18.43,11.81,18.43,20.18,0,4.1-3.37,5.72-7.34,5.72-3.27,0-6.51-.63-9.54-1.89l-.9,8.11c3.3.85,6.7,1.27,10.12,1.24,10.13,0,16.95-6.04,16.95-14.15,0-13.93-18.75-12.36-18.75-20.11Z"/></g><g><path class="uuid-08a634fa-b01f-4831-9f7b-395508308930" d="m150,89.8h2.29v23.24h-2.29v-23.24Z"/><path class="uuid-08a634fa-b01f-4831-9f7b-395508308930" d="m170.46,104.21v8.84h-2.06v-8.67c0-4.12-1.87-5.63-4.84-5.63-2.39,0-4.19,1.21-5.2,3.34v10.97h-2.06v-15.88h2.06v2.16c1.31-1.6,2.98-2.52,5.47-2.52,4.39,0,6.65,2.42,6.65,7.4Z"/><path class="uuid-08a634fa-b01f-4831-9f7b-395508308930" d="m180.9,99.1h-4.81v9.46c0,2.03,1.11,2.88,2.52,2.88.85,0,1.57-.29,2.23-.75l.88,1.57c-.88.69-2.03,1.08-3.24,1.08-2.32,0-4.42-1.37-4.42-4.75v-9.49h-1.83v-1.93h1.83v-4.32h2.03v4.32h4.81v1.93Z"/><path class="uuid-08a634fa-b01f-4831-9f7b-395508308930" d="m197.56,105.61h-12.77c.2,3.7,2.42,5.96,5.7,5.96,2.26,0,4.12-1.11,5.24-2.88l1.67.98c-1.34,2.36-3.73,3.76-6.87,3.76-4.91,0-7.82-3.4-7.82-8.31s2.91-8.31,7.56-8.31,7.33,3.34,7.33,7.92c0,.29,0,.52-.03.88Zm-12.67-1.87h10.54c-.33-3.11-2.26-5.07-5.2-5.07s-4.91,2.09-5.34,5.07Z"/><path class="uuid-08a634fa-b01f-4831-9f7b-395508308930" d="m211.51,97.66l-.85,1.87c-.85-.39-1.73-.69-2.81-.69-2,0-3.76,1.01-4.84,4.03v10.18h-2.06v-15.88h2.06v2.78c.75-1.57,2.23-3.14,5.17-3.14,1.01,0,2.06.23,3.34.85Z"/><path class="uuid-08a634fa-b01f-4831-9f7b-395508308930" d="m227.65,104.21v8.84h-2.06v-8.67c0-4.12-1.87-5.63-4.84-5.63-2.39,0-4.19,1.21-5.2,3.34v10.97h-2.06v-15.88h2.06v2.16c1.31-1.6,2.98-2.52,5.47-2.52,4.39,0,6.65,2.42,6.65,7.4Z"/><path class="uuid-08a634fa-b01f-4831-9f7b-395508308930" d="m243.26,99.03v-1.87h2.03v15.88h-2.03v-1.83c-1.08,1.47-2.88,2.29-5.14,2.29-4.71,0-7.69-3.4-7.69-8.38s2.98-8.38,7.69-8.38c2.26,0,4.06.82,5.14,2.29Zm-10.64,6.09c0,3.96,2.13,6.42,5.63,6.42,2.32,0,4.22-1.15,5.01-3.24v-6.19c-.82-2.26-2.68-3.4-5.01-3.4-3.5,0-5.63,2.45-5.63,6.42Z"/><path class="uuid-08a634fa-b01f-4831-9f7b-395508308930" d="m256.71,99.1h-4.81v9.46c0,2.03,1.11,2.88,2.52,2.88.85,0,1.57-.29,2.23-.75l.88,1.57c-.88.69-2.03,1.08-3.24,1.08-2.32,0-4.42-1.37-4.42-4.75v-9.49h-1.83v-1.93h1.83v-4.32h2.03v4.32h4.81v1.93Z"/><path class="uuid-08a634fa-b01f-4831-9f7b-395508308930" d="m262.84,90.82c0,1.08-.72,1.54-1.51,1.54s-1.51-.46-1.51-1.54.69-1.51,1.51-1.51,1.51.46,1.51,1.51Zm-2.55,6.35h2.06v15.88h-2.06v-15.88Z"/><path class="uuid-08a634fa-b01f-4831-9f7b-395508308930" d="m281.07,105.12c0,4.91-2.88,8.31-7.82,8.31s-7.82-3.4-7.82-8.31,2.88-8.31,7.82-8.31,7.82,3.4,7.82,8.31Zm-13.45,0c0,3.93,2.13,6.38,5.63,6.38s5.66-2.46,5.66-6.38-2.19-6.38-5.66-6.38-5.63,2.45-5.63,6.38Z"/><path class="uuid-08a634fa-b01f-4831-9f7b-395508308930" d="m298.32,104.21v8.84h-2.06v-8.67c0-4.12-1.87-5.63-4.84-5.63-2.39,0-4.19,1.21-5.2,3.34v10.97h-2.06v-15.88h2.06v2.16c1.31-1.6,2.98-2.52,5.47-2.52,4.39,0,6.65,2.42,6.65,7.4Z"/><path class="uuid-08a634fa-b01f-4831-9f7b-395508308930" d="m313.93,99.03v-1.87h2.03v15.88h-2.03v-1.83c-1.08,1.47-2.88,2.29-5.14,2.29-4.71,0-7.69-3.4-7.69-8.38s2.98-8.38,7.69-8.38c2.26,0,4.06.82,5.14,2.29Zm-10.64,6.09c0,3.96,2.13,6.42,5.63,6.42,2.32,0,4.22-1.15,5.01-3.24v-6.19c-.82-2.26-2.68-3.4-5.01-3.4-3.5,0-5.63,2.45-5.63,6.42Z"/><path class="uuid-08a634fa-b01f-4831-9f7b-395508308930" d="m319.76,89.15h2.06v23.9h-2.06v-23.9Z"/></g></g><g><path class="uuid-e4ecd087-9be1-425d-9e78-f4bc696f929c" d="m125,75c0,46.37-3.6,50-50,50s-50-3.6-50-50,3.6-50,50-50,50,3.63,50,50Z"/><path id="uuid-0480b832-96c8-4db5-afa1-514265585613" class="uuid-08a634fa-b01f-4831-9f7b-395508308930" d="m64.3,57.09v-7.4c-.05-2.44,1.75-4.53,4.17-4.84,2.45-.33,4.74,1.28,5.25,3.7.09.43.13.87.13,1.31v9.35c.16,2.18-1.19,4.19-3.27,4.87-2.93,1.18-5.25,3.5-6.43,6.43-1.08,2.45-2.54,3.46-5.18,3.46h-9.29c-2.2-.11-4.05-1.69-4.5-3.85-.56-2.2.55-4.48,2.62-5.4.73-.27,1.5-.41,2.28-.41h7.36c-.21-.26-.32-.43-.47-.58-3.45-3.52-6.93-7.01-10.37-10.54-1.69-1.63-1.98-4.23-.69-6.2,1.42-2.2,4.34-2.83,6.54-1.41,0,0,.01,0,.02.01.33.21.63.46.9.75,3.32,3.31,6.61,6.66,9.9,10,.28.3.54.61.78.94l.28-.2"/><path id="uuid-3660a55e-27ec-44f2-b418-786e2643a880" class="uuid-08a634fa-b01f-4831-9f7b-395508308930" d="m92.34,85.68l5.9,5.96,5.1,5.16c1.95,1.85,2.04,4.93.19,6.88,0,0,0,0,0,0l-.05.05c-1.78,1.88-4.76,1.96-6.64.18,0,0,0,0,0,0l-.2-.2c-3.43-3.43-6.82-6.88-10.23-10.32-.19-.2-.4-.39-.75-.71v7.81c-.06,2.64-2.26,4.73-4.9,4.67-2.38-.06-4.35-1.85-4.64-4.21-.14-3.66-.13-7.34,0-11.01.05-1.79,1.25-3.35,2.96-3.87,3.06-1.11,5.5-3.48,6.69-6.51.74-2.25,2.91-3.7,5.27-3.52,3.04.05,6.08,0,9.12,0,1.86-.05,3.56,1.06,4.27,2.79.84,1.64.63,3.62-.53,5.06-.75,1.07-1.97,1.71-3.27,1.74-2.37.05-4.74,0-7.12,0l-1.18.05Z"/><path id="uuid-ce327b9c-f988-45b3-b6ed-0490d9ecd4ae" class="uuid-08a634fa-b01f-4831-9f7b-395508308930" d="m64.23,92.67c-1.26,1.32-2.5,2.65-3.78,3.95-2.28,2.34-4.58,4.66-6.89,6.97-1.43,1.62-3.77,2.08-5.7,1.12-2.41-1.24-3.35-4.2-2.11-6.61.24-.47.56-.9.94-1.27,2.78-2.86,5.59-5.68,8.37-8.54.76-.76,1.53-1.52,2.43-2.39-.38,0-.58-.09-.79-.09h-6.77c-2.69-.05-4.84-2.27-4.79-4.96.03-1.97,1.25-3.73,3.08-4.45.66-.22,1.35-.33,2.04-.32h9.12c2.53,0,3.96,1.05,4.88,3.43,1.14,2.95,3.45,5.3,6.38,6.5,2.09.71,3.45,2.73,3.31,4.94v9.43c.03,2-1.2,3.8-3.08,4.5-1.84.69-3.92.23-5.29-1.18-.74-.81-1.13-1.88-1.11-2.98v-7.89l-.23-.13"/><path id="uuid-04a20e13-426d-4c13-a9bc-3465129cafb3" class="uuid-08a634fa-b01f-4831-9f7b-395508308930" d="m92.69,64.16h7.33c2.69-.03,4.9,2.13,4.93,4.82,0,0,0,0,0,0,0,.74-.15,1.48-.48,2.15-.78,1.77-2.56,2.89-4.5,2.81-3.13.04-6.3.06-9.38,0-2.15.1-4.09-1.26-4.73-3.31-1.14-3.04-3.5-5.46-6.51-6.68-2.07-.76-3.4-2.79-3.26-4.99v-9.26c-.06-2.62,2.02-4.8,4.64-4.86,0,0,0,0,.01,0h.13c2.54-.1,4.68,1.89,4.78,4.43,0,0,0,.01,0,.02,0,.12,0,.24,0,.36v7.49l.15.26c.9-.9,1.67-1.8,2.51-2.7,2.8-2.85,5.59-5.71,8.41-8.54,1.86-1.87,4.89-1.88,6.77-.02,1.24,1.24,1.71,3.05,1.22,4.73-.36.98-.92,1.87-1.65,2.62-3.17,3.3-6.42,6.53-9.63,9.79-.22.22-.42.45-.77.83"/></g></svg>