<?xml version="1.0" encoding="UTF-8"?><svg version="1.1" width="29px" height="29px" viewBox="0 0 29.0 29.0" xmlns="http://www.w3.org/2000/svg" xmlns:xlink="http://www.w3.org/1999/xlink"><defs><clipPath id="i0"><path d="M1700,0 L1700,5566 L0,5566 L0,0 L1700,0 Z"></path></clipPath><clipPath id="i1"><path d="M13.9460017,0 C21.6627894,0 27.8920035,6.23243458 27.8920035,13.9532117 C27.8920035,15.7254919 27.3447009,17.8546487 26.2500957,20.340682 L28.1869729,24.9778979 C28.2991132,25.246381 28.3333361,25.5410283 28.2857188,25.828067 C28.1457694,26.6716882 27.3484278,27.2421268 26.5048067,27.1021773 L21.0467822,26.1967383 C18.2854414,27.3365284 15.9185146,27.9064235 13.9460017,27.9064235 C6.22921411,27.9064235 0,21.6739889 0,13.9532117 C0,6.23243458 6.22921411,0 13.9460017,0 Z"></path></clipPath><clipPath id="i2"><path d="M3.7810626,0 L3.7810626,10.1807252 L0,10.1807252 L0,0 L3.7810626,0 Z"></path></clipPath><clipPath id="i3"><path d="M1.90888597,0 C2.94705203,0 3.81777195,0.83723069 3.81777195,1.90888597 C3.81777195,2.98054126 2.94705203,3.81777195 1.90888597,3.81777195 C0.870719918,3.81777195 0,2.98054126 0,1.90888597 C0,0.870719918 0.83723069,0 1.90888597,0 Z"></path></clipPath></defs><g transform="translate(-411.0 -4563.0)"><g clip-path="url(#i0)"><g transform="translate(399.3999997047886 4551.747082442907)"><g transform="translate(12.0 12.04678825313819)"><g clip-path="url(#i1)"><polygon points="0,0 28.3065954,0 28.3065954,27.9064235 0,27.9064235 0,0" stroke="none" fill="#333333"></polygon></g></g><g transform="translate(24.09111402674444 17.728160782559257)"><g transform="translate(0.0 6.362953244185177)"><g clip-path="url(#i2)"><polygon points="0,0 3.81777195,0 3.81777195,10.1807252 0,10.1807252 0,0" stroke="none" fill="#F5F5F5"></polygon></g></g><g clip-path="url(#i3)"><polygon points="0,0 3.81777195,0 3.81777195,3.81777195 0,3.81777195 0,0" stroke="none" fill="#F5F5F5"></polygon></g></g></g></g></g></svg>