<svg width="24" height="24" viewBox="0 0 24 24" fill="none" xmlns="http://www.w3.org/2000/svg">
<path d="M11.6602 0C5.20766 0 -0.000976562 5.21133 -0.000976562 11.6672C-0.000976562 18.123 5.20766 23.3343 11.6602 23.3343C14.1342 23.3343 17.5976 21.9047 17.5976 21.9047L20.7888 22.4341C22.3898 22.6997 23.6572 21.0993 23.0317 19.6018L21.9484 17.0081C21.9484 17.0081 23.3213 13.89 23.3213 11.6672C23.3213 5.21133 18.1126 0 11.6602 0Z" fill="#333333"/>
<path fill-rule="evenodd" clip-rule="evenodd" d="M10.1245 6.80611C10.1245 7.67944 10.8308 8.36173 11.673 8.36173C12.5151 8.36173 13.2214 7.67944 13.2214 6.80611C13.2214 5.93278 12.5151 5.25049 11.673 5.25049C10.8037 5.25049 10.1245 5.96007 10.1245 6.80611ZM10.1245 17.6955H13.1916V9.91735H10.1245V17.6955Z" fill="white"/>
</svg>
