<svg width="24" height="24" viewBox="0 0 24 24" fill="none" xmlns="http://www.w3.org/2000/svg">
<path d="M0.5 12C0.5 5.64873 5.64873 0.5 12 0.5C18.3513 0.5 23.5 5.64873 23.5 12C23.5 18.3513 18.3513 23.5 12 23.5C5.64873 23.5 0.5 18.3513 0.5 12Z" stroke="white"/>
<path fill-rule="evenodd" clip-rule="evenodd" d="M7.75 8.92919C7.75 8.65982 7.83711 8.4376 8.01133 8.26252C8.18555 8.08743 8.41205 7.99989 8.6908 7.99989C8.96458 7.99989 9.18609 8.08608 9.35533 8.25848C9.52955 8.43626 9.61667 8.6679 9.61667 8.95343C9.61667 9.21201 9.53205 9.4275 9.3628 9.59989C9.18858 9.77767 8.9596 9.86656 8.67587 9.86656H8.6684C8.39462 9.86656 8.17311 9.77767 8.00387 9.59989C7.83462 9.42212 7.75 9.19854 7.75 8.92919ZM7.75 15.9999V10.6666H9.61667V15.9999H7.75ZM12.4296 15.9999H10.6833C10.6938 14.3515 10.6991 13.0716 10.6991 12.1601C10.6991 11.2486 10.6938 10.7055 10.6833 10.5309H12.4296V11.3087L12.4218 11.325H12.4296V11.3087C12.8072 10.7028 13.3343 10.3999 14.0108 10.3999C14.6139 10.3999 15.0989 10.6087 15.466 11.0262C15.8331 11.4438 16.0167 12.0564 16.0167 12.8642V15.9999H14.2704V13.0771C14.2704 12.2529 13.9767 11.8408 13.3893 11.8408C13.1638 11.8408 12.9764 11.905 12.8269 12.0332C12.6774 12.1615 12.566 12.3184 12.4926 12.504C12.4506 12.6077 12.4296 12.7551 12.4296 12.9461V15.9999Z" fill="white"/>
</svg>
