<svg width="24" height="24" viewBox="0 0 24 24" fill="none" xmlns="http://www.w3.org/2000/svg">
<path d="M0 12C0 5.37258 5.37258 0 12 0C18.6274 0 24 5.37258 24 12C24 18.6274 18.6274 24 12 24C5.37258 24 0 18.6274 0 12Z" fill="white"/>
<path d="M12.6988 11.4257L15.4308 8.25H14.7834L12.4112 11.0075L10.5165 8.25H8.33125L11.1964 12.4197L8.33125 15.75H8.97871L11.4839 12.8381L13.4848 15.75H15.67L12.6987 11.4257H12.6989H12.6988ZM11.812 12.4564L11.5217 12.0412L9.21196 8.73735H10.2064L12.0704 11.4037L12.3607 11.8189L14.7837 15.2847H13.7893L11.8121 12.4566V12.4564L11.812 12.4564Z" fill="#724890"/>
</svg>
