<svg width="24" height="24" viewBox="0 0 24 24" fill="none" xmlns="http://www.w3.org/2000/svg">
<path d="M0 12C0 5.37258 5.37258 0 12 0C18.6274 0 24 5.37258 24 12C24 18.6274 18.6274 24 12 24C5.37258 24 0 18.6274 0 12Z" fill="white"/>
<path fill-rule="evenodd" clip-rule="evenodd" d="M15.75 8H8.25C7.55556 8 7 8.55556 7 9.25V13.9722C7 14.6667 7.55556 15.2222 8.25 15.2222H15.75C16.4444 15.2222 17 14.6667 17 13.9722V9.25C17 8.55556 16.4444 8 15.75 8ZM8.25003 8.5H15.75C16.1667 8.5 16.5 8.83333 16.5 9.25V9.72222L12.8334 11.5833C12.3056 11.8333 11.6945 11.8333 11.1945 11.5833L7.52781 9.72222V9.25C7.50003 8.83333 7.83336 8.5 8.25003 8.5ZM7.49992 13.9722C7.49992 14.3889 7.83326 14.7222 8.24992 14.7222H15.7499C16.1666 14.7222 16.4999 14.3889 16.4999 13.9722V10.3056L13.0555 12.0556C12.7221 12.2222 12.361 12.3056 11.9999 12.3056C11.6388 12.3056 11.2777 12.2222 10.9444 12.0556L7.49992 10.3056V13.9722Z" fill="#3C1053"/>
</svg>
