<svg width="24" height="24" viewBox="0 0 24 24" fill="none" xmlns="http://www.w3.org/2000/svg">
<path fill-rule="evenodd" clip-rule="evenodd" d="M11.9874 4.3623C12.3187 4.3623 12.5874 4.63093 12.5874 4.9623V11.4157H19.0408C19.3721 11.4157 19.6408 11.6844 19.6408 12.0157C19.6408 12.3471 19.3721 12.6157 19.0408 12.6157L12.5874 12.615V12.6157H12.5873L12.5874 19.0691C12.5874 19.3637 12.3751 19.6087 12.0952 19.6595L11.9874 19.6691C11.656 19.6691 11.3874 19.4005 11.3874 19.0691L11.3874 12.6157H4.93398C4.60261 12.6157 4.33398 12.3471 4.33398 12.0157L4.34365 11.9078C4.39445 11.6279 4.63943 11.4157 4.93398 11.4157L11.3881 11.4157L11.3874 4.9623C11.3874 4.63093 11.656 4.3623 11.9874 4.3623Z" fill="#5E10B1"/>
</svg>
