<svg width="24" height="24" viewBox="0 0 24 24" fill="none" xmlns="http://www.w3.org/2000/svg">
<path d="M0 12C0 5.37258 5.37258 0 12 0C18.6274 0 24 5.37258 24 12C24 18.6274 18.6274 24 12 24C5.37258 24 0 18.6274 0 12Z" fill="white"/>
<path fill-rule="evenodd" clip-rule="evenodd" d="M7.75 8.92917C7.75 8.65981 7.83711 8.43758 8.01133 8.2625C8.18555 8.08742 8.41205 7.99988 8.6908 7.99988C8.96458 7.99988 9.18609 8.08607 9.35533 8.25846C9.52955 8.43624 9.61667 8.66789 9.61667 8.95341C9.61667 9.212 9.53205 9.42748 9.3628 9.59988C9.18858 9.77766 8.9596 9.86654 8.67587 9.86654H8.6684C8.39462 9.86654 8.17311 9.77766 8.00387 9.59988C7.83462 9.4221 7.75 9.19853 7.75 8.92917ZM7.75 15.9999V10.6665H9.61667V15.9999H7.75ZM12.4296 15.9999H10.6833C10.6938 14.3515 10.6991 13.0716 10.6991 12.1601C10.6991 11.2486 10.6938 10.7055 10.6833 10.5309H12.4296V11.3087L12.4218 11.325H12.4296V11.3087C12.8072 10.7028 13.3343 10.3999 14.0108 10.3999C14.6139 10.3999 15.0989 10.6086 15.466 11.0262C15.8331 11.4437 16.0167 12.0564 16.0167 12.8642V15.9999H14.2704V13.0771C14.2704 12.2529 13.9767 11.8408 13.3893 11.8408C13.1638 11.8408 12.9764 11.9049 12.8269 12.0332C12.6774 12.1615 12.566 12.3184 12.4926 12.504C12.4506 12.6077 12.4296 12.755 12.4296 12.9461V15.9999Z" fill="#42145F"/>
</svg>
