<svg width="16" height="16" viewBox="0 0 16 16" fill="none" xmlns="http://www.w3.org/2000/svg">
<circle cx="8" cy="8" r="8" fill="white"/>
<path fill-rule="evenodd" clip-rule="evenodd" d="M5.72521 5.39762C5.59503 5.26744 5.38398 5.26744 5.25381 5.39762C5.13985 5.51158 5.12541 5.68757 5.21085 5.81697L5.24905 5.86427L7.39355 8.008L5.25381 10.1476C5.13985 10.2616 5.12541 10.4376 5.21085 10.567L5.24905 10.6143L5.25381 10.619C5.36776 10.733 5.54375 10.7474 5.67316 10.662L5.72046 10.6238L7.91974 8.4245L10.114 10.6193L10.1608 10.658L10.1665 10.6617C10.2959 10.7471 10.4719 10.7332 10.5859 10.6193L10.6246 10.5724L10.6283 10.5668C10.7138 10.4374 10.6996 10.2616 10.5857 10.1476L8.44625 8.008L10.5859 5.86927L10.6246 5.82244L10.6283 5.81678C10.7138 5.68738 10.6996 5.51158 10.5857 5.39762C10.4555 5.26744 10.2444 5.26744 10.1143 5.39762L7.91974 7.59215L5.72521 5.39762Z" fill="#5E10B1"/>
</svg>
