<svg width="24" height="24" viewBox="0 0 24 24" fill="none" xmlns="http://www.w3.org/2000/svg">
<path d="M0 12C0 5.37258 5.37258 0 12 0C18.6274 0 24 5.37258 24 12C24 18.6274 18.6274 24 12 24C5.37258 24 0 18.6274 0 12Z" fill="white"/>
<path fill-rule="evenodd" clip-rule="evenodd" d="M14.0753 10.4389L13.9696 11.5634H12.5614V16.6239H10.8746V11.5634H9.75V10.4389H10.8746V9.62303C10.8746 9.21454 10.8315 8.58338 11.1284 8.19344C11.441 7.78045 11.8436 7.49988 12.5819 7.49988C13.7843 7.49988 14.2777 7.67109 14.2777 7.67109L14.0326 9.08409C14.0326 9.08409 13.635 8.9691 13.2642 8.9691C12.8937 8.9691 12.5614 9.10152 12.5614 9.47234V10.4389H14.0753Z" fill="#724890"/>
</svg>
